<svg width="497" height="556" viewBox="0 0 497 556" fill="none" xmlns="http://www.w3.org/2000/svg">
<path d="M325.424 132.866C323.424 122.866 305.624 131.966 314.424 138.366C325.424 146.366 326.924 137.365 325.424 132.866Z" fill="url(#paint0_linear_213_80)"/>
<path d="M396.478 62.6281C411.661 53.83 392.309 50.4186 384.713 60.4258C375.218 72.9348 389.815 66.9365 396.478 62.6281Z" fill="url(#paint1_linear_213_80)"/>
<path d="M354.042 137.468C334.542 127.302 294.742 102.068 291.542 82.4685C287.542 57.9685 306.042 98.4685 330.042 90.4685C354.042 82.4685 291.042 26.9685 336.042 24.4685C381.042 21.9685 339.042 114.968 362.042 108.468C385.042 101.968 400.042 93.9685 385.042 110.969C371.905 125.857 369.123 148.8 369.978 156.62C370.993 158.952 371.199 160.118 370.542 158.969C370.294 158.534 370.099 157.729 369.978 156.62C367.902 151.848 362.438 142.191 354.042 137.468Z" fill="url(#paint2_linear_213_80)"/>
<g filter="url(#filter0_d_213_80)">
<path d="M277.755 259.268C266.241 273.472 254.489 300.069 250.052 311.592C232.76 325.362 184.479 352.71 129.691 351.941C74.903 351.172 85.5596 372.356 97.7364 383.043C119.481 405.369 190.162 447.177 298.928 435.8C434.887 421.579 398.55 255.435 392.041 238.512C385.531 221.589 385.893 153.844 370.817 139.171C358.756 127.433 339.115 142.487 330.803 151.481C279.216 182.606 292.148 241.513 277.755 259.268Z" fill="#D9D9D9"/>
<path d="M277.755 259.268C266.241 273.472 254.489 300.069 250.052 311.592C232.76 325.362 184.479 352.71 129.691 351.941C74.903 351.172 85.5596 372.356 97.7364 383.043C119.481 405.369 190.162 447.177 298.928 435.8C434.887 421.579 398.55 255.435 392.041 238.512C385.531 221.589 385.893 153.844 370.817 139.171C358.756 127.433 339.115 142.487 330.803 151.481C279.216 182.606 292.148 241.513 277.755 259.268Z" fill="url(#paint3_linear_213_80)"/>
<circle cx="333.356" cy="182.36" r="17.5084" transform="rotate(-5.97129 333.356 182.36)" fill="url(#paint4_radial_213_80)" fill-opacity="0.43"/>
<path d="M323.186 156.34C318.345 157.523 309.696 163.303 313.832 176.953C319.002 194.016 342.04 161.816 323.186 156.34Z" fill="#093D68"/>
<g filter="url(#filter1_f_213_80)">
<path d="M325.643 175.003C329.735 166.878 324.929 162.186 322.014 160.855C326.102 169.56 321.562 175.838 318.782 177.888C321.903 178.649 324.656 176.282 325.643 175.003Z" fill="url(#paint5_linear_213_80)" fill-opacity="0.31"/>
</g>
<g filter="url(#filter2_f_213_80)">
<circle cx="1.86979" cy="1.86979" r="1.86979" transform="matrix(-0.73178 0.681541 0.681541 0.73178 323.695 160.218)" fill="white"/>
</g>
<g filter="url(#filter3_f_213_80)">
<circle cx="0.679925" cy="0.679925" r="0.679925" transform="matrix(-0.73178 0.681541 0.681541 0.73178 323.545 165.544)" fill="white"/>
</g>
<ellipse cx="8.15838" cy="3.94796" rx="8.15838" ry="3.94796" transform="matrix(0.336943 0.941525 0.941525 -0.336943 298.802 175.669)" fill="#93BFE3"/>
<path d="M340.687 150.367C338.499 150.211 339.145 144.274 339.742 141.325C342.516 136.706 356.187 135.238 351.855 142.945C350.233 145.83 343.422 150.562 340.687 150.367Z" fill="#093D68"/>
<path d="M339.962 153.538C336.459 165.89 337.941 180.832 341.552 186.891C341.729 187.188 342.084 187.057 341.987 186.739C339.414 178.343 339.818 162.758 340.516 153.712C340.543 153.372 340.053 153.218 339.962 153.538Z" fill="white"/>
<path d="M345.542 153.786C345.538 163.673 350.885 173.249 354.704 178.321C354.919 178.606 355.331 178.447 355.18 178.141C349.735 167.143 347.451 159.992 346.119 153.819C346.049 153.497 345.542 153.467 345.542 153.786Z" fill="white"/>
<path d="M349.923 153.214C351.8 160.68 357.648 165.996 361.565 168.499C361.855 168.684 362.174 168.401 361.948 168.164C356.479 162.42 352.826 157.373 350.499 153.07C350.344 152.783 349.845 152.906 349.923 153.214Z" fill="white"/>
<mask id="mask0_213_80" style="mask-type:alpha" maskUnits="userSpaceOnUse" x="87" y="134" width="315" height="304">
<path d="M277.755 259.268C266.241 273.472 254.489 300.069 250.052 311.592C232.76 325.362 184.479 352.71 129.691 351.941C74.903 351.172 85.5596 372.356 97.7364 383.043C119.481 405.369 190.162 447.177 298.928 435.8C434.887 421.579 398.55 255.435 392.041 238.512C385.531 221.589 385.893 153.844 370.817 139.171C358.756 127.433 339.115 142.487 330.803 151.481C279.216 182.606 292.148 241.513 277.755 259.268Z" fill="#D9D9D9"/>
<path d="M277.755 259.268C266.241 273.472 254.489 300.069 250.052 311.592C232.76 325.362 184.479 352.71 129.691 351.941C74.903 351.172 85.5596 372.356 97.7364 383.043C119.481 405.369 190.162 447.177 298.928 435.8C434.887 421.579 398.55 255.435 392.041 238.512C385.531 221.589 385.893 153.844 370.817 139.171C358.756 127.433 339.115 142.487 330.803 151.481C279.216 182.606 292.148 241.513 277.755 259.268Z" fill="url(#paint6_linear_213_80)"/>
</mask>
<g mask="url(#mask0_213_80)">
<path d="M319.82 344.241C335.816 290.027 372.452 243.269 388.771 226.666C408.874 261.351 448.593 332.532 446.643 339.778C444.205 348.835 398.922 440.236 393.346 451.653C388.884 460.786 347.407 487.152 327.226 499.193L115.733 406.212C177.097 408.144 303.824 398.455 319.82 344.241Z" fill="#D9D9D9"/>
<path d="M319.82 344.241C335.816 290.027 372.452 243.269 388.771 226.666C408.874 261.351 448.593 332.532 446.643 339.778C444.205 348.835 398.922 440.236 393.346 451.653C388.884 460.786 347.407 487.152 327.226 499.193L115.733 406.212C177.097 408.144 303.824 398.455 319.82 344.241Z" fill="url(#paint7_linear_213_80)"/>
</g>
<path d="M372.469 413.889C351.18 412.325 332.043 409.316 325.135 408.007C305.621 389.736 371.6 340.856 382.658 355.95C393.716 371.043 463.602 385.399 475.828 392.245C488.054 399.091 438.516 423.908 419.623 424.53C400.73 425.152 399.079 415.846 372.469 413.889Z" fill="url(#paint8_linear_213_80)"/>
<path d="M372.469 413.889C351.18 412.325 332.043 409.316 325.135 408.007C305.621 389.736 371.6 340.856 382.658 355.95C393.716 371.043 463.602 385.399 475.828 392.245C488.054 399.091 438.516 423.908 419.623 424.53C400.73 425.152 399.079 415.846 372.469 413.889Z" fill="url(#paint9_linear_213_80)"/>
<path d="M372.469 413.889C351.18 412.325 332.043 409.316 325.135 408.007C305.621 389.736 371.6 340.856 382.658 355.95C393.716 371.043 463.602 385.399 475.828 392.245C488.054 399.091 438.516 423.908 419.623 424.53C400.73 425.152 399.079 415.846 372.469 413.889Z" fill="url(#paint10_linear_213_80)"/>
<path d="M234.656 412.676C227.781 403.623 233.106 374.237 236.628 360.676C271.263 341.417 305.694 331.635 318.27 342.372C323.238 344.56 298.817 398.733 301.707 441.821C305.319 495.68 207.774 535.689 193.941 532.249C180.107 528.81 218.575 510.128 222.339 494.587C226.103 479.046 243.251 423.993 234.656 412.676Z" fill="url(#paint11_linear_213_80)"/>
<path d="M90.7978 374.967C30.7776 355.245 17.6894 329.802 18.6478 319.546C19.354 317.666 22.9438 315.305 31.6532 320.894C42.54 327.88 42.0581 310.326 49.5654 310.895C57.0727 311.464 58.5831 319.431 66.1997 314.572C73.8163 309.713 70.6863 299.207 77.4845 305.944C84.2828 312.681 87.3259 348.247 112.308 360.53C132.294 370.356 106.295 374.249 90.7978 374.967Z" fill="url(#paint12_linear_213_80)"/>
<path d="M67.5981 352.577C56.2479 344.813 47.9475 340.735 38.1753 321.566C38.2265 329.685 49.177 348.248 67.5981 352.577Z" fill="url(#paint13_linear_213_80)"/>
<path d="M92.6282 345.896C81.278 338.133 72.9775 334.054 63.2054 314.885C63.2565 323.004 74.2071 341.568 92.6282 345.896Z" fill="url(#paint14_linear_213_80)"/>
<path d="M78.147 348.817C67.202 340.492 59.1174 336.001 50.3225 316.364C49.9649 324.475 59.9671 343.566 78.147 348.817Z" fill="url(#paint15_linear_213_80)"/>
<path d="M122.761 359.932C96.51 342.96 90.0504 323.3 90.102 315.592C90.3374 314.198 91.7843 312.541 95.6884 317.062C100.568 322.714 99.7527 309.448 102.97 310.138C106.188 310.829 107.108 316.895 110.183 313.492C113.258 310.089 111.56 302.051 114.69 307.372C117.82 312.693 120.353 339.644 131.421 349.783C140.275 357.895 129.337 359.929 122.761 359.932Z" fill="#D9D9D9"/>
<path d="M122.761 359.932C96.51 342.96 90.0504 323.3 90.102 315.592C90.3374 314.198 91.7843 312.541 95.6884 317.062C100.568 322.714 99.7527 309.448 102.97 310.138C106.188 310.829 107.108 316.895 110.183 313.492C113.258 310.089 111.56 302.051 114.69 307.372C117.82 312.693 120.353 339.644 131.421 349.783C140.275 357.895 129.337 359.929 122.761 359.932Z" fill="url(#paint16_linear_213_80)"/>
<path d="M114.46 348.795C107.227 340.233 101.592 335.233 98.0578 318.011C96.3462 324.428 100.936 341.425 114.46 348.795Z" fill="url(#paint17_linear_213_80)"/>
<path d="M124.896 344.995C117.662 336.433 112.028 331.433 108.494 314.211C106.782 320.628 111.372 337.625 124.896 344.995Z" fill="url(#paint18_linear_213_80)"/>
<g opacity="0.49">
<path d="M133.925 385.298C127.352 382.808 140.795 372.754 148.338 368.039C162.47 359.951 159.512 365.552 171.761 367.066C184.01 368.581 173.816 381.102 170.431 380.639C167.045 380.175 158.082 394.082 154.639 385.74C151.196 377.397 142.141 388.411 133.925 385.298Z" fill="#3476AD" fill-opacity="0.25"/>
<path d="M174.687 361.951C174.27 358.356 179.029 358.095 181.46 358.415C185.338 359.432 185.151 362.572 180.81 364.939C176.469 367.307 175.208 366.445 174.687 361.951Z" fill="#7BB2DF" fill-opacity="0.33"/>
<path d="M241.239 337.758C240.822 334.163 245.581 333.903 248.012 334.222C251.89 335.24 251.703 338.379 247.362 340.747C243.021 343.115 241.76 342.252 241.239 337.758Z" fill="#3476AD" fill-opacity="0.22"/>
<path d="M183.171 382.668C176.793 383.97 185.752 371.62 191.028 365.282C200.922 350.19 202.229 371.198 195.365 371.841C188.501 372.483 202.9 382.001 194.096 384.367C185.292 386.732 191.143 381.041 183.171 382.668Z" fill="#7BB2DF" fill-opacity="0.34"/>
<path d="M196.081 355.344C194.015 351.231 202.241 347.396 206.612 345.993C215.201 342.827 216.766 351.846 214.487 354.861C212.208 357.876 207.408 354.704 204.608 353.225C201.808 351.746 198.664 360.485 196.081 355.344Z" fill="#7BB2DF" fill-opacity="0.21"/>
<path d="M218.631 345.234C214.888 344.592 217.772 339.057 219.682 336.37C222.73 333.664 223.837 337.142 232.609 335.3C241.382 333.458 223.622 369.549 219.071 362.191C214.519 354.833 223.309 346.037 218.631 345.234Z" fill="#89B1D1" fill-opacity="0.7"/>
<path d="M204.18 368.3C202.368 367.826 203.505 365.254 204.3 364.027C205.638 362.839 206.315 364.581 210.42 364.061C214.524 363.541 207.605 380.359 205.119 376.579C202.632 372.799 206.446 368.892 204.18 368.3Z" fill="#89B1D1" fill-opacity="0.7"/>
<path d="M129.532 380.016C130.461 381.643 127.828 382.63 126.395 382.92C124.611 382.796 125.381 381.093 122.138 378.525C118.894 375.957 135.75 369.131 134.79 373.553C133.829 377.974 128.369 377.984 129.532 380.016Z" fill="#89B1D1" fill-opacity="0.7"/>
<path d="M189.554 352.708C190.484 354.334 187.85 355.321 186.417 355.612C184.633 355.487 185.404 353.784 182.16 351.216C178.916 348.648 195.772 341.822 194.812 346.244C193.851 350.666 188.392 350.675 189.554 352.708Z" fill="#3476AD" fill-opacity="0.55"/>
</g>
<path d="M269.41 313.175C265.846 312.122 273.041 310.671 275.128 308.273C278.318 305.987 273.69 303.667 282.343 302.877C290.996 302.086 277.579 327.443 277.579 318.893C277.579 310.315 273.865 314.491 269.41 313.175Z" fill="#89B1D1" fill-opacity="0.55"/>
<path d="M274.205 295.367C275.038 297.256 272.038 298.036 270.434 298.19C268.493 297.849 269.533 296.071 266.272 292.884C263.011 289.697 282.269 284.148 280.71 288.885C279.15 293.621 273.164 293.006 274.205 295.367Z" fill="#89B1D1" fill-opacity="0.16"/>
<path d="M265.219 312.522C266.052 314.411 263.052 315.191 261.448 315.345C259.507 315.004 260.547 313.226 257.286 310.04C254.025 306.853 273.283 301.304 271.724 306.04C270.164 310.777 264.178 310.161 265.219 312.522Z" fill="#3476AD" fill-opacity="0.08"/>
</g>
<path d="M377.996 2.41931C372.796 -8.38069 370.496 19.586 369.996 34.9193C361.996 75.9194 383.996 43.4192 392.996 25.9192C401.996 8.41919 384.496 15.9193 377.996 2.41931Z" fill="url(#paint19_linear_213_80)"/>
<defs>
<filter id="filter0_d_213_80" x="9.72748e-05" y="120.271" width="496.344" height="434.784" filterUnits="userSpaceOnUse" color-interpolation-filters="sRGB">
<feFlood flood-opacity="0" result="BackgroundImageFix"/>
<feColorMatrix in="SourceAlpha" type="matrix" values="0 0 0 0 0 0 0 0 0 0 0 0 0 0 0 0 0 0 127 0" result="hardAlpha"/>
<feOffset dy="4"/>
<feGaussianBlur stdDeviation="9.3"/>
<feComposite in2="hardAlpha" operator="out"/>
<feColorMatrix type="matrix" values="0 0 0 0 0 0 0 0 0 0 0 0 0 0 0 0 0 0 0.22 0"/>
<feBlend mode="normal" in2="BackgroundImageFix" result="effect1_dropShadow_213_80"/>
<feBlend mode="normal" in="SourceGraphic" in2="effect1_dropShadow_213_80" result="shape"/>
</filter>
<filter id="filter1_f_213_80" x="317.982" y="160.055" width="10.0429" height="18.7797" filterUnits="userSpaceOnUse" color-interpolation-filters="sRGB">
<feFlood flood-opacity="0" result="BackgroundImageFix"/>
<feBlend mode="normal" in="SourceGraphic" in2="BackgroundImageFix" result="shape"/>
<feGaussianBlur stdDeviation="0.4" result="effect1_foregroundBlur_213_80"/>
</filter>
<filter id="filter2_f_213_80" x="319.532" y="158.79" width="8.1395" height="8.14023" filterUnits="userSpaceOnUse" color-interpolation-filters="sRGB">
<feFlood flood-opacity="0" result="BackgroundImageFix"/>
<feBlend mode="normal" in="SourceGraphic" in2="BackgroundImageFix" result="shape"/>
<feGaussianBlur stdDeviation="1.1" result="effect1_foregroundBlur_213_80"/>
</filter>
<filter id="filter3_f_213_80" x="321.831" y="164.825" width="3.35986" height="3.35938" filterUnits="userSpaceOnUse" color-interpolation-filters="sRGB">
<feFlood flood-opacity="0" result="BackgroundImageFix"/>
<feBlend mode="normal" in="SourceGraphic" in2="BackgroundImageFix" result="shape"/>
<feGaussianBlur stdDeviation="0.5" result="effect1_foregroundBlur_213_80"/>
</filter>
<linearGradient id="paint0_linear_213_80" x1="318.51" y1="132.471" x2="324.842" y2="136.614" gradientUnits="userSpaceOnUse">
<stop stop-color="#62A7DE"/>
<stop offset="1" stop-color="#3476AD"/>
</linearGradient>
<linearGradient id="paint1_linear_213_80" x1="395.149" y1="58.303" x2="396.357" y2="63.8576" gradientUnits="userSpaceOnUse">
<stop stop-color="#62A7DE"/>
<stop offset="1" stop-color="#3476AD"/>
</linearGradient>
<linearGradient id="paint2_linear_213_80" x1="340.033" y1="24.4191" x2="397.111" y2="41.7611" gradientUnits="userSpaceOnUse">
<stop stop-color="#62A7DE"/>
<stop offset="1" stop-color="#3476AD"/>
</linearGradient>
<linearGradient id="paint3_linear_213_80" x1="204.982" y1="156.557" x2="305.422" y2="426.064" gradientUnits="userSpaceOnUse">
<stop stop-color="#EFF8FF"/>
<stop offset="1" stop-color="#ABC3D7"/>
</linearGradient>
<radialGradient id="paint4_radial_213_80" cx="0" cy="0" r="1" gradientUnits="userSpaceOnUse" gradientTransform="translate(333.356 182.36) rotate(90) scale(17.5084)">
<stop stop-color="#FFAFAF"/>
<stop offset="1" stop-color="#FFAFAF" stop-opacity="0"/>
</radialGradient>
<linearGradient id="paint5_linear_213_80" x1="317.137" y1="165.398" x2="325.942" y2="174.851" gradientUnits="userSpaceOnUse">
<stop stop-color="#93BFE3"/>
<stop offset="1" stop-color="#1279CE"/>
</linearGradient>
<linearGradient id="paint6_linear_213_80" x1="204.982" y1="156.557" x2="305.422" y2="426.064" gradientUnits="userSpaceOnUse">
<stop stop-color="#EFF8FF"/>
<stop offset="1" stop-color="#ABC3D7"/>
</linearGradient>
<linearGradient id="paint7_linear_213_80" x1="235.767" y1="529.875" x2="69.5849" y2="230.216" gradientUnits="userSpaceOnUse">
<stop stop-color="#D9E9F6"/>
<stop offset="1" stop-color="#1B5381" stop-opacity="0.780392"/>
</linearGradient>
<linearGradient id="paint8_linear_213_80" x1="358.569" y1="378.104" x2="410.361" y2="452.27" gradientUnits="userSpaceOnUse">
<stop stop-color="#B1C8DB"/>
<stop offset="1" stop-color="#EFF8FF"/>
</linearGradient>
<linearGradient id="paint9_linear_213_80" x1="358.569" y1="378.104" x2="410.361" y2="452.27" gradientUnits="userSpaceOnUse">
<stop stop-color="#B1C8DB"/>
<stop offset="1" stop-color="#EFF8FF"/>
</linearGradient>
<linearGradient id="paint10_linear_213_80" x1="358.569" y1="378.104" x2="410.361" y2="452.27" gradientUnits="userSpaceOnUse">
<stop stop-color="#B1C8DB"/>
<stop offset="1" stop-color="#EFF8FF"/>
</linearGradient>
<linearGradient id="paint11_linear_213_80" x1="283.645" y1="360.889" x2="330.944" y2="508.765" gradientUnits="userSpaceOnUse">
<stop stop-color="#BED2E3"/>
<stop offset="1" stop-color="#EFF8FF"/>
</linearGradient>
<linearGradient id="paint12_linear_213_80" x1="45.8048" y1="294.362" x2="134.889" y2="318.222" gradientUnits="userSpaceOnUse">
<stop stop-color="#EFF8FF"/>
<stop offset="1" stop-color="#C6D9E7"/>
</linearGradient>
<linearGradient id="paint13_linear_213_80" x1="68.3815" y1="345.88" x2="37.2164" y2="348.032" gradientUnits="userSpaceOnUse">
<stop stop-color="#D9E9F6"/>
<stop offset="0.471154" stop-color="#93BFE3"/>
<stop offset="0.823877" stop-color="#1B5381"/>
</linearGradient>
<linearGradient id="paint14_linear_213_80" x1="93.4116" y1="339.199" x2="62.2464" y2="341.352" gradientUnits="userSpaceOnUse">
<stop stop-color="#D9E9F6"/>
<stop offset="0.471154" stop-color="#93BFE3"/>
<stop offset="0.823877" stop-color="#1B5381"/>
</linearGradient>
<linearGradient id="paint15_linear_213_80" x1="79.2665" y1="342.168" x2="48.0325" y2="342.749" gradientUnits="userSpaceOnUse">
<stop stop-color="#D9E9F6"/>
<stop offset="0.471154" stop-color="#93BFE3"/>
<stop offset="0.823877" stop-color="#1B5381"/>
</linearGradient>
<linearGradient id="paint16_linear_213_80" x1="100.793" y1="297.528" x2="141.354" y2="301.843" gradientUnits="userSpaceOnUse">
<stop stop-color="#EFF8FF"/>
<stop offset="1" stop-color="#C6D9E7"/>
</linearGradient>
<linearGradient id="paint17_linear_213_80" x1="116.52" y1="343.679" x2="91.5982" y2="338.671" gradientUnits="userSpaceOnUse">
<stop stop-color="#D9E9F6"/>
<stop offset="0.471154" stop-color="#93BFE3"/>
<stop offset="0.823877" stop-color="#1B5381"/>
</linearGradient>
<linearGradient id="paint18_linear_213_80" x1="126.955" y1="339.879" x2="102.034" y2="334.871" gradientUnits="userSpaceOnUse">
<stop stop-color="#D9E9F6"/>
<stop offset="0.471154" stop-color="#93BFE3"/>
<stop offset="0.823877" stop-color="#1B5381"/>
</linearGradient>
<linearGradient id="paint19_linear_213_80" x1="381.624" y1="4.26162e-05" x2="407.014" y2="18.5146" gradientUnits="userSpaceOnUse">
<stop stop-color="#62A7DE"/>
<stop offset="1" stop-color="#3476AD"/>
</linearGradient>
</defs>
</svg>
