<svg width="1201" height="605" viewBox="0 0 1201 605" fill="none" xmlns="http://www.w3.org/2000/svg">
<path d="M0 398.614V571.114L25 604.614H1201V152.614C1168 124.447 1091 69.3415 989 100.541C861.5 139.541 881.26 207.227 962.5 174.541C1017 152.614 1132 195.021 1017 308.021C902 421.021 1011.5 398.614 962.5 479.614C913.5 560.614 759 498.114 569.5 467.114C380 436.114 362 508.114 201.5 516.614C73.1 523.414 13.6667 440.781 0 398.614Z" fill="#D9D9D9"/>
<path d="M0 398.614V571.114L25 604.614H1201V152.614C1168 124.447 1091 69.3415 989 100.541C861.5 139.541 881.26 207.227 962.5 174.541C1017 152.614 1132 195.021 1017 308.021C902 421.021 1011.5 398.614 962.5 479.614C913.5 560.614 759 498.114 569.5 467.114C380 436.114 362 508.114 201.5 516.614C73.1 523.414 13.6667 440.781 0 398.614Z" fill="url(#paint0_linear_231_128)"/>
<g filter="url(#filter0_d_231_128)">
<path d="M1046.81 482.125C1035.75 478.03 1015.29 464.207 1006.44 457.808L1027.37 428.498C1031.55 433.026 1043.67 443.895 1058.67 451.155C1077.42 460.229 1081.72 504.267 1074.51 505.297C1067.31 506.327 1060.65 487.245 1046.81 482.125Z" fill="#D9D9D9"/>
<path d="M1046.81 482.125C1035.75 478.03 1015.29 464.207 1006.44 457.808L1027.37 428.498C1031.55 433.026 1043.67 443.895 1058.67 451.155C1077.42 460.229 1081.72 504.267 1074.51 505.297C1067.31 506.327 1060.65 487.245 1046.81 482.125Z" fill="url(#paint1_linear_231_128)"/>
<path d="M948.101 300.649C953.384 310.425 1007.54 316.143 1008.95 316.81C1013.48 317.103 1016.79 321.525 1015.23 298.259C1013.67 274.993 947.621 262.333 949.343 269.015C952.313 280.546 951.531 275.114 947.641 279.757C943.451 284.757 950.808 283.683 951.354 291.071C951.901 298.458 942.818 290.873 948.101 300.649Z" fill="#D9D9D9"/>
<path d="M948.101 300.649C953.384 310.425 1007.54 316.143 1008.95 316.81C1013.48 317.103 1016.79 321.525 1015.23 298.259C1013.67 274.993 947.621 262.333 949.343 269.015C952.313 280.546 951.531 275.114 947.641 279.757C943.451 284.757 950.808 283.683 951.354 291.071C951.901 298.458 942.818 290.873 948.101 300.649Z" fill="url(#paint2_linear_231_128)"/>
<path d="M967.463 252.196C967.256 263.304 1011.61 295.142 1012.51 296.419C1016.31 298.92 1017.02 304.402 1027.1 283.432C1037.18 262.463 985.887 218.698 984.1 225.353C981.016 236.837 983.007 231.733 977.335 233.833C971.228 236.094 978.163 238.812 975.006 245.497C971.849 252.181 967.669 241.089 967.463 252.196Z" fill="#D9D9D9"/>
<path d="M967.463 252.196C967.256 263.304 1011.61 295.142 1012.51 296.419C1016.31 298.92 1017.02 304.402 1027.1 283.432C1037.18 262.463 985.887 218.698 984.1 225.353C981.016 236.837 983.007 231.733 977.335 233.833C971.228 236.094 978.163 238.812 975.006 245.497C971.849 252.181 967.669 241.089 967.463 252.196Z" fill="url(#paint3_linear_231_128)"/>
<path d="M983.064 233.315C991.872 245.597 997.122 254.851 1014.01 263.305C1007.95 264.623 991.194 254.654 983.064 233.315Z" fill="url(#paint4_linear_231_128)"/>
<path d="M975.101 246.429C983.909 258.712 989.159 267.966 1006.05 276.42C999.984 277.738 983.232 267.769 975.101 246.429Z" fill="url(#paint5_linear_231_128)"/>
<path d="M951.002 275.653C964.853 281.606 974.104 286.811 992.887 285.283C988.384 289.564 968.938 289.723 951.002 275.653Z" fill="url(#paint6_linear_231_128)"/>
<path d="M951.701 292.705C965.551 298.658 974.802 303.863 993.585 302.334C989.082 306.616 969.636 306.775 951.701 292.705Z" fill="url(#paint7_linear_231_128)"/>
<path d="M988.8 381.006C978.291 390.552 961.481 397.628 954.739 403.914C953.741 402.948 942.543 400.583 911.725 403.558C881.47 406.479 887.021 410.786 859.063 436.222C836.697 456.571 872.588 465.338 893.33 467.178C972.936 488.104 987.729 480.001 1053.47 437.04C1119.21 394.078 1054.36 287.947 1028.96 278.124C1003.56 268.3 1001.38 306.685 1005.1 321.234C1008.82 335.783 1001.94 369.074 988.8 381.006Z" fill="#D9D9D9"/>
<path d="M988.8 381.006C978.291 390.552 961.481 397.628 954.739 403.914C953.741 402.948 942.543 400.583 911.725 403.558C881.47 406.479 887.021 410.786 859.063 436.222C836.697 456.571 872.588 465.338 893.33 467.178C972.936 488.104 987.729 480.001 1053.47 437.04C1119.21 394.078 1054.36 287.947 1028.96 278.124C1003.56 268.3 1001.38 306.685 1005.1 321.234C1008.82 335.783 1001.94 369.074 988.8 381.006Z" fill="url(#paint8_linear_231_128)"/>
<ellipse cx="894.521" cy="447.417" rx="18.0176" ry="18.114" transform="rotate(-16.309 894.521 447.417)" fill="url(#paint9_radial_231_128)" fill-opacity="0.43"/>
<mask id="mask0_231_128" style="mask-type:alpha" maskUnits="userSpaceOnUse" x="851" y="276" width="232" height="203">
<path d="M988.8 381.006C978.291 390.552 961.481 397.628 954.739 403.914C953.741 402.948 942.543 400.583 911.725 403.558C881.47 406.479 887.021 410.786 859.063 436.222C836.697 456.571 872.588 465.338 893.33 467.178C972.936 488.104 987.729 480.001 1053.47 437.04C1119.21 394.078 1054.36 287.947 1028.96 278.124C1003.56 268.3 1001.38 306.685 1005.1 321.234C1008.82 335.783 1001.94 369.074 988.8 381.006Z" fill="#D9D9D9"/>
<path d="M988.8 381.006C978.291 390.552 961.481 397.628 954.739 403.914C953.741 402.948 942.543 400.583 911.725 403.558C881.47 406.479 887.021 410.786 859.063 436.222C836.697 456.571 872.588 465.338 893.33 467.178C972.936 488.104 987.729 480.001 1053.47 437.04C1119.21 394.078 1054.36 287.947 1028.96 278.124C1003.56 268.3 1001.38 306.685 1005.1 321.234C1008.82 335.783 1001.94 369.074 988.8 381.006Z" fill="url(#paint10_linear_231_128)"/>
</mask>
<g mask="url(#mask0_231_128)">
<path d="M875.896 466.256C896.473 465.089 941.516 460.646 957.07 452.212C970.936 444.694 1057.72 433.714 1109.48 415.387C1126.72 387.986 1152.51 370.67 1147.89 389.459C1145.44 399.459 1130.29 408.017 1109.48 415.387C1101.12 428.66 1094.77 444.3 1094.86 459.349L952.073 501.127L875.896 466.256Z" fill="url(#paint11_linear_231_128)"/>
<g opacity="0.49">
<path d="M972.07 417.133C966.782 416.15 975.503 406.711 980.524 402.115C990.035 394.068 988.585 398.706 998.008 398.176C1007.43 397.645 1001.49 408.505 998.884 408.618C996.274 408.731 991.455 420.47 987.712 414.634C983.968 408.798 978.681 418.363 972.07 417.133Z" fill="#3476AD" fill-opacity="0.25"/>
<path d="M999.5 393.909C998.69 391.249 1002.23 390.401 1004.11 390.31C1007.16 390.549 1007.46 392.948 1004.52 395.331C1001.58 397.715 1000.51 397.235 999.5 393.909Z" fill="#7BB2DF" fill-opacity="0.33"/>
<path d="M1046.21 366.518C1045.4 363.857 1048.95 363.009 1050.82 362.918C1053.88 363.157 1054.17 365.556 1051.23 367.94C1048.29 370.323 1047.23 369.844 1046.21 366.518Z" fill="#3476AD" fill-opacity="0.22"/>
<path d="M1008.75 408.411C1004.13 410.267 1009.16 399.706 1012.25 394.193C1017.61 381.431 1021.5 397.133 1016.42 398.558C1011.35 399.982 1023.5 405.208 1017.2 408.2C1010.91 411.193 1014.52 406.09 1008.75 408.411Z" fill="#7BB2DF" fill-opacity="0.34"/>
<path d="M1014.68 385.988C1012.56 383.162 1018.21 379.138 1021.31 377.479C1027.33 373.911 1029.75 380.515 1028.46 383.106C1027.16 385.697 1023.11 383.955 1020.8 383.22C1018.49 382.485 1017.33 389.522 1014.68 385.988Z" fill="#7BB2DF" fill-opacity="0.21"/>
<path d="M1030.24 375.261C1027.34 375.288 1028.74 370.71 1029.81 368.417C1031.72 365.954 1033.04 368.432 1039.38 365.84C1045.73 363.247 1037.36 392.96 1032.92 388.02C1028.48 383.08 1033.87 375.228 1030.24 375.261Z" fill="#89B1D1" fill-opacity="0.7"/>
<path d="M1022.56 394.674C1021.13 394.564 1021.63 392.464 1022.06 391.428C1022.9 390.347 1023.65 391.572 1026.67 390.617C1029.69 389.662 1026.81 403.323 1024.41 400.805C1022.02 398.287 1024.35 394.812 1022.56 394.674Z" fill="#89B1D1" fill-opacity="0.7"/>
<path d="M968.035 413.743C968.959 414.845 967.115 415.951 966.077 416.367C964.718 416.517 965.062 415.124 962.267 413.626C959.472 412.129 971.207 404.663 971.096 408.137C970.985 411.611 966.88 412.365 968.035 413.743Z" fill="#89B1D1" fill-opacity="0.7"/>
<path d="M1009.4 384.888C1010.33 385.99 1008.48 387.097 1007.45 387.512C1006.09 387.662 1006.43 386.27 1003.64 384.772C1000.84 383.274 1012.58 375.808 1012.47 379.282C1012.35 382.757 1008.25 383.51 1009.4 384.888Z" fill="#3476AD" fill-opacity="0.55"/>
</g>
</g>
<path d="M1165.28 433.59C1119.37 466.47 1064.57 436.226 1042.92 416.995C1022.32 402.354 1040.9 374.371 1050.81 388.218C1060.71 402.065 1172.94 409.742 1172.48 419.6C1172.11 427.486 1167.52 432.212 1165.28 433.59Z" fill="#D9D9D9"/>
<path d="M1165.28 433.59C1119.37 466.47 1064.57 436.226 1042.92 416.995C1022.32 402.354 1040.9 374.371 1050.81 388.218C1060.71 402.065 1172.94 409.742 1172.48 419.6C1172.11 427.486 1167.52 432.212 1165.28 433.59Z" fill="url(#paint12_linear_231_128)"/>
<path d="M872.08 429.087C874.265 425.956 880.781 421.391 889.366 428.176C900.096 436.658 870.759 444.107 872.08 429.087Z" fill="#093D68"/>
<g filter="url(#filter1_f_231_128)">
<path d="M884.703 436.077C877.778 436.725 875.764 431.972 875.623 429.514C880.696 434.879 886.428 433.392 888.661 431.978C888.338 434.423 885.888 435.729 884.703 436.077Z" fill="url(#paint13_linear_231_128)" fill-opacity="0.31"/>
</g>
<g filter="url(#filter2_f_231_128)">
<ellipse cx="1.42959" cy="1.43683" rx="1.42959" ry="1.43683" transform="matrix(0.900609 -0.434631 0.433081 0.901355 874.704 430.538)" fill="white"/>
</g>
<g filter="url(#filter3_f_231_128)">
<ellipse cx="0.519852" cy="0.522484" rx="0.519852" ry="0.522484" transform="matrix(0.900609 -0.434631 0.433081 0.901355 878.542 431.924)" fill="white"/>
</g>
<ellipse cx="6.26434" cy="3.0209" rx="6.26434" ry="3.0209" transform="matrix(0.752486 0.657662 -0.654822 0.756612 892.615 417.065)" fill="#93BFE3"/>
<path d="M862.974 439.929C863.469 438.32 859.058 437.118 856.791 436.717C852.729 437.406 847.895 446.773 854.589 445.835C857.094 445.484 862.355 441.94 862.974 439.929Z" fill="#093D68"/>
<path d="M866.038 440.364C875.403 441.446 885.056 446.357 888.53 450.492C888.752 450.756 888.517 451.034 888.254 450.833C883.03 446.839 872.572 442.981 865.997 440.928C865.671 440.826 865.706 440.325 866.038 440.364Z" fill="white"/>
<path d="M864.57 444.565C871.113 447.332 876.13 453.268 878.723 457.324C878.915 457.624 878.632 457.944 878.402 457.692C872.498 451.23 868.23 447.698 864.396 445.095C864.123 444.91 864.276 444.441 864.57 444.565Z" fill="white"/>
<path d="M862.844 447.629C867.184 450.947 869.263 456.103 870.024 459.523C870.098 459.858 869.733 460.048 869.593 459.751C867.188 454.665 864.78 450.871 862.507 448.097C862.3 447.844 862.591 447.435 862.844 447.629Z" fill="white"/>
<g opacity="0.9">
<circle cx="1052.5" cy="183.52" r="38.5" fill="url(#paint14_linear_231_128)"/>
<g filter="url(#filter4_f_231_128)">
<path d="M1078.51 200.462C1077.93 162.582 1069.43 152.472 1042.74 155.726C1056.95 162.438 1074.56 159.634 1078.51 200.462Z" fill="white"/>
</g>
<g filter="url(#filter5_f_231_128)">
<path d="M1032.46 160.503C1024.98 197.643 1031.14 209.327 1057.91 211.819C1045.45 202.24 1027.64 201.237 1032.46 160.503Z" fill="white"/>
</g>
<g filter="url(#filter6_f_231_128)">
<path d="M1032.56 160.288C1025.08 197.427 1031.23 209.111 1058 211.603C1045.54 202.024 1027.74 201.021 1032.56 160.288Z" fill="url(#paint15_linear_231_128)"/>
</g>
<g filter="url(#filter7_f_231_128)">
<circle cx="1066.73" cy="194.4" r="10.8804" fill="white"/>
</g>
</g>
<g opacity="0.9">
<circle cx="932.5" cy="59.5205" r="19.5" fill="url(#paint16_linear_231_128)"/>
<g filter="url(#filter8_f_231_128)">
<path d="M945.675 68.1014C945.378 48.9155 941.077 43.7947 927.558 45.443C934.756 48.8426 943.676 47.4227 945.675 68.1014Z" fill="white"/>
</g>
<g filter="url(#filter9_f_231_128)">
<path d="M922.351 47.8627C918.564 66.6734 921.679 72.5913 935.239 73.8536C928.928 69.0021 919.911 68.494 922.351 47.8627Z" fill="white"/>
</g>
<g filter="url(#filter10_f_231_128)">
<path d="M922.399 47.7533C918.612 66.564 921.727 72.4819 935.287 73.7443C928.976 68.8927 919.958 68.3846 922.399 47.7533Z" fill="url(#paint17_linear_231_128)"/>
</g>
<g filter="url(#filter11_f_231_128)">
<circle cx="939.707" cy="65.0314" r="5.51087" fill="white"/>
</g>
</g>
<path d="M983.878 45.9347C975.569 74.611 1028.8 81.9985 1035.45 79.9494C1044.77 77.0807 1040.16 75.5865 1031.84 58.784C1023.52 41.9816 993.339 13.2841 983.878 45.9347Z" fill="#62A7DE"/>
<path d="M983.878 45.9347C975.569 74.611 1028.8 81.9985 1035.45 79.9494C1044.77 77.0807 1040.16 75.5865 1031.84 58.784C1023.52 41.9816 993.339 13.2841 983.878 45.9347Z" fill="url(#paint18_linear_231_128)"/>
<g filter="url(#filter12_f_231_128)">
<path d="M998.339 44.7842C999.339 49.6175 1003.24 59.8842 1010.84 62.2842" stroke="white" stroke-width="4"/>
</g>
<path d="M864.262 255.377C850.317 216.944 956.103 192.877 977.762 211.377C984.237 218.322 939.262 225.377 933.978 249.138C929.004 271.501 881.693 303.418 864.262 255.377Z" fill="#62A7DE"/>
<path d="M864.262 255.377C850.317 216.944 956.103 192.877 977.762 211.377C984.237 218.322 939.262 225.377 933.978 249.138C929.004 271.501 881.693 303.418 864.262 255.377Z" fill="url(#paint19_linear_231_128)"/>
<g filter="url(#filter13_f_231_128)">
<path d="M891.762 259.434C897.262 261.005 911.162 259.263 922.762 239.725C934.362 220.188 939.595 221.587 940.762 224.729" stroke="white" stroke-width="4"/>
</g>
</g>
<defs>
<filter id="filter0_d_231_128" x="832.667" y="16.4205" width="358.41" height="511.516" filterUnits="userSpaceOnUse" color-interpolation-filters="sRGB">
<feFlood flood-opacity="0" result="BackgroundImageFix"/>
<feColorMatrix in="SourceAlpha" type="matrix" values="0 0 0 0 0 0 0 0 0 0 0 0 0 0 0 0 0 0 127 0" result="hardAlpha"/>
<feOffset dy="4"/>
<feGaussianBlur stdDeviation="9.3"/>
<feComposite in2="hardAlpha" operator="out"/>
<feColorMatrix type="matrix" values="0 0 0 0 0 0 0 0 0 0 0 0 0 0 0 0 0 0 0.22 0"/>
<feBlend mode="normal" in2="BackgroundImageFix" result="effect1_dropShadow_231_128"/>
<feBlend mode="normal" in="SourceGraphic" in2="effect1_dropShadow_231_128" result="shape"/>
</filter>
<filter id="filter1_f_231_128" x="874.823" y="428.715" width="14.6374" height="8.22207" filterUnits="userSpaceOnUse" color-interpolation-filters="sRGB">
<feFlood flood-opacity="0" result="BackgroundImageFix"/>
<feBlend mode="normal" in="SourceGraphic" in2="BackgroundImageFix" result="shape"/>
<feGaussianBlur stdDeviation="0.4" result="effect1_foregroundBlur_231_128"/>
</filter>
<filter id="filter2_f_231_128" x="872.983" y="427.575" width="7.2606" height="7.27305" filterUnits="userSpaceOnUse" color-interpolation-filters="sRGB">
<feFlood flood-opacity="0" result="BackgroundImageFix"/>
<feBlend mode="normal" in="SourceGraphic" in2="BackgroundImageFix" result="shape"/>
<feGaussianBlur stdDeviation="1.1" result="effect1_foregroundBlur_231_128"/>
</filter>
<filter id="filter3_f_231_128" x="877.716" y="430.646" width="3.04028" height="3.04492" filterUnits="userSpaceOnUse" color-interpolation-filters="sRGB">
<feFlood flood-opacity="0" result="BackgroundImageFix"/>
<feBlend mode="normal" in="SourceGraphic" in2="BackgroundImageFix" result="shape"/>
<feGaussianBlur stdDeviation="0.5" result="effect1_foregroundBlur_231_128"/>
</filter>
<filter id="filter4_f_231_128" x="1033.54" y="145.955" width="54.1698" height="63.7066" filterUnits="userSpaceOnUse" color-interpolation-filters="sRGB">
<feFlood flood-opacity="0" result="BackgroundImageFix"/>
<feBlend mode="normal" in="SourceGraphic" in2="BackgroundImageFix" result="shape"/>
<feGaussianBlur stdDeviation="4.6" result="effect1_foregroundBlur_231_128"/>
</filter>
<filter id="filter5_f_231_128" x="1003.32" y="134.304" width="80.7923" height="103.715" filterUnits="userSpaceOnUse" color-interpolation-filters="sRGB">
<feFlood flood-opacity="0" result="BackgroundImageFix"/>
<feBlend mode="normal" in="SourceGraphic" in2="BackgroundImageFix" result="shape"/>
<feGaussianBlur stdDeviation="13.1" result="effect1_foregroundBlur_231_128"/>
</filter>
<filter id="filter6_f_231_128" x="1020.51" y="151.188" width="46.5923" height="69.5154" filterUnits="userSpaceOnUse" color-interpolation-filters="sRGB">
<feFlood flood-opacity="0" result="BackgroundImageFix"/>
<feBlend mode="normal" in="SourceGraphic" in2="BackgroundImageFix" result="shape"/>
<feGaussianBlur stdDeviation="4.55" result="effect1_foregroundBlur_231_128"/>
</filter>
<filter id="filter7_f_231_128" x="1041.05" y="168.72" width="51.361" height="51.3607" filterUnits="userSpaceOnUse" color-interpolation-filters="sRGB">
<feFlood flood-opacity="0" result="BackgroundImageFix"/>
<feBlend mode="normal" in="SourceGraphic" in2="BackgroundImageFix" result="shape"/>
<feGaussianBlur stdDeviation="7.4" result="effect1_foregroundBlur_231_128"/>
</filter>
<filter id="filter8_f_231_128" x="918.358" y="35.9543" width="36.5172" height="41.3473" filterUnits="userSpaceOnUse" color-interpolation-filters="sRGB">
<feFlood flood-opacity="0" result="BackgroundImageFix"/>
<feBlend mode="normal" in="SourceGraphic" in2="BackgroundImageFix" result="shape"/>
<feGaussianBlur stdDeviation="4.6" result="effect1_foregroundBlur_231_128"/>
</filter>
<filter id="filter9_f_231_128" x="894.659" y="21.6623" width="66.7806" height="78.3912" filterUnits="userSpaceOnUse" color-interpolation-filters="sRGB">
<feFlood flood-opacity="0" result="BackgroundImageFix"/>
<feBlend mode="normal" in="SourceGraphic" in2="BackgroundImageFix" result="shape"/>
<feGaussianBlur stdDeviation="13.1" result="effect1_foregroundBlur_231_128"/>
</filter>
<filter id="filter10_f_231_128" x="911.807" y="38.6529" width="32.5806" height="44.1912" filterUnits="userSpaceOnUse" color-interpolation-filters="sRGB">
<feFlood flood-opacity="0" result="BackgroundImageFix"/>
<feBlend mode="normal" in="SourceGraphic" in2="BackgroundImageFix" result="shape"/>
<feGaussianBlur stdDeviation="4.55" result="effect1_foregroundBlur_231_128"/>
</filter>
<filter id="filter11_f_231_128" x="919.396" y="44.7205" width="40.6217" height="40.6215" filterUnits="userSpaceOnUse" color-interpolation-filters="sRGB">
<feFlood flood-opacity="0" result="BackgroundImageFix"/>
<feBlend mode="normal" in="SourceGraphic" in2="BackgroundImageFix" result="shape"/>
<feGaussianBlur stdDeviation="7.4" result="effect1_foregroundBlur_231_128"/>
</filter>
<filter id="filter12_f_231_128" x="987.081" y="35.0789" width="33.6608" height="38.4125" filterUnits="userSpaceOnUse" color-interpolation-filters="sRGB">
<feFlood flood-opacity="0" result="BackgroundImageFix"/>
<feBlend mode="normal" in="SourceGraphic" in2="BackgroundImageFix" result="shape"/>
<feGaussianBlur stdDeviation="4.65" result="effect1_foregroundBlur_231_128"/>
</filter>
<filter id="filter13_f_231_128" x="877.813" y="207.476" width="78.2243" height="67.8049" filterUnits="userSpaceOnUse" color-interpolation-filters="sRGB">
<feFlood flood-opacity="0" result="BackgroundImageFix"/>
<feBlend mode="normal" in="SourceGraphic" in2="BackgroundImageFix" result="shape"/>
<feGaussianBlur stdDeviation="6.7" result="effect1_foregroundBlur_231_128"/>
</filter>
<linearGradient id="paint0_linear_231_128" x1="588.503" y1="97.0218" x2="974.101" y2="470.964" gradientUnits="userSpaceOnUse">
<stop stop-color="#62A7DE"/>
<stop offset="1" stop-color="#3476AD"/>
</linearGradient>
<linearGradient id="paint1_linear_231_128" x1="1012.04" y1="409.761" x2="1079.31" y2="492.283" gradientUnits="userSpaceOnUse">
<stop offset="0.488991" stop-color="#CADBE9"/>
<stop offset="1" stop-color="#EFF8FF"/>
</linearGradient>
<linearGradient id="paint2_linear_231_128" x1="955.154" y1="256.393" x2="995.017" y2="321.39" gradientUnits="userSpaceOnUse">
<stop stop-color="#BAE0FF"/>
<stop offset="1" stop-color="#1B5381" stop-opacity="0.780392"/>
</linearGradient>
<linearGradient id="paint3_linear_231_128" x1="995.368" y1="217.28" x2="997.72" y2="293.493" gradientUnits="userSpaceOnUse">
<stop stop-color="#BAE0FF"/>
<stop offset="1" stop-color="#1B5381" stop-opacity="0.780392"/>
</linearGradient>
<linearGradient id="paint4_linear_231_128" x1="987.847" y1="231.238" x2="992.178" y2="269.22" gradientUnits="userSpaceOnUse">
<stop stop-color="#D9E9F6"/>
<stop offset="0.471154" stop-color="#93BFE3"/>
<stop offset="0.823877" stop-color="#1B5381"/>
</linearGradient>
<linearGradient id="paint5_linear_231_128" x1="979.884" y1="244.353" x2="984.215" y2="282.334" gradientUnits="userSpaceOnUse">
<stop stop-color="#D9E9F6"/>
<stop offset="0.471154" stop-color="#93BFE3"/>
<stop offset="0.823877" stop-color="#1B5381"/>
</linearGradient>
<linearGradient id="paint6_linear_231_128" x1="954.019" y1="271.388" x2="977.442" y2="301.572" gradientUnits="userSpaceOnUse">
<stop stop-color="#D9E9F6"/>
<stop offset="0.471154" stop-color="#93BFE3"/>
<stop offset="0.823877" stop-color="#1B5381"/>
</linearGradient>
<linearGradient id="paint7_linear_231_128" x1="954.718" y1="288.44" x2="978.14" y2="318.624" gradientUnits="userSpaceOnUse">
<stop stop-color="#D9E9F6"/>
<stop offset="0.471154" stop-color="#93BFE3"/>
<stop offset="0.823877" stop-color="#1B5381"/>
</linearGradient>
<linearGradient id="paint8_linear_231_128" x1="920.884" y1="308.867" x2="1005.05" y2="466.775" gradientUnits="userSpaceOnUse">
<stop stop-color="#EFF8FF"/>
<stop offset="1" stop-color="#ABC3D7"/>
</linearGradient>
<radialGradient id="paint9_radial_231_128" cx="0" cy="0" r="1" gradientUnits="userSpaceOnUse" gradientTransform="translate(894.521 447.417) rotate(90) scale(18.114 18.0176)">
<stop stop-color="#FFAFAF"/>
<stop offset="1" stop-color="#FFAFAF" stop-opacity="0"/>
</radialGradient>
<linearGradient id="paint10_linear_231_128" x1="920.884" y1="308.867" x2="1005.05" y2="466.775" gradientUnits="userSpaceOnUse">
<stop stop-color="#EFF8FF"/>
<stop offset="1" stop-color="#ABC3D7"/>
</linearGradient>
<linearGradient id="paint11_linear_231_128" x1="924.976" y1="381.902" x2="975.753" y2="499.514" gradientUnits="userSpaceOnUse">
<stop stop-color="#BAE0FF"/>
<stop offset="1" stop-color="#1B5381" stop-opacity="0.780392"/>
</linearGradient>
<linearGradient id="paint12_linear_231_128" x1="1061.59" y1="356.325" x2="1113.09" y2="455.573" gradientUnits="userSpaceOnUse">
<stop offset="0.427861" stop-color="#BDD2E2"/>
<stop offset="1" stop-color="#EFF8FF"/>
</linearGradient>
<linearGradient id="paint13_linear_231_128" x1="880.213" y1="427.3" x2="884.527" y2="436.24" gradientUnits="userSpaceOnUse">
<stop stop-color="#93BFE3"/>
<stop offset="1" stop-color="#1279CE"/>
</linearGradient>
<linearGradient id="paint14_linear_231_128" x1="1052.5" y1="145.02" x2="1052.5" y2="222.02" gradientUnits="userSpaceOnUse">
<stop stop-color="#99D5FF"/>
<stop offset="1" stop-color="#D1ECFF"/>
</linearGradient>
<linearGradient id="paint15_linear_231_128" x1="1026.92" y1="191.411" x2="1038.03" y2="206.664" gradientUnits="userSpaceOnUse">
<stop stop-color="#FFFFAD"/>
<stop offset="1" stop-color="#FF8AB4"/>
</linearGradient>
<linearGradient id="paint16_linear_231_128" x1="932.5" y1="40.0205" x2="932.5" y2="79.0205" gradientUnits="userSpaceOnUse">
<stop stop-color="#99D5FF"/>
<stop offset="1" stop-color="#D1ECFF"/>
</linearGradient>
<linearGradient id="paint17_linear_231_128" x1="919.544" y1="63.517" x2="925.172" y2="71.2424" gradientUnits="userSpaceOnUse">
<stop stop-color="#FFFFAD"/>
<stop offset="1" stop-color="#FF8AB4"/>
</linearGradient>
<linearGradient id="paint18_linear_231_128" x1="1011.34" y1="29.2842" x2="1054.67" y2="40.8889" gradientUnits="userSpaceOnUse">
<stop stop-color="#62A7DE"/>
<stop offset="1" stop-color="#3476AD"/>
</linearGradient>
<linearGradient id="paint19_linear_231_128" x1="922.67" y1="205.872" x2="1005.5" y2="234.481" gradientUnits="userSpaceOnUse">
<stop stop-color="#62A7DE"/>
<stop offset="1" stop-color="#3476AD"/>
</linearGradient>
</defs>
</svg>
