<svg width="340" height="340" viewBox="0 0 340 340" fill="none" xmlns="http://www.w3.org/2000/svg">
<path d="M98.6 0H241.4C295.8 0 340 44.0917 340 98.3583V240.808C340 266.895 329.612 291.912 311.121 310.358C292.63 328.804 267.55 339.167 241.4 339.167H98.6C44.2 339.167 0 295.075 0 240.808V98.3583C0 72.2721 10.3882 47.2543 28.8793 28.8085C47.3704 10.3627 72.4497 0 98.6 0V0ZM95.2 33.9167C78.9687 33.9167 63.4023 40.3487 51.9251 51.7978C40.4478 63.2469 34 78.7752 34 94.9667V244.2C34 277.947 61.37 305.25 95.2 305.25H244.8C261.031 305.25 276.598 298.818 288.075 287.369C299.552 275.92 306 260.391 306 244.2V94.9667C306 61.2196 278.63 33.9167 244.8 33.9167H95.2ZM259.25 59.3542C264.886 59.3542 270.291 61.5875 274.276 65.5629C278.261 69.5383 280.5 74.93 280.5 80.5521C280.5 86.1741 278.261 91.5659 274.276 95.5413C270.291 99.5167 264.886 101.75 259.25 101.75C253.614 101.75 248.209 99.5167 244.224 95.5413C240.239 91.5659 238 86.1741 238 80.5521C238 74.93 240.239 69.5383 244.224 65.5629C248.209 61.5875 253.614 59.3542 259.25 59.3542ZM170 84.7917C192.543 84.7917 214.163 93.7251 230.104 109.627C246.045 125.528 255 147.095 255 169.583C255 192.071 246.045 213.639 230.104 229.54C214.163 245.442 192.543 254.375 170 254.375C147.457 254.375 125.837 245.442 109.896 229.54C93.9553 213.639 85 192.071 85 169.583C85 147.095 93.9553 125.528 109.896 109.627C125.837 93.7251 147.457 84.7917 170 84.7917V84.7917ZM170 118.708C156.474 118.708 143.502 124.068 133.938 133.609C124.373 143.15 119 156.09 119 169.583C119 183.076 124.373 196.016 133.938 205.557C143.502 215.098 156.474 220.458 170 220.458C183.526 220.458 196.498 215.098 206.062 205.557C215.627 196.016 221 183.076 221 169.583C221 156.09 215.627 143.15 206.062 133.609C196.498 124.068 183.526 118.708 170 118.708Z" fill="white"/>
</svg>
