<svg width="276" height="289" viewBox="0 0 276 289" fill="none" xmlns="http://www.w3.org/2000/svg">
<path d="M34.6838 0C15.5345 0 0 15.4719 0 34.5757C0 53.6795 15.522 69.5094 34.6582 69.5094C53.7945 69.5094 69.342 53.6795 69.342 34.5757C69.342 15.485 53.8332 0 34.6838 0ZM203.899 91.6562C174.775 91.6562 158.11 106.851 150.117 121.961H149.271V95.7225H91.875V288.062H151.681V192.852C151.681 167.764 153.579 143.52 184.698 143.52C215.372 143.52 215.819 172.125 215.819 194.437V288.062H275.548H275.625V182.417C275.625 130.723 264.484 91.6562 203.899 91.6562ZM4.76807 95.7225V288.062H64.6252V95.7225H4.76807Z" fill="white"/>
</svg>
