<svg width="534" height="493" viewBox="0 0 534 493" fill="none" xmlns="http://www.w3.org/2000/svg">
<path d="M57.7297 285.773L262.888 35.611L481.081 285.773" stroke="#3476AD" stroke-width="46" stroke-linecap="round"/>
<path d="M197.243 40.4218C116.075 69.2989 116.939 165.606 127.487 208.8C127.487 280.372 144.461 299.979 149.135 306.211C158.176 318.265 172.844 324.26 192.432 324.26C233.978 324.26 230.523 311.736 228.514 306.211C237.554 306.964 268.77 308.019 283.838 306.211C302.673 303.951 326.045 300.551 356.181 280.962C380.29 265.292 393.348 241.921 394.604 233.885C406.156 224.342 430.616 200.887 436.04 183.408C442.821 161.56 433.78 119.37 429.26 115.603C425.644 112.589 396.613 140.465 382.55 154.779C382.299 158.546 381.495 163.82 380.29 154.779C379.084 145.738 353.67 113.845 341.113 99.0281C337.597 103.297 328.456 120.424 320.018 154.779C309.471 197.722 360.223 222.571 356.181 227.105C341.113 244.005 317.513 242.476 312.703 242.476C321.307 232.854 336.757 213.611 329.541 211.206C315.531 206.536 293.883 159.279 283.838 141.449L288.649 107.773C295.865 76.5028 275.596 12.5463 197.243 40.4218Z" fill="white"/>
<ellipse cx="255.227" cy="85.4664" rx="1.50678" ry="1.50678" fill="#0A3E69" fill-opacity="0.51"/>
<ellipse cx="252.967" cy="90.7402" rx="2.26017" ry="2.26017" fill="#0A3E69" fill-opacity="0.51"/>
<ellipse cx="258.241" cy="88.4799" rx="1.50678" ry="1.50678" fill="#0A3E69" fill-opacity="0.51"/>
<path d="M316.69 212.462C306.812 209.293 281.951 160.632 270.755 136.697C258.407 188.693 282.115 234.251 292.982 241.184C303.848 248.117 329.038 216.424 316.69 212.462Z" fill="#D9D9D9"/>
<path d="M316.69 212.462C306.812 209.293 281.951 160.632 270.755 136.697C258.407 188.693 282.115 234.251 292.982 241.184C303.848 248.117 329.038 216.424 316.69 212.462Z" fill="url(#paint0_linear_170_70)"/>
<path d="M384.72 218.571C408.397 290.548 161.409 366.303 134.206 197.376C107.572 31.9797 300.089 -4.70551 278.428 108.891C264.486 182.001 271.879 306.217 384.72 218.571Z" fill="#D9D9D9"/>
<path d="M384.72 218.571C408.397 290.548 161.409 366.303 134.206 197.376C107.572 31.9797 300.089 -4.70551 278.428 108.891C264.486 182.001 271.879 306.217 384.72 218.571Z" fill="url(#paint1_linear_170_70)"/>
<path d="M278.865 79.566C276.73 66.7575 273.392 68.1259 265.312 72.3547C235.904 87.7461 243.276 103.769 251.908 106.523C256.939 108.129 268.441 99.6318 275.115 96.8613C279.889 94.8794 281.487 98.8567 281.487 95.3909C281.487 92.4501 281.316 94.2699 278.865 79.566Z" fill="#D9D9D9"/>
<path d="M278.865 79.566C276.73 66.7575 273.392 68.1259 265.312 72.3547C235.904 87.7461 243.276 103.769 251.908 106.523C256.939 108.129 268.441 99.6318 275.115 96.8613C279.889 94.8794 281.487 98.8567 281.487 95.3909C281.487 92.4501 281.316 94.2699 278.865 79.566Z" fill="url(#paint2_linear_170_70)"/>
<path d="M232.924 94.2303C241.757 84.372 238.373 78.6427 235.896 77.129C200.723 55.6305 195.273 136.251 232.924 94.2303Z" fill="#093D68"/>
<path d="M275.875 65.5902C272.877 60.7756 250.393 71.368 254.14 77.4666C257.888 84.8493 273.251 88.38 277.748 86.4541C281.345 84.9134 277.998 71.9029 275.875 65.5902Z" fill="#093D68"/>
<path d="M179.114 314.879C140.051 312.522 134.476 240.904 136.571 205.389C148.173 196.224 177.373 192.132 201.352 249.087C231.326 320.28 227.942 317.825 179.114 314.879Z" fill="url(#paint3_linear_170_70)"/>
<g filter="url(#filter0_f_170_70)">
<path d="M219.818 101.287C233.888 96.1319 233.585 84.2725 231.563 79.4391C226.711 94.3904 215.684 99.6718 210.024 99.0273C212.935 103.41 217.19 101.717 219.818 101.287Z" fill="url(#paint4_linear_170_70)" fill-opacity="0.31"/>
</g>
<g filter="url(#filter1_f_170_70)">
<ellipse cx="3.01356" cy="3.01356" rx="3.01356" ry="3.01356" transform="matrix(-1 -8.74228e-08 -8.74228e-08 1 232.625 77.9326)" fill="white"/>
</g>
<g filter="url(#filter2_f_170_70)">
<ellipse cx="1.50678" cy="1.50678" rx="1.50678" ry="1.50678" transform="matrix(-1 -8.74228e-08 -8.74228e-08 1 226.598 86.9731)" fill="white"/>
</g>
<path d="M395.315 153.639C374.285 170.429 377.342 213.803 381.474 233.118C393.338 225.861 418.85 206.855 426.185 191.073C433.52 175.29 429.893 141.619 427.162 126.757C425.309 128.722 416.345 136.85 395.315 153.639Z" fill="#D9D9D9"/>
<path d="M395.315 153.639C374.285 170.429 377.342 213.803 381.474 233.118C393.338 225.861 418.85 206.855 426.185 191.073C433.52 175.29 429.893 141.619 427.162 126.757C425.309 128.722 416.345 136.85 395.315 153.639Z" fill="url(#paint5_linear_170_70)"/>
<path d="M327.796 169.777C327.983 196.716 363.561 223.213 381.474 233.118C380.987 226.596 380.259 207.679 380.06 184.001C379.861 160.322 354.194 129.18 341.385 116.569C336.777 123.08 327.609 142.838 327.796 169.777Z" fill="#D9D9D9"/>
<path d="M327.796 169.777C327.983 196.716 363.561 223.213 381.474 233.118C380.987 226.596 380.259 207.679 380.06 184.001C379.861 160.322 354.194 129.18 341.385 116.569C336.777 123.08 327.609 142.838 327.796 169.777Z" fill="url(#paint6_linear_170_70)"/>
<path d="M129.064 378.252C129.064 375.5 129.576 373.084 130.6 371.004C131.656 368.924 133.08 367.324 134.872 366.204C136.664 365.084 138.664 364.524 140.872 364.524C142.76 364.524 144.408 364.908 145.816 365.676C147.256 366.444 148.36 367.452 149.128 368.7V364.908H157.336V391.692H149.128V387.9C148.328 389.148 147.208 390.156 145.768 390.924C144.36 391.692 142.712 392.076 140.824 392.076C138.648 392.076 136.664 391.516 134.872 390.396C133.08 389.244 131.656 387.628 130.6 385.548C129.576 383.436 129.064 381.004 129.064 378.252ZM149.128 378.3C149.128 376.252 148.552 374.636 147.4 373.452C146.28 372.268 144.904 371.676 143.272 371.676C141.64 371.676 140.248 372.268 139.096 373.452C137.976 374.604 137.416 376.204 137.416 378.252C137.416 380.3 137.976 381.932 139.096 383.148C140.248 384.332 141.64 384.924 143.272 384.924C144.904 384.924 146.28 384.332 147.4 383.148C148.552 381.964 149.128 380.348 149.128 378.3ZM176.282 356.172V391.692H168.074V356.172H176.282ZM191.159 362.124C189.719 362.124 188.535 361.708 187.607 360.876C186.711 360.012 186.263 358.956 186.263 357.708C186.263 356.428 186.711 355.372 187.607 354.54C188.535 353.676 189.719 353.244 191.159 353.244C192.567 353.244 193.719 353.676 194.615 354.54C195.543 355.372 196.007 356.428 196.007 357.708C196.007 358.956 195.543 360.012 194.615 360.876C193.719 361.708 192.567 362.124 191.159 362.124ZM195.239 364.908V391.692H187.031V364.908H195.239ZM216.883 392.076C214.547 392.076 212.467 391.676 210.643 390.876C208.819 390.076 207.379 388.988 206.323 387.612C205.267 386.204 204.675 384.636 204.547 382.908H212.659C212.755 383.836 213.187 384.588 213.955 385.164C214.723 385.74 215.667 386.028 216.787 386.028C217.811 386.028 218.595 385.836 219.139 385.452C219.715 385.036 220.003 384.508 220.003 383.868C220.003 383.1 219.603 382.54 218.803 382.188C218.003 381.804 216.707 381.388 214.915 380.94C212.995 380.492 211.395 380.028 210.115 379.548C208.835 379.036 207.731 378.252 206.803 377.196C205.875 376.108 205.411 374.652 205.411 372.828C205.411 371.292 205.827 369.9 206.659 368.652C207.523 367.372 208.771 366.364 210.403 365.628C212.067 364.892 214.035 364.524 216.307 364.524C219.667 364.524 222.307 365.356 224.227 367.02C226.179 368.684 227.299 370.892 227.587 373.644H220.003C219.875 372.716 219.459 371.98 218.755 371.436C218.083 370.892 217.187 370.62 216.067 370.62C215.107 370.62 214.371 370.812 213.859 371.196C213.347 371.548 213.091 372.044 213.091 372.684C213.091 373.452 213.491 374.028 214.291 374.412C215.123 374.796 216.403 375.18 218.131 375.564C220.115 376.076 221.731 376.588 222.979 377.1C224.227 377.58 225.315 378.38 226.243 379.5C227.203 380.588 227.699 382.06 227.731 383.916C227.731 385.484 227.283 386.892 226.387 388.14C225.523 389.356 224.259 390.316 222.595 391.02C220.963 391.724 219.059 392.076 216.883 392.076ZM235.921 378.252C235.921 375.5 236.433 373.084 237.457 371.004C238.513 368.924 239.937 367.324 241.729 366.204C243.521 365.084 245.521 364.524 247.729 364.524C249.617 364.524 251.265 364.908 252.673 365.676C254.113 366.444 255.217 367.452 255.985 368.7V364.908H264.193V391.692H255.985V387.9C255.185 389.148 254.065 390.156 252.625 390.924C251.217 391.692 249.569 392.076 247.681 392.076C245.505 392.076 243.521 391.516 241.729 390.396C239.937 389.244 238.513 387.628 237.457 385.548C236.433 383.436 235.921 381.004 235.921 378.252ZM255.985 378.3C255.985 376.252 255.409 374.636 254.257 373.452C253.137 372.268 251.761 371.676 250.129 371.676C248.497 371.676 247.105 372.268 245.953 373.452C244.833 374.604 244.273 376.204 244.273 378.252C244.273 380.3 244.833 381.932 245.953 383.148C247.105 384.332 248.497 384.924 250.129 384.924C251.761 384.924 253.137 384.332 254.257 383.148C255.409 381.964 255.985 380.348 255.985 378.3ZM304.831 384.732V391.692H300.655C297.679 391.692 295.359 390.972 293.695 389.532C292.031 388.06 291.199 385.676 291.199 382.38V371.724H287.935V364.908H291.199V358.38H299.407V364.908H304.783V371.724H299.407V382.476C299.407 383.276 299.599 383.852 299.983 384.204C300.367 384.556 301.007 384.732 301.903 384.732H304.831ZM322.411 369.372C323.371 367.9 324.571 366.748 326.011 365.916C327.451 365.052 329.051 364.62 330.811 364.62V373.308H328.555C326.507 373.308 324.971 373.756 323.947 374.652C322.923 375.516 322.411 377.052 322.411 379.26V391.692H314.203V364.908H322.411V369.372ZM337.902 378.252C337.902 375.5 338.414 373.084 339.438 371.004C340.494 368.924 341.918 367.324 343.71 366.204C345.502 365.084 347.502 364.524 349.71 364.524C351.598 364.524 353.246 364.908 354.654 365.676C356.094 366.444 357.198 367.452 357.966 368.7V364.908H366.174V391.692H357.966V387.9C357.166 389.148 356.046 390.156 354.606 390.924C353.198 391.692 351.55 392.076 349.662 392.076C347.486 392.076 345.502 391.516 343.71 390.396C341.918 389.244 340.494 387.628 339.438 385.548C338.414 383.436 337.902 381.004 337.902 378.252ZM357.966 378.3C357.966 376.252 357.39 374.636 356.238 373.452C355.118 372.268 353.742 371.676 352.11 371.676C350.478 371.676 349.086 372.268 347.934 373.452C346.814 374.604 346.254 376.204 346.254 378.252C346.254 380.3 346.814 381.932 347.934 383.148C349.086 384.332 350.478 384.924 352.11 384.924C353.742 384.924 355.118 384.332 356.238 383.148C357.39 381.964 357.966 380.348 357.966 378.3ZM393.232 364.62C396.368 364.62 398.864 365.644 400.72 367.692C402.608 369.708 403.552 372.492 403.552 376.044V391.692H395.392V377.148C395.392 375.356 394.928 373.964 394 372.972C393.072 371.98 391.824 371.484 390.256 371.484C388.688 371.484 387.44 371.98 386.512 372.972C385.584 373.964 385.12 375.356 385.12 377.148V391.692H376.912V364.908H385.12V368.46C385.952 367.276 387.072 366.348 388.48 365.676C389.888 364.972 391.472 364.62 393.232 364.62Z" fill="#89B1D1"/>
<mask id="mask0_170_70" style="mask-type:alpha" maskUnits="userSpaceOnUse" x="131" y="43" width="300" height="274">
<path d="M316.69 212.462C306.812 209.293 281.951 160.632 270.755 136.697C258.407 188.693 282.115 234.251 292.982 241.184C303.848 248.117 329.038 216.424 316.69 212.462Z" fill="#D9D9D9"/>
<path d="M316.69 212.462C306.812 209.293 281.951 160.632 270.755 136.697C258.407 188.693 282.115 234.251 292.982 241.184C303.848 248.117 329.038 216.424 316.69 212.462Z" fill="url(#paint7_linear_170_70)"/>
<path d="M384.72 218.571C408.397 290.548 161.409 366.303 134.206 197.376C107.572 31.9797 300.089 -4.70551 278.428 108.891C264.486 182.001 271.879 306.217 384.72 218.571Z" fill="#D9D9D9"/>
<path d="M384.72 218.571C408.397 290.548 161.409 366.303 134.206 197.376C107.572 31.9797 300.089 -4.70551 278.428 108.891C264.486 182.001 271.879 306.217 384.72 218.571Z" fill="url(#paint8_linear_170_70)"/>
<path d="M278.865 79.566C276.73 66.7575 273.392 68.1259 265.312 72.3547C235.904 87.7461 243.276 103.769 251.908 106.523C256.939 108.129 268.441 99.6318 275.115 96.8613C279.889 94.8794 281.487 98.8567 281.487 95.3909C281.487 92.4501 281.316 94.2699 278.865 79.566Z" fill="#D9D9D9"/>
<path d="M278.865 79.566C276.73 66.7575 273.392 68.1259 265.312 72.3547C235.904 87.7461 243.276 103.769 251.908 106.523C256.939 108.129 268.441 99.6318 275.115 96.8613C279.889 94.8794 281.487 98.8567 281.487 95.3909C281.487 92.4501 281.316 94.2699 278.865 79.566Z" fill="url(#paint9_linear_170_70)"/>
<path d="M232.924 94.2303C241.757 84.372 238.373 78.6427 235.896 77.129C200.723 55.6305 195.273 136.251 232.924 94.2303Z" fill="#093D68"/>
<path d="M275.875 65.5902C272.877 60.7756 250.393 71.368 254.14 77.4666C257.888 84.8493 273.251 88.38 277.748 86.4541C281.345 84.9134 277.998 71.9029 275.875 65.5902Z" fill="#093D68"/>
<path d="M179.114 314.879C140.051 312.522 134.476 240.904 136.571 205.389C148.173 196.224 177.373 192.132 201.352 249.087C231.326 320.28 227.942 317.825 179.114 314.879Z" fill="url(#paint10_linear_170_70)"/>
<path d="M219.818 101.287C233.888 96.1319 233.585 84.2725 231.563 79.4391C226.711 94.3904 215.684 99.6718 210.024 99.0273C212.935 103.41 217.19 101.717 219.818 101.287Z" fill="url(#paint11_linear_170_70)" fill-opacity="0.31"/>
<ellipse cx="3.01356" cy="3.01356" rx="3.01356" ry="3.01356" transform="matrix(-1 -8.74228e-08 -8.74228e-08 1 232.625 77.9326)" fill="white"/>
<ellipse cx="1.50678" cy="1.50678" rx="1.50678" ry="1.50678" transform="matrix(-1 -8.74228e-08 -8.74228e-08 1 226.598 86.9731)" fill="white"/>
<path d="M395.315 153.639C374.285 170.429 377.342 213.803 381.474 233.118C393.338 225.861 418.85 206.855 426.185 191.073C433.52 175.29 429.893 141.619 427.162 126.757C425.309 128.722 416.345 136.85 395.315 153.639Z" fill="#D9D9D9"/>
<path d="M395.315 153.639C374.285 170.429 377.342 213.803 381.474 233.118C393.338 225.861 418.85 206.855 426.185 191.073C433.52 175.29 429.893 141.619 427.162 126.757C425.309 128.722 416.345 136.85 395.315 153.639Z" fill="url(#paint12_linear_170_70)"/>
<path d="M327.796 169.777C327.983 196.716 363.561 223.213 381.474 233.118C380.987 226.596 380.259 207.679 380.06 184.001C379.861 160.322 354.194 129.18 341.385 116.569C336.777 123.08 327.609 142.838 327.796 169.777Z" fill="#D9D9D9"/>
<path d="M327.796 169.777C327.983 196.716 363.561 223.213 381.474 233.118C380.987 226.596 380.259 207.679 380.06 184.001C379.861 160.322 354.194 129.18 341.385 116.569C336.777 123.08 327.609 142.838 327.796 169.777Z" fill="url(#paint13_linear_170_70)"/>
</mask>
<g mask="url(#mask0_170_70)">
<g style="mix-blend-mode:soft-light">
<path d="M158.383 207.073C151.21 217.89 134.472 219.468 127 218.905L131.483 272.994L172.954 328.773L239.082 320.322L298.486 296.658C406.027 272.994 424.874 228.537 415.649 230.152C319.432 246.989 283.915 211.017 278.311 203.692C272.707 210.453 258.584 223.637 246.928 222.285C235.271 220.933 224.885 209.326 221.149 203.692C216.292 208.763 202.319 218.905 185.283 218.905C168.246 218.905 160.251 211.017 158.383 207.073Z" fill="url(#paint14_linear_170_70)"/>
</g>
</g>
<defs>
<filter id="filter0_f_170_70" x="208.624" y="78.0391" width="25.3563" height="25.3292" filterUnits="userSpaceOnUse" color-interpolation-filters="sRGB">
<feFlood flood-opacity="0" result="BackgroundImageFix"/>
<feBlend mode="normal" in="SourceGraphic" in2="BackgroundImageFix" result="shape"/>
<feGaussianBlur stdDeviation="0.7" result="effect1_foregroundBlur_170_70"/>
</filter>
<filter id="filter1_f_170_70" x="225.198" y="76.5326" width="8.82713" height="8.8271" filterUnits="userSpaceOnUse" color-interpolation-filters="sRGB">
<feFlood flood-opacity="0" result="BackgroundImageFix"/>
<feBlend mode="normal" in="SourceGraphic" in2="BackgroundImageFix" result="shape"/>
<feGaussianBlur stdDeviation="0.7" result="effect1_foregroundBlur_170_70"/>
</filter>
<filter id="filter2_f_170_70" x="222.785" y="86.1731" width="4.61355" height="4.61355" filterUnits="userSpaceOnUse" color-interpolation-filters="sRGB">
<feFlood flood-opacity="0" result="BackgroundImageFix"/>
<feBlend mode="normal" in="SourceGraphic" in2="BackgroundImageFix" result="shape"/>
<feGaussianBlur stdDeviation="0.4" result="effect1_foregroundBlur_170_70"/>
</filter>
<linearGradient id="paint0_linear_170_70" x1="293.65" y1="136.697" x2="293.65" y2="242.172" gradientUnits="userSpaceOnUse">
<stop stop-color="#C4DCEF"/>
<stop offset="1" stop-color="#89B1D1"/>
</linearGradient>
<linearGradient id="paint1_linear_170_70" x1="212.543" y1="-35.2492" x2="315.185" y2="290.446" gradientUnits="userSpaceOnUse">
<stop offset="0.155849" stop-color="#E7F4FF"/>
<stop offset="1" stop-color="#A7C7E1"/>
</linearGradient>
<linearGradient id="paint2_linear_170_70" x1="270.735" y1="71.8023" x2="281.461" y2="96.5167" gradientUnits="userSpaceOnUse">
<stop stop-color="#89B1D1"/>
<stop offset="1" stop-color="#2E5D84"/>
</linearGradient>
<linearGradient id="paint3_linear_170_70" x1="178.381" y1="199.982" x2="178.381" y2="316.004" gradientUnits="userSpaceOnUse">
<stop stop-color="#C4DCEF"/>
<stop offset="1" stop-color="#89B1D1"/>
</linearGradient>
<linearGradient id="paint4_linear_170_70" x1="220.571" y1="79.4391" x2="220.571" y2="100.534" gradientUnits="userSpaceOnUse">
<stop stop-color="#93BFE3"/>
<stop offset="1" stop-color="#1279CE"/>
</linearGradient>
<linearGradient id="paint5_linear_170_70" x1="404.231" y1="138.08" x2="450.59" y2="199.486" gradientUnits="userSpaceOnUse">
<stop stop-color="#BAE0FF"/>
<stop offset="0.99307" stop-color="#1B5381"/>
</linearGradient>
<linearGradient id="paint6_linear_170_70" x1="355.187" y1="132.688" x2="397.225" y2="206.081" gradientUnits="userSpaceOnUse">
<stop stop-color="#BAE0FF"/>
<stop offset="0.99307" stop-color="#1B5381"/>
</linearGradient>
<linearGradient id="paint7_linear_170_70" x1="293.65" y1="136.697" x2="293.65" y2="242.172" gradientUnits="userSpaceOnUse">
<stop stop-color="#C4DCEF"/>
<stop offset="1" stop-color="#89B1D1"/>
</linearGradient>
<linearGradient id="paint8_linear_170_70" x1="212.543" y1="-35.2492" x2="315.185" y2="290.446" gradientUnits="userSpaceOnUse">
<stop offset="0.155849" stop-color="#E7F4FF"/>
<stop offset="1" stop-color="#A7C7E1"/>
</linearGradient>
<linearGradient id="paint9_linear_170_70" x1="270.735" y1="71.8023" x2="281.461" y2="96.5167" gradientUnits="userSpaceOnUse">
<stop stop-color="#89B1D1"/>
<stop offset="1" stop-color="#2E5D84"/>
</linearGradient>
<linearGradient id="paint10_linear_170_70" x1="178.381" y1="199.982" x2="178.381" y2="316.004" gradientUnits="userSpaceOnUse">
<stop stop-color="#C4DCEF"/>
<stop offset="1" stop-color="#89B1D1"/>
</linearGradient>
<linearGradient id="paint11_linear_170_70" x1="220.571" y1="79.4391" x2="220.571" y2="100.534" gradientUnits="userSpaceOnUse">
<stop stop-color="#93BFE3"/>
<stop offset="1" stop-color="#1279CE"/>
</linearGradient>
<linearGradient id="paint12_linear_170_70" x1="404.231" y1="138.08" x2="450.59" y2="199.486" gradientUnits="userSpaceOnUse">
<stop stop-color="#BAE0FF"/>
<stop offset="0.99307" stop-color="#1B5381"/>
</linearGradient>
<linearGradient id="paint13_linear_170_70" x1="355.187" y1="132.688" x2="397.225" y2="206.081" gradientUnits="userSpaceOnUse">
<stop stop-color="#BAE0FF"/>
<stop offset="0.99307" stop-color="#1B5381"/>
</linearGradient>
<linearGradient id="paint14_linear_170_70" x1="218.405" y1="203.692" x2="218.405" y2="328.773" gradientUnits="userSpaceOnUse">
<stop stop-color="#DFF1FF"/>
<stop offset="1" stop-color="#89B1D1"/>
</linearGradient>
</defs>
</svg>
