<svg width="252" height="291" viewBox="0 0 252 291" fill="none" xmlns="http://www.w3.org/2000/svg">
<path d="M220.531 62.1574C218.569 61.1436 216.659 60.0322 214.809 58.8273C209.428 55.2699 204.494 51.0783 200.114 46.3426C189.155 33.8033 185.062 21.0824 183.555 12.176H183.615C182.356 4.7832 182.876 0 182.955 0H133.04V193.011C133.04 195.603 133.04 198.164 132.931 200.695C132.931 201.01 132.901 201.3 132.883 201.639C132.883 201.779 132.883 201.924 132.853 202.069C132.853 202.105 132.853 202.142 132.853 202.178C132.326 209.103 130.107 215.793 126.388 221.659C122.67 227.525 117.567 232.387 111.528 235.818C105.234 239.398 98.1163 241.277 90.8755 241.267C67.6194 241.267 48.7712 222.304 48.7712 198.884C48.7712 175.465 67.6194 156.502 90.8755 156.502C95.2777 156.497 99.6529 157.19 103.839 158.554L103.899 107.731C91.1925 106.09 78.2837 107.1 65.9869 110.697C53.6901 114.294 42.2723 120.401 32.4538 128.632C23.8505 136.107 16.6176 145.026 11.0808 154.988C8.97372 158.621 1.02392 173.219 0.0612242 196.911C-0.544245 210.358 3.49423 224.29 5.41962 230.048V230.169C6.63056 233.56 11.3229 245.13 18.97 254.884C25.1363 262.708 32.4216 269.582 40.5913 275.282V275.161L40.7124 275.282C64.8766 291.703 91.6686 290.625 91.6686 290.625C96.3065 290.437 111.843 290.625 129.486 282.263C149.055 272.994 160.196 259.183 160.196 259.183C167.313 250.931 172.972 241.527 176.931 231.374C181.448 219.501 182.955 205.26 182.955 199.569V97.1717C183.561 97.535 191.625 102.869 191.625 102.869C191.625 102.869 203.244 110.316 221.372 115.166C234.378 118.617 251.9 119.344 251.9 119.344V69.7924C245.76 70.4584 233.294 68.5209 220.531 62.1574Z" fill="white"/>
</svg>
