<svg width="243" height="177" viewBox="0 0 243 177" fill="none" xmlns="http://www.w3.org/2000/svg">
<path d="M35.3817 50.3681C51.8817 24.3681 82.3817 157.368 82.3817 159.368L62 169C-17 126 18.8817 76.3681 35.3817 50.3681Z" fill="#D9D9D9"/>
<path d="M35.3817 50.3681C51.8817 24.3681 82.3817 157.368 82.3817 159.368L62 169C-17 126 18.8817 76.3681 35.3817 50.3681Z" fill="url(#paint0_linear_321_87)"/>
<path d="M130.3 58.592C79.305 59.2983 63.9666 112.329 62.6717 138.757L61.9357 168.99H205.49L202.342 121.847C199.575 102.541 181.294 57.8857 130.3 58.592Z" fill="#D9D9D9"/>
<path d="M130.3 58.592C79.305 59.2983 63.9666 112.329 62.6717 138.757L61.9357 168.99H205.49L202.342 121.847C199.575 102.541 181.294 57.8857 130.3 58.592Z" fill="url(#paint1_linear_321_87)"/>
<circle cx="175.501" cy="133.636" r="21.3654" fill="url(#paint2_radial_321_87)" fill-opacity="0.43"/>
<path d="M168.632 129.468C177.281 127.971 186.918 128.893 191.297 130.826C191.606 130.962 191.455 131.295 191.126 131.215C185.329 129.821 175.264 129.756 168.694 129.978C168.33 129.99 168.274 129.53 168.632 129.468Z" fill="white"/>
<path d="M168.158 133.035C174.593 133.402 180.441 136.131 183.885 138.309C184.184 138.498 183.971 138.857 183.646 138.717C176.9 135.8 172.19 134.395 168.11 133.529C167.76 133.455 167.801 133.015 168.158 133.035Z" fill="white"/>
<path d="M167.167 135.762C171.847 137.044 174.998 140.079 176.586 142.309C176.779 142.579 176.472 142.829 176.219 142.613C172.827 139.709 169.737 137.662 167 136.266C166.688 136.107 166.829 135.669 167.167 135.762Z" fill="white"/>
<circle cx="94.9846" cy="131.164" r="21.3654" fill="url(#paint3_radial_321_87)" fill-opacity="0.43"/>
<g filter="url(#filter0_d_321_87)">
<path d="M105.583 146.388C107.332 141.687 111.66 138.163 116.99 137.697L160.705 133.872C166.207 133.391 171.058 137.461 171.539 142.962L172.134 149.76C172.615 155.261 168.545 160.112 163.043 160.593L119.328 164.418C113.751 164.906 108.674 161.907 106.248 157.228L88.2988 158.798L87.3525 147.983L105.583 146.388Z" fill="url(#paint4_linear_321_87)"/>
<path d="M88.9846 160.662C87.8842 160.758 86.9141 159.944 86.8179 158.844L85.8862 148.195C85.7899 147.095 86.6039 146.125 87.7043 146.029L88.0977 145.994C90.8486 145.754 93.2738 147.789 93.5145 150.539L93.9232 155.211C94.1639 157.962 92.1289 160.387 89.378 160.627L88.9846 160.662Z" fill="#710909"/>
<mask id="mask0_321_87" style="mask-type:alpha" maskUnits="userSpaceOnUse" x="87" y="133" width="86" height="32">
<path d="M105.583 146.388C107.332 141.687 111.66 138.163 116.99 137.697L160.705 133.872C166.207 133.391 171.058 137.461 171.539 142.962L172.134 149.76C172.615 155.261 168.545 160.112 163.043 160.593L119.328 164.418C113.751 164.906 108.674 161.907 106.248 157.228L88.2988 158.798L87.3525 147.983L105.583 146.388Z" fill="url(#paint5_linear_321_87)"/>
</mask>
<g mask="url(#mask0_321_87)">
<rect x="124.092" y="169.13" width="40.874" height="59.8992" transform="rotate(-95.0003 124.092 169.13)" fill="url(#paint6_linear_321_87)"/>
</g>
<rect x="84.7812" y="161.03" width="14.6891" height="6.65546" rx="3.32773" transform="rotate(-95.0003 84.7812 161.03)" fill="#A91C00"/>
<mask id="mask1_321_87" style="mask-type:alpha" maskUnits="userSpaceOnUse" x="120" y="133" width="53" height="32">
<mask id="mask2_321_87" style="mask-type:alpha" maskUnits="userSpaceOnUse" x="87" y="133" width="86" height="32">
<path d="M105.583 146.388C107.332 141.686 111.66 138.163 116.99 137.697L160.705 133.872C166.207 133.391 171.058 137.46 171.539 142.962L172.134 149.759C172.615 155.261 168.545 160.111 163.043 160.593L119.328 164.418C113.751 164.906 108.674 161.907 106.248 157.228L88.2988 158.798L87.3525 147.983L105.583 146.388Z" fill="url(#paint7_linear_321_87)"/>
</mask>
<g mask="url(#mask2_321_87)">
<rect x="124.092" y="169.13" width="40.874" height="59.8992" transform="rotate(-95.0003 124.092 169.13)" fill="url(#paint8_linear_321_87)"/>
</g>
</mask>
<g mask="url(#mask1_321_87)">
<rect x="131.688" y="167.879" width="37.1513" height="30.4958" transform="rotate(-95.0003 131.688 167.879)" fill="url(#paint9_linear_321_87)" stroke="#FFC848" stroke-width="5"/>
</g>
</g>
<path d="M162.396 136.189C163.352 121.183 145.072 117.789 135.813 117.968C99.2315 117.558 99.4736 137.945 105.943 145.275C112.411 152.606 126.07 143.868 137.2 144.577C147.497 145.233 161.2 154.947 162.396 136.189Z" fill="#D9D9D9"/>
<path d="M162.396 136.189C163.352 121.183 145.072 117.789 135.813 117.968C99.2315 117.558 99.4736 137.945 105.943 145.275C112.411 152.606 126.07 143.868 137.2 144.577C147.497 145.233 161.2 154.947 162.396 136.189Z" fill="url(#paint10_linear_321_87)"/>
<ellipse cx="120.036" cy="125.611" rx="1.58917" ry="1.58916" transform="rotate(3.64646 120.036 125.611)" fill="#0A3E69" fill-opacity="0.51"/>
<path d="M96.7974 129.821C88.149 128.324 78.5114 129.246 74.1332 131.179C73.8237 131.315 73.9751 131.648 74.304 131.568C80.1009 130.174 90.1657 130.109 96.736 130.331C97.0995 130.343 97.1558 129.883 96.7974 129.821Z" fill="white"/>
<path d="M97.2728 133.388C90.8373 133.756 84.9898 136.484 81.546 138.662C81.2471 138.851 81.4597 139.21 81.7843 139.07C88.5303 136.153 93.2403 134.748 97.3211 133.882C97.6709 133.808 97.6298 133.368 97.2728 133.388Z" fill="white"/>
<path d="M98.2615 136.115C93.5815 137.397 90.4305 140.432 88.8426 142.662C88.65 142.932 88.9571 143.182 89.2093 142.966C92.6016 140.062 95.6916 138.015 98.4283 136.619C98.7405 136.46 98.5996 136.022 98.2615 136.115Z" fill="white"/>
<ellipse cx="113.843" cy="128.401" rx="2.29546" ry="2.29546" transform="rotate(3.64646 113.843 128.401)" fill="#0A3E69" fill-opacity="0.51"/>
<ellipse cx="118.882" cy="132.615" rx="2.29546" ry="2.29546" transform="rotate(3.64646 118.882 132.615)" fill="#0A3E69" fill-opacity="0.51"/>
<ellipse cx="1.58916" cy="1.41259" rx="1.58916" ry="1.41259" transform="matrix(-0.997975 -0.0635998 -0.0635998 0.997975 150.031 124.758)" fill="#0A3E69" fill-opacity="0.51"/>
<ellipse cx="2.29546" cy="2.29546" rx="2.29546" ry="2.29546" transform="matrix(-0.997975 -0.0635998 -0.0635998 0.997975 156.593 127.299)" fill="#0A3E69" fill-opacity="0.51"/>
<ellipse cx="2.29546" cy="2.29546" rx="2.29546" ry="2.29546" transform="matrix(-0.997975 -0.0635998 -0.0635998 0.997975 151.059 130.839)" fill="#0A3E69" fill-opacity="0.51"/>
<path d="M157.669 96.9083C167.204 94.3718 182.446 104.833 179.034 119.157C174.77 137.061 137.05 102.393 157.669 96.9083Z" fill="#093D68"/>
<path d="M142.626 117.127C136.27 114.726 128.324 116.127 125.145 117.127C119.672 119.953 126.205 129.134 130.619 133.725C135.034 138.316 150.572 120.129 142.626 117.127Z" fill="#093D68"/>
<g filter="url(#filter1_f_321_87)">
<path d="M163.445 117.297C153.805 111.447 155.774 103.369 157.964 100.062C159.387 111.882 168.283 115.498 172.554 115.829C169.773 118.674 165.323 117.993 163.445 117.297Z" fill="url(#paint11_linear_321_87)" fill-opacity="0.31"/>
</g>
<g filter="url(#filter2_f_321_87)">
<ellipse cx="1.05944" cy="1.05944" rx="1.05944" ry="1.05944" transform="matrix(-1 -8.74228e-08 -8.74228e-08 1 161.906 109.092)" fill="white"/>
</g>
<g filter="url(#filter3_f_321_87)">
<ellipse cx="3.00176" cy="3.00176" rx="3.00176" ry="3.00176" transform="matrix(-1 -8.74228e-08 -8.74228e-08 1 161.906 100.969)" fill="white"/>
</g>
<path d="M112.735 95.8065C103.2 93.27 87.9575 103.731 91.3692 118.055C95.6338 135.959 133.353 101.292 112.735 95.8065Z" fill="#093D68"/>
<g filter="url(#filter4_f_321_87)">
<path d="M106.957 116.196C116.597 110.346 114.628 102.268 112.439 98.9604C111.016 110.781 102.119 114.397 97.8487 114.728C100.629 117.572 105.08 116.892 106.957 116.196Z" fill="url(#paint12_linear_321_87)" fill-opacity="0.31"/>
</g>
<g filter="url(#filter5_f_321_87)">
<ellipse cx="109.557" cy="109.05" rx="1.05944" ry="1.05944" fill="white"/>
</g>
<g filter="url(#filter6_f_321_87)">
<ellipse cx="111.499" cy="102.869" rx="3.00176" ry="3.00176" fill="white"/>
</g>
<ellipse cx="164.939" cy="89.1391" rx="7.11004" ry="2.82951" transform="rotate(16.8356 164.939 89.1391)" fill="#93BFE3"/>
<ellipse cx="7.11004" cy="2.82951" rx="7.11004" ry="2.82951" transform="matrix(0.95714 -0.289627 -0.289627 -0.95714 102.804 93.9062)" fill="#93BFE3"/>
<defs>
<filter id="filter0_d_321_87" x="79.7783" y="133.833" width="96.3945" height="38.6367" filterUnits="userSpaceOnUse" color-interpolation-filters="sRGB">
<feFlood flood-opacity="0" result="BackgroundImageFix"/>
<feColorMatrix in="SourceAlpha" type="matrix" values="0 0 0 0 0 0 0 0 0 0 0 0 0 0 0 0 0 0 127 0" result="hardAlpha"/>
<feOffset dy="4"/>
<feGaussianBlur stdDeviation="2"/>
<feComposite in2="hardAlpha" operator="out"/>
<feColorMatrix type="matrix" values="0 0 0 0 0 0 0 0 0 0 0 0 0 0 0 0 0 0 0.25 0"/>
<feBlend mode="normal" in2="BackgroundImageFix" result="effect1_dropShadow_321_87"/>
<feBlend mode="normal" in="SourceGraphic" in2="effect1_dropShadow_321_87" result="shape"/>
</filter>
<filter id="filter1_f_321_87" x="152.165" y="96.0618" width="24.3887" height="25.8462" filterUnits="userSpaceOnUse" color-interpolation-filters="sRGB">
<feFlood flood-opacity="0" result="BackgroundImageFix"/>
<feBlend mode="normal" in="SourceGraphic" in2="BackgroundImageFix" result="shape"/>
<feGaussianBlur stdDeviation="2" result="effect1_foregroundBlur_321_87"/>
</filter>
<filter id="filter2_f_321_87" x="155.887" y="105.192" width="9.91914" height="9.9189" filterUnits="userSpaceOnUse" color-interpolation-filters="sRGB">
<feFlood flood-opacity="0" result="BackgroundImageFix"/>
<feBlend mode="normal" in="SourceGraphic" in2="BackgroundImageFix" result="shape"/>
<feGaussianBlur stdDeviation="1.95" result="effect1_foregroundBlur_321_87"/>
</filter>
<filter id="filter3_f_321_87" x="152.002" y="97.0695" width="13.8039" height="13.8034" filterUnits="userSpaceOnUse" color-interpolation-filters="sRGB">
<feFlood flood-opacity="0" result="BackgroundImageFix"/>
<feBlend mode="normal" in="SourceGraphic" in2="BackgroundImageFix" result="shape"/>
<feGaussianBlur stdDeviation="1.95" result="effect1_foregroundBlur_321_87"/>
</filter>
<filter id="filter4_f_321_87" x="93.8486" y="94.9604" width="24.3887" height="25.8462" filterUnits="userSpaceOnUse" color-interpolation-filters="sRGB">
<feFlood flood-opacity="0" result="BackgroundImageFix"/>
<feBlend mode="normal" in="SourceGraphic" in2="BackgroundImageFix" result="shape"/>
<feGaussianBlur stdDeviation="2" result="effect1_foregroundBlur_321_87"/>
</filter>
<filter id="filter5_f_321_87" x="104.597" y="104.09" width="9.91914" height="9.9189" filterUnits="userSpaceOnUse" color-interpolation-filters="sRGB">
<feFlood flood-opacity="0" result="BackgroundImageFix"/>
<feBlend mode="normal" in="SourceGraphic" in2="BackgroundImageFix" result="shape"/>
<feGaussianBlur stdDeviation="1.95" result="effect1_foregroundBlur_321_87"/>
</filter>
<filter id="filter6_f_321_87" x="104.597" y="95.9677" width="13.8039" height="13.8034" filterUnits="userSpaceOnUse" color-interpolation-filters="sRGB">
<feFlood flood-opacity="0" result="BackgroundImageFix"/>
<feBlend mode="normal" in="SourceGraphic" in2="BackgroundImageFix" result="shape"/>
<feGaussianBlur stdDeviation="1.95" result="effect1_foregroundBlur_321_87"/>
</filter>
<linearGradient id="paint0_linear_321_87" x1="35.8746" y1="8.42569" x2="106.235" y2="142.802" gradientUnits="userSpaceOnUse">
<stop offset="0.155849" stop-color="#E7F4FF"/>
<stop offset="1" stop-color="#A7C7E1"/>
</linearGradient>
<linearGradient id="paint1_linear_321_87" x1="109.264" y1="23.7803" x2="142.788" y2="170.606" gradientUnits="userSpaceOnUse">
<stop offset="0.155849" stop-color="#E7F4FF"/>
<stop offset="1" stop-color="#A7C7E1"/>
</linearGradient>
<radialGradient id="paint2_radial_321_87" cx="0" cy="0" r="1" gradientUnits="userSpaceOnUse" gradientTransform="translate(175.501 133.636) rotate(90) scale(21.3654)">
<stop stop-color="#FFAFAF"/>
<stop offset="1" stop-color="#FFAFAF" stop-opacity="0"/>
</radialGradient>
<radialGradient id="paint3_radial_321_87" cx="0" cy="0" r="1" gradientUnits="userSpaceOnUse" gradientTransform="translate(94.9846 131.164) rotate(90) scale(21.3654)">
<stop stop-color="#FFAFAF"/>
<stop offset="1" stop-color="#FFAFAF" stop-opacity="0"/>
</radialGradient>
<linearGradient id="paint4_linear_321_87" x1="87.8535" y1="153.709" x2="171.836" y2="146.361" gradientUnits="userSpaceOnUse">
<stop stop-color="#E7F4FF"/>
<stop offset="1" stop-color="#BAE0FF"/>
</linearGradient>
<linearGradient id="paint5_linear_321_87" x1="87.8535" y1="153.709" x2="112.533" y2="151.55" gradientUnits="userSpaceOnUse">
<stop stop-color="#E7F4FF"/>
<stop offset="1" stop-color="#BAE0FF"/>
</linearGradient>
<linearGradient id="paint6_linear_321_87" x1="144.529" y1="169.13" x2="144.529" y2="229.029" gradientUnits="userSpaceOnUse">
<stop stop-color="#451E0A"/>
<stop offset="1" stop-color="#270D00"/>
</linearGradient>
<linearGradient id="paint7_linear_321_87" x1="87.8535" y1="153.709" x2="121.005" y2="150.808" gradientUnits="userSpaceOnUse">
<stop stop-color="#E7F4FF"/>
<stop offset="1" stop-color="#419DE8"/>
</linearGradient>
<linearGradient id="paint8_linear_321_87" x1="144.529" y1="169.13" x2="144.529" y2="229.029" gradientUnits="userSpaceOnUse">
<stop stop-color="#451E0A"/>
<stop offset="1" stop-color="#270D00"/>
</linearGradient>
<linearGradient id="paint9_linear_321_87" x1="150.491" y1="170.587" x2="150.491" y2="206.083" gradientUnits="userSpaceOnUse">
<stop stop-color="#A91C00"/>
<stop offset="1" stop-color="#430B00"/>
</linearGradient>
<linearGradient id="paint10_linear_321_87" x1="134.215" y1="118.187" x2="132.231" y2="149.321" gradientUnits="userSpaceOnUse">
<stop stop-color="#89B1D1"/>
<stop offset="1" stop-color="#2E5D84"/>
</linearGradient>
<linearGradient id="paint11_linear_321_87" x1="166.076" y1="101.635" x2="163.032" y2="117.333" gradientUnits="userSpaceOnUse">
<stop stop-color="#93BFE3"/>
<stop offset="1" stop-color="#1279CE"/>
</linearGradient>
<linearGradient id="paint12_linear_321_87" x1="104.327" y1="100.533" x2="107.371" y2="116.232" gradientUnits="userSpaceOnUse">
<stop stop-color="#93BFE3"/>
<stop offset="1" stop-color="#1279CE"/>
</linearGradient>
</defs>
</svg>
