<svg width="680" height="670" viewBox="0 0 680 670" fill="none" xmlns="http://www.w3.org/2000/svg">
<g filter="url(#filter0_d_153_2311)">
<path d="M320.671 314.774C336.433 299.956 340.669 255.94 341.53 237.798L317.562 231.819L276.966 319.507C284.967 324.104 304.909 329.592 320.671 314.774Z" fill="#D9D9D9"/>
<path d="M320.671 314.774C336.433 299.956 340.669 255.94 341.53 237.798L317.562 231.819L276.966 319.507C284.967 324.104 304.909 329.592 320.671 314.774Z" fill="url(#paint0_linear_153_2311)"/>
<path d="M290.567 170.008C265.215 183.209 241.777 207.502 237.614 220.043C237.508 220.364 237.908 220.519 238.092 220.235C247.949 205.078 275.73 182.027 290.876 170.483C291.166 170.262 290.89 169.84 290.567 170.008Z" fill="white"/>
<path d="M296.72 176.424C279.163 190.842 270.218 212.667 267.34 224.026C267.253 224.368 267.7 224.515 267.855 224.197C279.413 200.447 288.41 187.422 297.111 176.824C297.338 176.547 296.996 176.197 296.72 176.424Z" fill="white"/>
<path d="M302.661 180.461C291.373 194.119 290.715 210.17 292.027 218.027C292.081 218.355 292.519 218.339 292.568 218.011C294.951 202.077 298.784 189.89 303.142 180.775C303.293 180.459 302.885 180.191 302.661 180.461Z" fill="white"/>
<path d="M237.112 153.795C249.023 121.728 260.434 112.933 283.199 109.491C315.899 104.546 345.316 136.678 349.091 166.493C354.331 194.108 348.653 219.614 344.392 235.176C301.141 360.405 216.643 374.332 161.767 360.6C141.4 355.504 116.617 349.655 105.305 364.895C70.4831 411.812 63.8045 408.931 58.5564 405.502C53.3082 402.072 61.7657 393.002 56.294 386.493C51.9166 381.286 51.138 376.233 51.296 374.358C54.0405 363.556 44.6797 364.237 44.7957 353.684C44.9117 343.131 37.3392 348.19 38.2331 340.25C39.127 332.311 30.9643 333.292 28.4518 322.988C26.4418 314.745 48.8809 320.844 60.3517 324.924C63.1143 326.522 70.9677 327.762 80.28 319.934C89.5922 312.105 108.133 317.43 116.239 321.071C135.622 312.618 139.091 307.742 157.534 286.356C175.978 264.97 178.137 230.151 203.305 212.262C228.472 194.372 228.994 175.648 237.112 153.795Z" fill="url(#paint1_linear_153_2311)"/>
<path d="M37.9316 339.135C54.7514 335.763 65.7704 331.934 90.2595 339.673C83.7036 332.797 58.5998 326.612 37.9316 339.135Z" fill="url(#paint2_linear_153_2311)"/>
<path d="M45.857 360.462C59.538 354.723 68.2715 349.593 89.9802 351.936C83.4889 347.246 61.4825 346.322 45.857 360.462Z" fill="url(#paint3_linear_153_2311)"/>
<path d="M52.9247 379.746C65.4896 372.29 73.7234 366.132 92.0006 365.217C87.1141 361.686 68.3758 363.998 52.9247 379.746Z" fill="url(#paint4_linear_153_2311)"/>
<mask id="mask0_153_2311" style="mask-type:alpha" maskUnits="userSpaceOnUse" x="28" y="108" width="324" height="300">
<path d="M237.112 153.795C249.023 121.728 260.434 112.933 283.199 109.491C315.899 104.546 345.316 136.678 349.091 166.493C354.331 194.108 348.653 219.614 344.392 235.176C301.141 360.405 216.643 374.332 161.767 360.6C141.4 355.504 116.617 349.655 105.305 364.895C70.4831 411.812 63.8045 408.931 58.5564 405.502C53.3082 402.072 61.7657 393.002 56.294 386.493C51.9166 381.286 51.138 376.233 51.296 374.358C54.0405 363.556 44.6797 364.237 44.7957 353.684C44.9117 343.131 37.3392 348.19 38.2331 340.25C39.127 332.311 30.9643 333.292 28.4518 322.988C26.4418 314.745 48.8809 320.844 60.3517 324.924C63.1143 326.522 70.9677 327.762 80.28 319.934C89.5922 312.105 108.133 317.43 116.239 321.071C135.622 312.618 139.091 307.742 157.534 286.356C175.978 264.97 178.137 230.151 203.305 212.262C228.472 194.372 228.994 175.648 237.112 153.795Z" fill="url(#paint5_linear_153_2311)"/>
</mask>
<g mask="url(#mask0_153_2311)">
<path d="M273.453 261.713C324.688 194.606 348.383 188.708 353.827 194.148C389.357 223.721 459.449 284.204 455.579 289.547C450.742 296.226 274.541 425.405 265.904 426.787C257.268 428.168 64.932 452.682 133.996 405.075C203.06 357.468 209.411 345.597 273.453 261.713Z" fill="url(#paint6_linear_153_2311)"/>
<circle cx="17.5" cy="17.5" r="17.5" transform="matrix(-0.765463 0.64348 0.64348 0.765463 270.021 158.848)" fill="url(#paint7_radial_153_2311)" fill-opacity="0.43"/>
<circle cx="13.5" cy="13.5" r="13.5" transform="matrix(-0.765463 0.64348 0.64348 0.765463 349.169 155.848)" fill="url(#paint8_radial_153_2311)" fill-opacity="0.43"/>
</g>
<path d="M328.799 179.066C329.012 183.921 326.47 191.339 314.601 182.178C316.501 180.212 321.999 176.838 328.799 179.066Z" fill="url(#paint9_linear_153_2311)"/>
<path d="M337.077 175.36C336.974 167.86 327.776 166.876 323.19 167.321C305.028 168.526 305.932 178.655 309.422 182.052C312.913 185.448 319.352 180.577 324.901 180.501C330.034 180.431 337.205 184.734 337.077 175.36Z" fill="#D9D9D9"/>
<path d="M337.077 175.36C336.974 167.86 327.776 166.876 323.19 167.321C305.028 168.526 305.932 178.655 309.422 182.052C312.913 185.448 319.352 180.577 324.901 180.501C330.034 180.431 337.205 184.734 337.077 175.36Z" fill="url(#paint10_linear_153_2311)"/>
<circle cx="316.724" cy="170.28" r="0.765329" transform="rotate(-0.782279 316.724 170.28)" fill="#0A3E69" fill-opacity="0.51"/>
<circle cx="313.684" cy="171.852" r="1.14799" transform="rotate(-0.782279 313.684 171.852)" fill="#0A3E69" fill-opacity="0.51"/>
<circle cx="316.389" cy="173.729" r="1.14799" transform="rotate(-0.782279 316.389 173.729)" fill="#0A3E69" fill-opacity="0.51"/>
<circle cx="0.765329" cy="0.765329" r="0.765329" transform="matrix(-0.999907 0.0136529 0.0136529 0.999907 330.499 170.092)" fill="#0A3E69" fill-opacity="0.51"/>
<circle cx="1.14799" cy="1.14799" r="1.14799" transform="matrix(-0.999907 0.0136529 0.0136529 0.999907 333.959 171.193)" fill="#0A3E69" fill-opacity="0.51"/>
<circle cx="1.14799" cy="1.14799" r="1.14799" transform="matrix(-0.999907 0.0136529 0.0136529 0.999907 331.306 173.142)" fill="#0A3E69" fill-opacity="0.51"/>
<path d="M286.634 152.704C294.679 147.695 303.456 151.517 302.23 159.762C300.084 170.813 289.822 171.285 284.958 170.139C276.698 167.765 278.589 157.712 286.634 152.704Z" fill="#093D68"/>
<path d="M340.718 147.756C347.298 149.495 351.972 161.851 345.815 165.061C345.766 165.087 345.711 165.109 345.657 165.125C338.389 167.293 334.065 160.653 332.809 157.048C331.582 151.325 334.112 146.009 340.718 147.756Z" fill="#093D68"/>
<path d="M316.051 165.381C315.358 162.198 330.535 162.001 330.069 165.221C330.06 165.281 330.04 165.34 330.015 165.396C328.82 168.119 326.05 173.525 324.238 174.004C322.428 174.483 318.136 168.67 316.151 165.606C316.106 165.538 316.068 165.461 316.051 165.381Z" fill="#093D68"/>
<g filter="url(#filter1_f_153_2311)">
<path d="M290.496 167.855C300.05 164.171 299.589 156.624 298.163 153.312C294.993 163.662 286.462 165.467 282.593 165.075C284.621 168.069 288.707 168.176 290.496 167.855Z" fill="url(#paint11_linear_153_2311)" fill-opacity="0.31"/>
</g>
<g filter="url(#filter2_f_153_2311)">
<path d="M340.315 162.556C333.338 158.451 334.672 152.633 336.211 150.237C337.349 158.708 343.77 161.217 346.839 161.412C344.871 163.482 341.67 163.037 340.315 162.556Z" fill="url(#paint12_linear_153_2311)" fill-opacity="0.31"/>
</g>
<g filter="url(#filter3_f_153_2311)">
<circle cx="2.10466" cy="2.10466" r="2.10466" transform="matrix(-0.999907 0.0136529 0.0136529 0.999907 300.047 154.051)" fill="white"/>
</g>
<g filter="url(#filter4_f_153_2311)">
<circle cx="0.765329" cy="0.765329" r="0.765329" transform="matrix(-0.999907 0.0136529 0.0136529 0.999907 295.895 158.318)" fill="white"/>
</g>
<g filter="url(#filter5_f_153_2311)">
<circle cx="0.765329" cy="0.765329" r="0.765329" transform="matrix(-0.999907 0.0136529 0.0136529 0.999907 339.116 156.579)" fill="white"/>
</g>
<g filter="url(#filter6_f_153_2311)">
<circle cx="2.10466" cy="2.10466" r="2.10466" transform="matrix(-0.999907 0.0136529 0.0136529 0.999907 339.038 150.84)" fill="white"/>
</g>
<ellipse cx="340.419" cy="142.426" rx="4.5539" ry="2.24512" transform="rotate(16.0533 340.419 142.426)" fill="#93BFE3"/>
<ellipse cx="4.5539" cy="2.24512" rx="4.5539" ry="2.24512" transform="matrix(-0.953096 0.302667 0.302667 0.953096 296.273 141.091)" fill="#93BFE3"/>
<path d="M298.134 172.653C286.526 172.198 273.838 175.366 268.839 178.769C268.56 178.96 268.77 179.28 269.082 179.149C276.201 176.141 289.761 174.1 298.146 173.184C298.508 173.144 298.497 172.668 298.134 172.653Z" fill="white"/>
<path d="M299.248 176.862C290.633 178.451 283.306 183.433 279.394 186.92C279.13 187.155 279.402 187.491 279.702 187.304C288.242 181.967 294.157 179.253 299.37 177.364C299.706 177.242 299.6 176.798 299.248 176.862Z" fill="white"/>
<path d="M300.848 179.99C294.666 182.505 291.078 187.339 289.55 190.525C289.406 190.825 289.759 191.031 289.976 190.779C293.974 186.136 297.721 182.806 301.089 180.48C301.378 180.281 301.173 179.858 300.848 179.99Z" fill="white"/>
<path d="M337.294 172.383C348.272 168.585 361.334 167.944 367.104 169.754C367.427 169.855 367.319 170.223 366.982 170.187C359.297 169.37 345.727 171.343 337.436 172.894C337.078 172.961 336.95 172.502 337.294 172.383Z" fill="white"/>
<path d="M337.447 176.734C346.153 175.76 354.609 178.407 359.363 180.612C359.684 180.761 359.52 181.161 359.179 181.068C349.46 178.433 343.012 177.548 337.475 177.249C337.118 177.23 337.091 176.774 337.447 176.734Z" fill="white"/>
<path d="M336.82 180.191C343.466 180.808 348.301 184.396 350.685 187.003C350.91 187.248 350.632 187.548 350.352 187.37C345.18 184.083 340.629 181.981 336.731 180.73C336.398 180.623 336.471 180.159 336.82 180.191Z" fill="white"/>
<g filter="url(#filter7_d_153_2311)">
<path d="M264.001 436.892L381.482 259.723L444.321 278.721L342.549 450.588L323.424 413.033L264.001 436.892Z" fill="url(#paint13_linear_153_2311)"/>
</g>
<g filter="url(#filter8_d_153_2311)">
<path d="M540.001 436.892L422.519 259.723L359.681 278.721L461.452 450.588L480.577 413.033L540.001 436.892Z" fill="url(#paint14_linear_153_2311)"/>
</g>
<path d="M284.241 420.195L376.548 280.277L425.921 295.281L345.958 431.012L330.931 401.354L284.241 420.195Z" fill="url(#paint15_linear_153_2311)"/>
<path d="M520.68 420.195L428.374 280.277L379 295.281L458.964 431.012L473.99 401.354L520.68 420.195Z" fill="url(#paint16_linear_153_2311)"/>
<g filter="url(#filter9_d_153_2311)">
<circle cx="402.114" cy="260.836" r="94.1138" fill="url(#paint17_linear_153_2311)"/>
<circle cx="402.114" cy="260.836" r="75.0908" fill="url(#paint18_linear_153_2311)" fill-opacity="0.64"/>
<g filter="url(#filter10_f_153_2311)">
<path d="M373.462 215.782C348.684 223.291 328.144 250.402 345.18 286.482C347.683 260.336 345.18 243.816 373.462 215.782Z" fill="white" fill-opacity="0.81"/>
</g>
<g filter="url(#filter11_f_153_2311)">
<path d="M426.144 318.907C451.607 314.225 475.06 289.59 462.179 251.826C456.758 277.526 457.392 294.223 426.144 318.907Z" fill="white" fill-opacity="0.81"/>
</g>
<path opacity="0.73" d="M347.555 278.188C348.802 277.198 349.37 276.739 349.26 276.813C352.853 273.843 355.677 271.404 357.73 269.498C359.82 267.591 361.58 265.593 363.01 263.503C364.44 261.413 365.155 259.378 365.155 257.398C365.155 255.894 364.807 254.721 364.11 253.878C363.413 253.034 362.368 252.613 360.975 252.613C359.582 252.613 358.482 253.144 357.675 254.208C356.905 255.234 356.52 256.701 356.52 258.608H347.445C347.518 255.491 348.178 252.888 349.425 250.798C350.708 248.708 352.377 247.168 354.43 246.178C356.52 245.188 358.83 244.693 361.36 244.693C365.723 244.693 369.005 245.811 371.205 248.048C373.442 250.284 374.56 253.199 374.56 256.793C374.56 260.716 373.222 264.364 370.545 267.738C367.868 271.074 364.458 274.338 360.315 277.528H375.165V285.173H347.555V278.188ZM414.781 285.723H405.376L389.646 261.908V285.723H380.241V247.113H389.646L405.376 271.038V247.113H414.781V285.723ZM436.063 247.113C440.133 247.113 443.69 247.919 446.733 249.533C449.777 251.146 452.123 253.419 453.773 256.353C455.46 259.249 456.303 262.604 456.303 266.418C456.303 270.194 455.46 273.549 453.773 276.483C452.123 279.416 449.758 281.689 446.678 283.303C443.635 284.916 440.097 285.723 436.063 285.723H421.598V247.113H436.063ZM435.458 277.583C439.015 277.583 441.783 276.611 443.763 274.668C445.743 272.724 446.733 269.974 446.733 266.418C446.733 262.861 445.743 260.093 443.763 258.113C441.783 256.133 439.015 255.143 435.458 255.143H431.003V277.583H435.458Z" fill="#575757"/>
</g>
<path d="M94.0789 372.352C82.1492 380.787 74.1999 387.53 57.8763 390.3C61.8491 393.17 78.7269 389.017 94.0789 372.352Z" fill="url(#paint19_linear_153_2311)"/>
<path d="M266.506 227.701C234.891 298.861 277.195 323.743 302.299 327.289C333.974 326.275 349.93 316.29 338.062 303.863C325.721 290.942 305.758 271.144 300.904 261.98C296.05 252.817 284.164 241.956 282.386 230.795C280.963 221.866 277.18 217.706 275.466 216.742C273.136 216.732 268.522 224.044 266.506 227.701Z" fill="url(#paint20_linear_153_2311)"/>
<path d="M221.279 216.74C219.241 207.479 203.19 223.455 195.419 232.6C181.857 249.879 189.912 247.028 189.535 263.674C189.158 280.321 207.868 269.165 207.912 264.556C207.956 259.946 228.275 250.704 217.813 244.475C207.351 238.246 223.825 228.317 221.279 216.74Z" fill="#A7C7E1" fill-opacity="0.39"/>
<path d="M181.22 265.439C176.502 264.179 175.224 270.479 175.174 273.787C175.773 279.162 180 279.528 184.01 274.197C188.02 268.867 187.116 267.014 181.22 265.439Z" fill="#A7C7E1" fill-opacity="0.23"/>
<path d="M207.214 280.82C210.2 272.561 191.962 282.102 182.469 287.904C160.387 298.156 188.172 304.012 190.374 294.976C192.576 285.94 202.461 307.024 207.342 295.736C212.223 284.447 203.481 291.143 207.214 280.82Z" fill="#A7C7E1" fill-opacity="0.22"/>
<path d="M168.214 292.703C163.128 289.14 156.399 299.369 153.67 304.929C147.763 315.773 159.495 319.628 163.966 317.176C168.436 314.724 165.141 307.696 163.715 303.669C162.29 299.642 174.571 297.157 168.214 292.703Z" fill="#A7C7E1" fill-opacity="0.39"/>
<path d="M238.292 212.89C236.943 208.798 232.064 213.77 229.794 216.768C223.704 229.726 238.481 227.101 236.09 221.926C233.699 216.751 239.978 218.004 238.292 212.89Z" fill="#A7C7E1" fill-opacity="0.13"/>
<path d="M150.303 320.823C150.178 315.702 142.226 318.467 138.266 320.49C134.056 324.029 138.482 326.187 134.306 337.536C130.129 348.886 181.782 332.246 172.851 324.73C163.92 317.214 150.458 327.224 150.303 320.823Z" fill="#A7C7E1" fill-opacity="0.25"/>
</g>
<defs>
<filter id="filter0_d_153_2311" x="9.72488" y="94.3838" width="548.876" height="378.804" filterUnits="userSpaceOnUse" color-interpolation-filters="sRGB">
<feFlood flood-opacity="0" result="BackgroundImageFix"/>
<feColorMatrix in="SourceAlpha" type="matrix" values="0 0 0 0 0 0 0 0 0 0 0 0 0 0 0 0 0 0 127 0" result="hardAlpha"/>
<feOffset dy="4"/>
<feGaussianBlur stdDeviation="9.3"/>
<feComposite in2="hardAlpha" operator="out"/>
<feColorMatrix type="matrix" values="0 0 0 0 0 0 0 0 0 0 0 0 0 0 0 0 0 0 0.22 0"/>
<feBlend mode="normal" in2="BackgroundImageFix" result="effect1_dropShadow_153_2311"/>
<feBlend mode="normal" in="SourceGraphic" in2="effect1_dropShadow_153_2311" result="shape"/>
</filter>
<filter id="filter1_f_153_2311" x="278.593" y="149.312" width="24.3486" height="22.6671" filterUnits="userSpaceOnUse" color-interpolation-filters="sRGB">
<feFlood flood-opacity="0" result="BackgroundImageFix"/>
<feBlend mode="normal" in="SourceGraphic" in2="BackgroundImageFix" result="shape"/>
<feGaussianBlur stdDeviation="2" result="effect1_foregroundBlur_153_2311"/>
</filter>
<filter id="filter2_f_153_2311" x="330.98" y="146.237" width="19.8594" height="20.722" filterUnits="userSpaceOnUse" color-interpolation-filters="sRGB">
<feFlood flood-opacity="0" result="BackgroundImageFix"/>
<feBlend mode="normal" in="SourceGraphic" in2="BackgroundImageFix" result="shape"/>
<feGaussianBlur stdDeviation="2" result="effect1_foregroundBlur_153_2311"/>
</filter>
<filter id="filter3_f_153_2311" x="291.966" y="150.18" width="12.01" height="12.0094" filterUnits="userSpaceOnUse" color-interpolation-filters="sRGB">
<feFlood flood-opacity="0" result="BackgroundImageFix"/>
<feBlend mode="normal" in="SourceGraphic" in2="BackgroundImageFix" result="shape"/>
<feGaussianBlur stdDeviation="1.95" result="effect1_foregroundBlur_153_2311"/>
</filter>
<filter id="filter4_f_153_2311" x="290.475" y="154.428" width="9.33125" height="9.33064" filterUnits="userSpaceOnUse" color-interpolation-filters="sRGB">
<feFlood flood-opacity="0" result="BackgroundImageFix"/>
<feBlend mode="normal" in="SourceGraphic" in2="BackgroundImageFix" result="shape"/>
<feGaussianBlur stdDeviation="1.95" result="effect1_foregroundBlur_153_2311"/>
</filter>
<filter id="filter5_f_153_2311" x="333.695" y="152.69" width="9.33125" height="9.33064" filterUnits="userSpaceOnUse" color-interpolation-filters="sRGB">
<feFlood flood-opacity="0" result="BackgroundImageFix"/>
<feBlend mode="normal" in="SourceGraphic" in2="BackgroundImageFix" result="shape"/>
<feGaussianBlur stdDeviation="1.95" result="effect1_foregroundBlur_153_2311"/>
</filter>
<filter id="filter6_f_153_2311" x="330.957" y="146.969" width="12.01" height="12.0094" filterUnits="userSpaceOnUse" color-interpolation-filters="sRGB">
<feFlood flood-opacity="0" result="BackgroundImageFix"/>
<feBlend mode="normal" in="SourceGraphic" in2="BackgroundImageFix" result="shape"/>
<feGaussianBlur stdDeviation="1.95" result="effect1_foregroundBlur_153_2311"/>
</filter>
<filter id="filter7_d_153_2311" x="253.901" y="253.623" width="216.52" height="227.065" filterUnits="userSpaceOnUse" color-interpolation-filters="sRGB">
<feFlood flood-opacity="0" result="BackgroundImageFix"/>
<feColorMatrix in="SourceAlpha" type="matrix" values="0 0 0 0 0 0 0 0 0 0 0 0 0 0 0 0 0 0 127 0" result="hardAlpha"/>
<feOffset dx="8" dy="12"/>
<feGaussianBlur stdDeviation="9.05"/>
<feComposite in2="hardAlpha" operator="out"/>
<feColorMatrix type="matrix" values="0 0 0 0 0 0 0 0 0 0 0 0 0 0 0 0 0 0 0.13 0"/>
<feBlend mode="normal" in2="BackgroundImageFix" result="effect1_dropShadow_153_2311"/>
<feBlend mode="normal" in="SourceGraphic" in2="effect1_dropShadow_153_2311" result="shape"/>
</filter>
<filter id="filter8_d_153_2311" x="349.58" y="253.623" width="216.52" height="227.065" filterUnits="userSpaceOnUse" color-interpolation-filters="sRGB">
<feFlood flood-opacity="0" result="BackgroundImageFix"/>
<feColorMatrix in="SourceAlpha" type="matrix" values="0 0 0 0 0 0 0 0 0 0 0 0 0 0 0 0 0 0 127 0" result="hardAlpha"/>
<feOffset dx="8" dy="12"/>
<feGaussianBlur stdDeviation="9.05"/>
<feComposite in2="hardAlpha" operator="out"/>
<feColorMatrix type="matrix" values="0 0 0 0 0 0 0 0 0 0 0 0 0 0 0 0 0 0 0.13 0"/>
<feBlend mode="normal" in2="BackgroundImageFix" result="effect1_dropShadow_153_2311"/>
<feBlend mode="normal" in="SourceGraphic" in2="effect1_dropShadow_153_2311" result="shape"/>
</filter>
<filter id="filter9_d_153_2311" x="297.901" y="160.623" width="224.428" height="224.428" filterUnits="userSpaceOnUse" color-interpolation-filters="sRGB">
<feFlood flood-opacity="0" result="BackgroundImageFix"/>
<feColorMatrix in="SourceAlpha" type="matrix" values="0 0 0 0 0 0 0 0 0 0 0 0 0 0 0 0 0 0 127 0" result="hardAlpha"/>
<feOffset dx="8" dy="12"/>
<feGaussianBlur stdDeviation="9.05"/>
<feComposite in2="hardAlpha" operator="out"/>
<feColorMatrix type="matrix" values="0 0 0 0 0 0 0 0 0 0 0 0 0 0 0 0 0 0 0.13 0"/>
<feBlend mode="normal" in2="BackgroundImageFix" result="effect1_dropShadow_153_2311"/>
<feBlend mode="normal" in="SourceGraphic" in2="effect1_dropShadow_153_2311" result="shape"/>
</filter>
<filter id="filter10_f_153_2311" x="329.424" y="206.282" width="53.5371" height="89.7004" filterUnits="userSpaceOnUse" color-interpolation-filters="sRGB">
<feFlood flood-opacity="0" result="BackgroundImageFix"/>
<feBlend mode="normal" in="SourceGraphic" in2="BackgroundImageFix" result="shape"/>
<feGaussianBlur stdDeviation="4.75" result="effect1_foregroundBlur_153_2311"/>
</filter>
<filter id="filter11_f_153_2311" x="416.643" y="242.326" width="58.6807" height="86.0811" filterUnits="userSpaceOnUse" color-interpolation-filters="sRGB">
<feFlood flood-opacity="0" result="BackgroundImageFix"/>
<feBlend mode="normal" in="SourceGraphic" in2="BackgroundImageFix" result="shape"/>
<feGaussianBlur stdDeviation="4.75" result="effect1_foregroundBlur_153_2311"/>
</filter>
<linearGradient id="paint0_linear_153_2311" x1="293.61" y1="230.002" x2="335.529" y2="304.628" gradientUnits="userSpaceOnUse">
<stop offset="0.488991" stop-color="#7BB2DF"/>
<stop offset="1" stop-color="#EFF8FF"/>
</linearGradient>
<linearGradient id="paint1_linear_153_2311" x1="169.99" y1="197.648" x2="267.236" y2="349.631" gradientUnits="userSpaceOnUse">
<stop stop-color="#EFF8FF"/>
<stop offset="1" stop-color="#7BB2DF"/>
</linearGradient>
<linearGradient id="paint2_linear_153_2311" x1="42.5682" y1="345.533" x2="69.5984" y2="315.958" gradientUnits="userSpaceOnUse">
<stop stop-color="#D9E9F6"/>
<stop offset="0.471154" stop-color="#93BFE3"/>
<stop offset="0.823877" stop-color="#1B5381"/>
</linearGradient>
<linearGradient id="paint3_linear_153_2311" x1="50.6652" y1="365.078" x2="69.0887" y2="335.333" gradientUnits="userSpaceOnUse">
<stop stop-color="#D9E9F6"/>
<stop offset="0.471154" stop-color="#93BFE3"/>
<stop offset="0.823877" stop-color="#1B5381"/>
</linearGradient>
<linearGradient id="paint4_linear_153_2311" x1="56.3785" y1="383.45" x2="74.9187" y2="351.503" gradientUnits="userSpaceOnUse">
<stop stop-color="#D9E9F6"/>
<stop offset="0.471154" stop-color="#93BFE3"/>
<stop offset="0.823877" stop-color="#1B5381"/>
</linearGradient>
<linearGradient id="paint5_linear_153_2311" x1="249.36" y1="229.703" x2="227.2" y2="426.008" gradientUnits="userSpaceOnUse">
<stop stop-color="#EFF8FF"/>
<stop offset="1" stop-color="#ABC3D7"/>
</linearGradient>
<linearGradient id="paint6_linear_153_2311" x1="380.631" y1="368.228" x2="288.149" y2="186.411" gradientUnits="userSpaceOnUse">
<stop stop-color="#D9E9F6"/>
<stop offset="1" stop-color="#1B5381" stop-opacity="0.780392"/>
</linearGradient>
<radialGradient id="paint7_radial_153_2311" cx="0" cy="0" r="1" gradientUnits="userSpaceOnUse" gradientTransform="translate(17.5 17.5) rotate(90) scale(17.5)">
<stop stop-color="#FFAFAF"/>
<stop offset="1" stop-color="#FFAFAF" stop-opacity="0"/>
</radialGradient>
<radialGradient id="paint8_radial_153_2311" cx="0" cy="0" r="1" gradientUnits="userSpaceOnUse" gradientTransform="translate(13.5 13.5) rotate(90) scale(13.5)">
<stop stop-color="#FFAFAF"/>
<stop offset="1" stop-color="#FFAFAF" stop-opacity="0"/>
</radialGradient>
<linearGradient id="paint9_linear_153_2311" x1="321.402" y1="178.608" x2="322.609" y2="186.765" gradientUnits="userSpaceOnUse">
<stop stop-color="#D7567D"/>
<stop offset="1" stop-color="#FFBBCF"/>
</linearGradient>
<linearGradient id="paint10_linear_153_2311" x1="322.406" y1="167.492" x2="322.618" y2="183.052" gradientUnits="userSpaceOnUse">
<stop stop-color="#89B1D1"/>
<stop offset="1" stop-color="#2E5D84"/>
</linearGradient>
<linearGradient id="paint11_linear_153_2311" x1="290.662" y1="153.414" x2="290.86" y2="167.954" gradientUnits="userSpaceOnUse">
<stop stop-color="#93BFE3"/>
<stop offset="1" stop-color="#1279CE"/>
</linearGradient>
<linearGradient id="paint12_linear_153_2311" x1="342.05" y1="151.287" x2="340.019" y2="162.585" gradientUnits="userSpaceOnUse">
<stop stop-color="#93BFE3"/>
<stop offset="1" stop-color="#1279CE"/>
</linearGradient>
<linearGradient id="paint13_linear_153_2311" x1="354.161" y1="259.723" x2="354.161" y2="450.588" gradientUnits="userSpaceOnUse">
<stop stop-color="#FFBE6C"/>
<stop offset="1" stop-color="#FFFFAD"/>
</linearGradient>
<linearGradient id="paint14_linear_153_2311" x1="449.841" y1="259.723" x2="449.841" y2="450.588" gradientUnits="userSpaceOnUse">
<stop stop-color="#FFBE6C"/>
<stop offset="1" stop-color="#FFFFAD"/>
</linearGradient>
<linearGradient id="paint15_linear_153_2311" x1="355.081" y1="280.277" x2="355.081" y2="431.012" gradientUnits="userSpaceOnUse">
<stop stop-color="#D7567D"/>
<stop offset="1" stop-color="#FF8AB4"/>
</linearGradient>
<linearGradient id="paint16_linear_153_2311" x1="449.84" y1="280.277" x2="449.84" y2="431.012" gradientUnits="userSpaceOnUse">
<stop stop-color="#D7567D"/>
<stop offset="1" stop-color="#FF8AB4"/>
</linearGradient>
<linearGradient id="paint17_linear_153_2311" x1="402.114" y1="166.723" x2="402.114" y2="354.95" gradientUnits="userSpaceOnUse">
<stop stop-color="#BCBCBC"/>
<stop offset="1" stop-color="#818181"/>
</linearGradient>
<linearGradient id="paint18_linear_153_2311" x1="402.114" y1="185.746" x2="402.114" y2="335.927" gradientUnits="userSpaceOnUse">
<stop stop-color="white"/>
<stop offset="1" stop-color="#AFAFAF"/>
</linearGradient>
<linearGradient id="paint19_linear_153_2311" x1="78.2146" y1="375.253" x2="66.6155" y2="400.652" gradientUnits="userSpaceOnUse">
<stop offset="0.176123" stop-color="#1B5381"/>
<stop offset="0.528846" stop-color="#93BFE3"/>
<stop offset="1" stop-color="#D9E9F6"/>
</linearGradient>
<linearGradient id="paint20_linear_153_2311" x1="315.824" y1="303.474" x2="242.733" y2="227.28" gradientUnits="userSpaceOnUse">
<stop stop-color="#EFF8FF"/>
<stop offset="0.97014" stop-color="#7BB2DF"/>
</linearGradient>
</defs>
</svg>
