<svg width="1200" height="1899" viewBox="0 0 1200 1899" fill="none" xmlns="http://www.w3.org/2000/svg">
<path d="M1200 1860.72L0 1898.04V1182.04C53.9032 1156.32 135.571 1106.43 200.5 1028.64C301.5 907.645 453.636 889.294 653 945.645C909.5 1018.14 1086.91 994.281 1066 883.145C994.5 503.144 1139.5 531.645 1166 383.645C1192.5 235.645 1032.5 241.645 1032.5 199.145C1032.5 138.603 1123.91 270.636 1166 217.145C1214 156.145 1120.33 36.0958 1184 5.64453C1190.84 2.37306 1196.06 0.582684 1200 0V1860.72Z" fill="#D9D9D9"/>
<path d="M1200 1860.72L0 1898.04V1182.04C53.9032 1156.32 135.571 1106.43 200.5 1028.64C301.5 907.645 453.636 889.294 653 945.645C909.5 1018.14 1086.91 994.281 1066 883.145C994.5 503.144 1139.5 531.645 1166 383.645C1192.5 235.645 1032.5 241.645 1032.5 199.145C1032.5 138.603 1123.91 270.636 1166 217.145C1214 156.145 1120.33 36.0958 1184 5.64453C1190.84 2.37306 1196.06 0.582684 1200 0V1860.72Z" fill="url(#paint0_linear_245_1212)"/>
<g opacity="0.9">
<circle cx="458.5" cy="1663.14" r="38.5" fill="url(#paint1_linear_245_1212)"/>
<g filter="url(#filter0_f_245_1212)">
<path d="M484.511 1680.09C483.926 1642.21 475.433 1632.1 448.742 1635.35C462.953 1642.06 480.564 1639.26 484.511 1680.09Z" fill="white"/>
</g>
<g filter="url(#filter1_f_245_1212)">
<path d="M438.462 1640.13C430.985 1677.27 437.135 1688.95 463.908 1691.44C451.448 1681.87 433.644 1680.86 438.462 1640.13Z" fill="white"/>
</g>
<g filter="url(#filter2_f_245_1212)">
<path d="M438.557 1639.91C431.079 1677.05 437.23 1688.74 464.003 1691.23C451.543 1681.65 433.738 1680.65 438.557 1639.91Z" fill="url(#paint2_linear_245_1212)"/>
</g>
<g filter="url(#filter3_f_245_1212)">
<circle cx="472.728" cy="1674.03" r="10.8804" fill="white"/>
</g>
</g>
<g opacity="0.9">
<circle cx="535" cy="1694.64" r="21" fill="url(#paint3_linear_245_1212)"/>
<g filter="url(#filter4_f_245_1212)">
<path d="M549.188 1703.89C548.869 1683.22 544.236 1677.71 529.677 1679.48C537.429 1683.15 547.035 1681.62 549.188 1703.89Z" fill="white"/>
</g>
<g filter="url(#filter5_f_245_1212)">
<path d="M524.07 1682.09C519.991 1702.35 523.346 1708.72 537.95 1710.08C531.153 1704.86 521.442 1704.31 524.07 1682.09Z" fill="white"/>
</g>
<g filter="url(#filter6_f_245_1212)">
<path d="M524.122 1681.97C520.043 1702.23 523.398 1708.6 538.002 1709.96C531.205 1704.74 521.494 1704.19 524.122 1681.97Z" fill="url(#paint4_linear_245_1212)"/>
</g>
<g filter="url(#filter7_f_245_1212)">
<circle cx="542.761" cy="1700.58" r="5.93478" fill="white"/>
</g>
</g>
<g opacity="0.9">
<circle cx="1060" cy="958.645" r="60" fill="url(#paint5_linear_245_1212)"/>
<g filter="url(#filter8_f_245_1212)">
<path d="M1100.54 985.048C1099.62 926.015 1086.39 910.258 1044.79 915.33C1066.94 925.79 1094.39 921.421 1100.54 985.048Z" fill="white"/>
</g>
<g filter="url(#filter9_f_245_1212)">
<path d="M1028.77 922.775C1017.12 980.654 1026.7 998.863 1068.43 1002.75C1049.01 987.82 1021.26 986.256 1028.77 922.775Z" fill="white"/>
</g>
<g filter="url(#filter10_f_245_1212)">
<path d="M1028.92 922.439C1017.27 980.318 1026.85 998.527 1068.58 1002.41C1049.16 987.483 1021.41 985.92 1028.92 922.439Z" fill="url(#paint6_linear_245_1212)"/>
</g>
<g filter="url(#filter11_f_245_1212)">
<circle cx="1082.17" cy="975.601" r="16.9565" fill="white"/>
</g>
</g>
<g opacity="0.6" filter="url(#filter12_f_245_1212)">
<path d="M151.156 1181.42C151.544 1182.02 151.93 1182.52 152.314 1182.93C155.911 1180.6 167.241 1149.66 183.821 1123.57C203.089 1079.87 235.302 1023.6 296.03 993.934C393.279 946.43 459.485 936.396 574.117 963.308C657.634 982.914 718.509 1063.87 853.917 1073.74C790.455 1080.38 566.581 978.716 427.713 1008.71C346.535 1035.51 287.383 1106.25 238.256 1088.79C217.162 1081.3 198.448 1100.54 183.821 1123.57C166.792 1162.18 159.873 1190.99 152.314 1182.93C151.694 1183.34 151.303 1182.89 151.156 1181.42Z" fill="#D9D9D9"/>
<path d="M151.156 1181.42C151.544 1182.02 151.93 1182.52 152.314 1182.93C155.911 1180.6 167.241 1149.66 183.821 1123.57C203.089 1079.87 235.302 1023.6 296.03 993.934C393.279 946.43 459.485 936.396 574.117 963.308C657.634 982.914 718.509 1063.87 853.917 1073.74C790.455 1080.38 566.581 978.716 427.713 1008.71C346.535 1035.51 287.383 1106.25 238.256 1088.79C217.162 1081.3 198.448 1100.54 183.821 1123.57C166.792 1162.18 159.873 1190.99 152.314 1182.93C151.694 1183.34 151.303 1182.89 151.156 1181.42Z" fill="url(#paint7_linear_245_1212)"/>
</g>
<g opacity="0.18" filter="url(#filter13_f_245_1212)">
<path d="M1165.91 1660.49C1165.17 1659.67 1164.55 1658.84 1164.02 1658.01C1159.45 1655.13 1147.35 1656.18 1131.39 1658.72C1122.39 1664.59 1111.16 1671.79 1097.21 1680.51C1004.87 1738.25 791.459 1721.19 672.666 1711.69L671.632 1711.61C634.527 1708.64 600.346 1694.49 562.522 1680.05C501.974 1668.57 446.778 1649.8 407.739 1645.66C397.9 1645.53 387.701 1645.8 377.105 1646.52C385.646 1644.49 395.957 1644.41 407.739 1645.66C470.786 1646.49 519.059 1663.46 562.522 1680.05C618.915 1690.75 679.951 1695.11 736.901 1675.42C937.498 1683.08 957.177 1661.42 1008.67 1671.04C1041.87 1677.24 1096.07 1664.33 1131.39 1658.72C1191.69 1619.37 1152.33 1639.35 1164.02 1658.01C1165.03 1658.64 1165.67 1659.46 1165.91 1660.49Z" fill="url(#paint8_linear_245_1212)"/>
</g>
<defs>
<filter id="filter0_f_245_1212" x="439.541" y="1625.58" width="54.1705" height="63.7066" filterUnits="userSpaceOnUse" color-interpolation-filters="sRGB">
<feFlood flood-opacity="0" result="BackgroundImageFix"/>
<feBlend mode="normal" in="SourceGraphic" in2="BackgroundImageFix" result="shape"/>
<feGaussianBlur stdDeviation="4.6" result="effect1_foregroundBlur_245_1212"/>
</filter>
<filter id="filter1_f_245_1212" x="409.317" y="1613.93" width="80.7916" height="103.715" filterUnits="userSpaceOnUse" color-interpolation-filters="sRGB">
<feFlood flood-opacity="0" result="BackgroundImageFix"/>
<feBlend mode="normal" in="SourceGraphic" in2="BackgroundImageFix" result="shape"/>
<feGaussianBlur stdDeviation="13.1" result="effect1_foregroundBlur_245_1212"/>
</filter>
<filter id="filter2_f_245_1212" x="426.511" y="1630.81" width="46.5916" height="69.5154" filterUnits="userSpaceOnUse" color-interpolation-filters="sRGB">
<feFlood flood-opacity="0" result="BackgroundImageFix"/>
<feBlend mode="normal" in="SourceGraphic" in2="BackgroundImageFix" result="shape"/>
<feGaussianBlur stdDeviation="4.55" result="effect1_foregroundBlur_245_1212"/>
</filter>
<filter id="filter3_f_245_1212" x="447.048" y="1648.34" width="51.3607" height="51.3607" filterUnits="userSpaceOnUse" color-interpolation-filters="sRGB">
<feFlood flood-opacity="0" result="BackgroundImageFix"/>
<feBlend mode="normal" in="SourceGraphic" in2="BackgroundImageFix" result="shape"/>
<feGaussianBlur stdDeviation="7.4" result="effect1_foregroundBlur_245_1212"/>
</filter>
<filter id="filter4_f_245_1212" x="520.478" y="1669.97" width="37.9107" height="43.1124" filterUnits="userSpaceOnUse" color-interpolation-filters="sRGB">
<feFlood flood-opacity="0" result="BackgroundImageFix"/>
<feBlend mode="normal" in="SourceGraphic" in2="BackgroundImageFix" result="shape"/>
<feGaussianBlur stdDeviation="4.6" result="effect1_foregroundBlur_245_1212"/>
</filter>
<filter id="filter5_f_245_1212" x="496.263" y="1655.89" width="67.8873" height="80.3902" filterUnits="userSpaceOnUse" color-interpolation-filters="sRGB">
<feFlood flood-opacity="0" result="BackgroundImageFix"/>
<feBlend mode="normal" in="SourceGraphic" in2="BackgroundImageFix" result="shape"/>
<feGaussianBlur stdDeviation="13.1" result="effect1_foregroundBlur_245_1212"/>
</filter>
<filter id="filter6_f_245_1212" x="513.415" y="1672.87" width="33.6873" height="46.1902" filterUnits="userSpaceOnUse" color-interpolation-filters="sRGB">
<feFlood flood-opacity="0" result="BackgroundImageFix"/>
<feBlend mode="normal" in="SourceGraphic" in2="BackgroundImageFix" result="shape"/>
<feGaussianBlur stdDeviation="4.55" result="effect1_foregroundBlur_245_1212"/>
</filter>
<filter id="filter7_f_245_1212" x="522.026" y="1679.84" width="41.4691" height="41.4696" filterUnits="userSpaceOnUse" color-interpolation-filters="sRGB">
<feFlood flood-opacity="0" result="BackgroundImageFix"/>
<feBlend mode="normal" in="SourceGraphic" in2="BackgroundImageFix" result="shape"/>
<feGaussianBlur stdDeviation="7.4" result="effect1_foregroundBlur_245_1212"/>
</filter>
<filter id="filter8_f_245_1212" x="1035.59" y="905.241" width="74.1451" height="89.0074" filterUnits="userSpaceOnUse" color-interpolation-filters="sRGB">
<feFlood flood-opacity="0" result="BackgroundImageFix"/>
<feBlend mode="normal" in="SourceGraphic" in2="BackgroundImageFix" result="shape"/>
<feGaussianBlur stdDeviation="4.6" result="effect1_foregroundBlur_245_1212"/>
</filter>
<filter id="filter9_f_245_1212" x="997.981" y="896.575" width="96.6471" height="132.372" filterUnits="userSpaceOnUse" color-interpolation-filters="sRGB">
<feFlood flood-opacity="0" result="BackgroundImageFix"/>
<feBlend mode="normal" in="SourceGraphic" in2="BackgroundImageFix" result="shape"/>
<feGaussianBlur stdDeviation="13.1" result="effect1_foregroundBlur_245_1212"/>
</filter>
<filter id="filter10_f_245_1212" x="1015.23" y="913.339" width="62.4471" height="98.1722" filterUnits="userSpaceOnUse" color-interpolation-filters="sRGB">
<feFlood flood-opacity="0" result="BackgroundImageFix"/>
<feBlend mode="normal" in="SourceGraphic" in2="BackgroundImageFix" result="shape"/>
<feGaussianBlur stdDeviation="4.55" result="effect1_foregroundBlur_245_1212"/>
</filter>
<filter id="filter11_f_245_1212" x="1050.42" y="943.845" width="63.5131" height="63.5131" filterUnits="userSpaceOnUse" color-interpolation-filters="sRGB">
<feFlood flood-opacity="0" result="BackgroundImageFix"/>
<feBlend mode="normal" in="SourceGraphic" in2="BackgroundImageFix" result="shape"/>
<feGaussianBlur stdDeviation="7.4" result="effect1_foregroundBlur_245_1212"/>
</filter>
<filter id="filter12_f_245_1212" x="133.355" y="930.831" width="738.362" height="271.261" filterUnits="userSpaceOnUse" color-interpolation-filters="sRGB">
<feFlood flood-opacity="0" result="BackgroundImageFix"/>
<feBlend mode="normal" in="SourceGraphic" in2="BackgroundImageFix" result="shape"/>
<feGaussianBlur stdDeviation="8.9" result="effect1_foregroundBlur_245_1212"/>
</filter>
<filter id="filter13_f_245_1212" x="359.304" y="1618.24" width="824.511" height="121.165" filterUnits="userSpaceOnUse" color-interpolation-filters="sRGB">
<feFlood flood-opacity="0" result="BackgroundImageFix"/>
<feBlend mode="normal" in="SourceGraphic" in2="BackgroundImageFix" result="shape"/>
<feGaussianBlur stdDeviation="8.9" result="effect1_foregroundBlur_245_1212"/>
</filter>
<linearGradient id="paint0_linear_245_1212" x1="583.128" y1="-104.276" x2="1709.99" y2="87.3257" gradientUnits="userSpaceOnUse">
<stop stop-color="#62A7DE"/>
<stop offset="1" stop-color="#3476AD"/>
</linearGradient>
<linearGradient id="paint1_linear_245_1212" x1="458.5" y1="1624.64" x2="458.5" y2="1701.64" gradientUnits="userSpaceOnUse">
<stop stop-color="#99D5FF"/>
<stop offset="1" stop-color="#D1ECFF"/>
</linearGradient>
<linearGradient id="paint2_linear_245_1212" x1="432.919" y1="1671.04" x2="444.032" y2="1686.29" gradientUnits="userSpaceOnUse">
<stop stop-color="#FFFFAD"/>
<stop offset="1" stop-color="#FF8AB4"/>
</linearGradient>
<linearGradient id="paint3_linear_245_1212" x1="535" y1="1673.64" x2="535" y2="1715.64" gradientUnits="userSpaceOnUse">
<stop stop-color="#99D5FF"/>
<stop offset="1" stop-color="#D1ECFF"/>
</linearGradient>
<linearGradient id="paint4_linear_245_1212" x1="521.047" y1="1698.95" x2="527.108" y2="1707.27" gradientUnits="userSpaceOnUse">
<stop stop-color="#FFFFAD"/>
<stop offset="1" stop-color="#FF8AB4"/>
</linearGradient>
<linearGradient id="paint5_linear_245_1212" x1="1060" y1="898.645" x2="1060" y2="1018.64" gradientUnits="userSpaceOnUse">
<stop stop-color="#99D5FF"/>
<stop offset="1" stop-color="#D1ECFF"/>
</linearGradient>
<linearGradient id="paint6_linear_245_1212" x1="1020.13" y1="970.943" x2="1037.45" y2="994.713" gradientUnits="userSpaceOnUse">
<stop stop-color="#FFFFAD"/>
<stop offset="1" stop-color="#FF8AB4"/>
</linearGradient>
<linearGradient id="paint7_linear_245_1212" x1="485.615" y1="912.82" x2="495.377" y2="1047.02" gradientUnits="userSpaceOnUse">
<stop stop-color="#DFF1FF"/>
<stop offset="1" stop-color="#62A7DE"/>
</linearGradient>
<linearGradient id="paint8_linear_245_1212" x1="766.559" y1="1746.79" x2="740.968" y2="1622.4" gradientUnits="userSpaceOnUse">
<stop stop-color="#DFF1FF"/>
<stop offset="1" stop-color="#62A7DE"/>
</linearGradient>
</defs>
</svg>
