<svg width="251" height="175" viewBox="0 0 251 175" fill="none" xmlns="http://www.w3.org/2000/svg">
<path d="M92.5897 174.118C79.389 173.385 60.0971 154.459 52.5596 146.311L61.4212 134.088L114.897 159.145C112.961 164.442 105.791 174.851 92.5897 174.118Z" fill="#D9D9D9"/>
<path d="M92.5897 174.118C79.389 173.385 60.0971 154.459 52.5596 146.311L61.4212 134.088L114.897 159.145C112.961 164.442 105.791 174.851 92.5897 174.118Z" fill="url(#paint0_linear_243_753)"/>
<path d="M50.9387 94.2994C67.2658 90.9591 86.3559 92.8888 93.5889 96.791C93.8866 96.9516 93.7119 97.315 93.3861 97.224C82.9565 94.312 62.6497 94.3473 51.0077 94.8433C50.6443 94.8588 50.5824 94.3723 50.9387 94.2994Z" fill="white"/>
<path d="M50.4264 99.978C63.3215 100.143 75.1183 106.067 81.0788 110.15C81.3706 110.35 81.1334 110.733 80.8098 110.59C67.159 104.572 58.2101 102.039 50.3817 100.512C50.0307 100.444 50.0688 99.9734 50.4264 99.978Z" fill="white"/>
<path d="M49.0566 104.373C58.778 106.454 64.9956 112.939 67.6191 117.065C67.7972 117.345 67.4648 117.606 67.2148 117.387C60.3686 111.406 54.2155 107.43 48.8918 104.908C48.5751 104.758 48.7139 104.3 49.0566 104.373Z" fill="white"/>
<path d="M68.3731 65.9495C50.1901 55.6325 41.3933 56.0057 29.3899 63.3478C12.1475 73.8944 11.0226 100.495 20.9814 115.927C29.3899 130.906 42.0765 140.605 50.1901 146.21C119.672 187.784 164.677 161.07 184.949 133.065C192.472 122.671 201.766 110.189 213.051 112.87C247.792 121.124 249.783 117.15 250.89 113.482C251.996 109.813 244.473 108.896 244.473 103.699C244.473 99.542 242.85 96.8723 242.038 96.0571C236.507 92.0831 241.153 88.7204 236.949 83.8293C232.745 78.9382 238.277 78.3268 234.736 74.9642C231.196 71.6016 235.4 68.8503 232.524 63.0421C230.222 58.3956 222.123 70.0731 218.362 76.4927C217.698 78.3268 214.511 81.9952 207.077 81.9952C199.642 81.9952 193.062 91.7774 190.702 96.6685C178.31 100.337 174.77 99.4197 157.731 96.6685C140.693 93.9172 125.99 78.4774 107.181 80.0059C88.3723 81.5344 80.7647 72.9805 68.3731 65.9495Z" fill="url(#paint1_linear_243_753)"/>
<path d="M234.44 74.3228C225.245 79.3598 218.584 81.9021 210.171 95.1526C210.534 89.3581 219.846 76.5925 234.44 74.3228Z" fill="url(#paint2_linear_243_753)"/>
<path d="M239.119 87.4167C230.462 90.1122 224.359 91.1471 215.125 100.78C216.317 96.0333 226.249 86.947 239.119 87.4167Z" fill="url(#paint3_linear_243_753)"/>
<path d="M243.396 99.2172C234.585 100.67 228.312 101.028 219.402 107.787C220.299 104.214 229.974 97.9261 243.396 99.2172Z" fill="url(#paint4_linear_243_753)"/>
<mask id="mask0_243_753" style="mask-type:alpha" maskUnits="userSpaceOnUse" x="14" y="58" width="238" height="110">
<path d="M68.3731 65.9495C50.1901 55.6325 41.3933 56.0057 29.3899 63.3478C12.1475 73.8944 11.0226 100.495 20.9814 115.927C29.3899 130.906 42.0765 140.605 50.1901 146.21C119.672 187.784 164.677 161.07 184.949 133.065C192.472 122.671 201.766 110.189 213.051 112.87C247.792 121.124 249.783 117.15 250.89 113.482C251.996 109.813 244.473 108.896 244.473 103.699C244.473 99.542 242.85 96.8723 242.038 96.0571C236.507 92.0831 241.153 88.7204 236.949 83.8293C232.745 78.9382 238.277 78.3268 234.736 74.9642C231.196 71.6016 235.4 68.8503 232.524 63.0421C230.222 58.3956 222.123 70.0731 218.362 76.4927C217.698 78.3268 214.511 81.9952 207.077 81.9952C199.642 81.9952 193.062 91.7774 190.702 96.6685C178.31 100.337 174.77 99.4197 157.731 96.6685C140.693 93.9172 125.99 78.4774 107.181 80.0059C88.3723 81.5344 80.7647 72.9805 68.3731 65.9495Z" fill="url(#paint5_linear_243_753)"/>
</mask>
<g mask="url(#mask0_243_753)">
<path d="M93.8122 130.727C43.4537 119.481 30.0492 126.041 29.6417 130.727C24.6507 158.534 15.6464 214.393 19.5578 215.371C24.447 216.593 157.677 207.731 162.261 204.981C166.844 202.231 266.461 138.06 215.431 142.95C164.4 147.839 156.76 144.783 93.8122 130.727Z" fill="url(#paint6_linear_243_753)"/>
<circle cx="47.365" cy="101.086" r="10.6951" fill="url(#paint7_radial_243_753)" fill-opacity="0.43"/>
<circle cx="17.4185" cy="101.086" r="8.25049" fill="url(#paint8_radial_243_753)" fill-opacity="0.43"/>
</g>
<path d="M26.5854 105.058C26.891 108.012 29.0912 112.27 35.4471 105.669C34.1229 104.651 30.4968 103.103 26.5854 105.058Z" fill="url(#paint9_linear_243_753)"/>
<path d="M21.2499 103.558C20.641 99.0148 26.1139 97.597 28.9265 97.456C40.0143 96.5597 40.374 102.764 38.5675 105.13C36.7609 107.496 32.4321 105.127 29.0712 105.577C25.9613 105.994 22.0111 109.237 21.2499 103.558Z" fill="#D9D9D9"/>
<path d="M21.2499 103.558C20.641 99.0148 26.1139 97.597 28.9265 97.456C40.0143 96.5597 40.374 102.764 38.5675 105.13C36.7609 107.496 32.4321 105.127 29.0712 105.577C25.9613 105.994 22.0111 109.237 21.2499 103.558Z" fill="url(#paint10_linear_243_753)"/>
<circle cx="0.467729" cy="0.467729" r="0.467729" transform="matrix(-0.991137 0.132845 0.132845 0.991137 33.501 98.1404)" fill="#0A3E69" fill-opacity="0.51"/>
<circle cx="0.701594" cy="0.701594" r="0.701594" transform="matrix(-0.991137 0.132845 0.132845 0.991137 35.6797 98.5562)" fill="#0A3E69" fill-opacity="0.51"/>
<circle cx="0.701594" cy="0.701594" r="0.701594" transform="matrix(-0.991137 0.132845 0.132845 0.991137 34.2129 99.9326)" fill="#0A3E69" fill-opacity="0.51"/>
<circle cx="25.2806" cy="100.186" r="0.467729" transform="rotate(-7.634 25.2806 100.186)" fill="#0A3E69" fill-opacity="0.51"/>
<circle cx="23.5503" cy="101.362" r="0.701594" transform="rotate(-7.634 23.5503 101.362)" fill="#0A3E69" fill-opacity="0.51"/>
<circle cx="25.3291" cy="102.303" r="0.701594" transform="rotate(-7.634 25.3291 102.303)" fill="#0A3E69" fill-opacity="0.51"/>
<path d="M49.7191 85.3488C44.4074 83.0405 39.4426 86.1362 40.9218 91.011C43.2073 97.5002 49.454 96.8675 52.2916 95.7399C57.0732 93.5653 55.0308 87.6571 49.7191 85.3488Z" fill="#093D68"/>
<path d="M16.5788 87.1951C12.7668 88.8311 11.045 96.6823 15.014 98.1022C15.0667 98.121 15.1242 98.1346 15.1796 98.1423C19.7442 98.7774 21.7559 94.392 22.1921 92.1057C22.4214 88.5356 20.4165 85.5482 16.5788 87.1951Z" fill="#093D68"/>
<path d="M33.0701 95.5966C33.054 93.6899 24.1242 94.8971 24.5702 96.767C24.5843 96.826 24.6138 96.8809 24.6461 96.9322C25.6213 98.4803 27.7592 101.463 28.8903 101.59C30.0193 101.717 32.0725 97.8748 33.0083 95.8332C33.0425 95.7586 33.0707 95.6786 33.0701 95.5966Z" fill="#093D68"/>
<g filter="url(#filter0_f_243_753)">
<path d="M48.7385 94.8546C42.633 93.4815 42.2372 88.878 42.8024 86.7478C45.6451 92.7217 50.9639 93.0497 53.2681 92.467C52.3098 94.4581 49.8491 94.8883 48.7385 94.8546Z" fill="url(#paint11_linear_243_753)" fill-opacity="0.31"/>
</g>
<g filter="url(#filter1_f_243_753)">
<path d="M18.1462 96.1067C21.9972 93.0009 20.6702 89.603 19.5254 88.2922C19.5955 93.5155 15.9376 95.6065 14.0998 95.999C15.4748 97.074 17.3704 96.5187 18.1462 96.1067Z" fill="url(#paint12_linear_243_753)" fill-opacity="0.31"/>
</g>
<g filter="url(#filter2_f_243_753)">
<circle cx="43.1762" cy="88.4673" r="1.28626" transform="rotate(-7.634 43.1762 88.4673)" fill="white"/>
</g>
<g filter="url(#filter3_f_243_753)">
<circle cx="45.1478" cy="89.9727" r="0.467729" transform="rotate(-7.634 45.1478 89.9727)" fill="white"/>
</g>
<g filter="url(#filter4_f_243_753)">
<circle cx="18.8626" cy="92.7879" r="0.467729" transform="rotate(-7.634 18.8626 92.7879)" fill="white"/>
</g>
<g filter="url(#filter5_f_243_753)">
<circle cx="19.3158" cy="90.0136" r="1.28626" transform="rotate(-7.634 19.3158 90.0136)" fill="white"/>
</g>
<ellipse cx="2.7831" cy="1.3721" rx="2.7831" ry="1.3721" transform="matrix(-0.910181 0.41421 0.41421 0.910181 18.2471 81.5444)" fill="#93BFE3"/>
<ellipse cx="45.3804" cy="80.9899" rx="2.7831" ry="1.3721" transform="rotate(9.20159 45.3804 80.9899)" fill="#93BFE3"/>
<path d="M45.7598 98.2329C52.0105 97.2798 58.7743 97.9069 62.1781 99.2409C62.493 99.3643 62.3557 99.6791 62.0253 99.6069C57.713 98.6651 50.7281 98.5815 45.8165 98.7197C45.453 98.7299 45.4003 98.2878 45.7598 98.2329Z" fill="white"/>
<path d="M45.2923 101.146C49.7396 101.533 53.7708 103.329 56.3564 104.884C56.6596 105.066 56.4611 105.41 56.1357 105.271C51.5152 103.302 48.1524 102.269 45.2427 101.614C44.8938 101.535 44.936 101.115 45.2923 101.146Z" fill="white"/>
<path d="M44.4148 103.354C47.5615 104.351 49.7554 106.367 50.9772 107.97C51.1784 108.234 50.886 108.476 50.6322 108.262C48.3075 106.301 46.1701 104.863 44.2481 103.836C43.939 103.671 44.0807 103.248 44.4148 103.354Z" fill="white"/>
<path d="M19.6445 101.572C13.3938 100.619 6.63005 101.246 3.22623 102.58C2.9113 102.703 3.04855 103.018 3.37901 102.946C7.69134 102.004 14.6762 101.921 19.5878 102.059C19.9513 102.069 20.004 101.627 19.6445 101.572Z" fill="white"/>
<path d="M20.112 104.486C15.6647 104.873 11.6335 106.669 9.04787 108.223C8.74473 108.405 8.94318 108.749 9.26855 108.61C13.8891 106.641 17.2519 105.608 20.1616 104.953C20.5105 104.875 20.4683 104.455 20.112 104.486Z" fill="white"/>
<path d="M20.9895 106.693C17.8428 107.691 15.6489 109.707 14.4271 111.309C14.2259 111.573 14.5183 111.816 14.7721 111.602C17.0968 109.641 19.2342 108.203 21.1562 107.175C21.4653 107.01 21.3236 106.588 20.9895 106.693Z" fill="white"/>
<path d="M221.236 111.943C230.134 111.197 236.504 111.226 245.23 106.102C244.5 109.007 234.971 113.702 221.236 111.943Z" fill="url(#paint13_linear_243_753)"/>
<path d="M166.043 138.886C135.271 175.186 110.34 158.508 101.721 145.632C93.8671 127.928 95.1259 116.493 105.118 119.726C115.508 123.087 131.707 128.818 138.04 129.056C144.373 129.294 153.507 132.952 160.123 130.967C165.415 129.379 168.71 130.356 169.696 131.044C170.32 132.323 167.521 136.805 166.043 138.886Z" fill="url(#paint14_linear_243_753)"/>
<path d="M100.535 89.1686C97.8461 84.0349 111.638 85.1961 118.87 86.4184C132.009 89.1686 127.12 91.002 133.843 98.6414C140.565 106.281 127.426 108.42 125.592 106.281C123.759 104.142 110.619 107.809 113.064 100.78C115.508 93.7522 103.896 95.5856 100.535 89.1686Z" fill="#A7C7E1" fill-opacity="0.39"/>
<path d="M138.426 96.1968C140.137 93.7522 143.213 96.1968 144.537 97.7246C146.37 100.475 144.537 102.308 140.565 101.391C136.592 100.475 136.287 99.2525 138.426 96.1968Z" fill="#A7C7E1" fill-opacity="0.23"/>
<path d="M132.315 113.614C127.67 110.925 139.954 108.216 146.677 107.197C161.039 103.309 150.343 116.976 145.76 113.614C141.176 110.253 144.843 124.004 138.12 120.643C131.398 117.281 138.121 116.976 132.315 113.614Z" fill="#A7C7E1" fill-opacity="0.22"/>
<path d="M155.232 103.836C156.21 100.169 163.381 102.308 166.844 103.836C173.872 106.586 169.9 113.003 166.844 113.615C163.788 114.226 162.566 109.642 161.649 107.198C160.732 104.753 154.01 108.42 155.232 103.836Z" fill="#A7C7E1" fill-opacity="0.39"/>
<path d="M91.0611 94.0578C90.0833 91.6132 94.3206 92.0206 96.5614 92.5299C104.506 96.1968 96.5614 100.78 95.6447 97.4191C94.728 94.0578 92.2834 97.1135 91.0611 94.0578Z" fill="#A7C7E1" fill-opacity="0.13"/>
<path d="M174.67 109.948C172.714 107.503 177.522 105.669 180.17 105.058C183.531 105.058 182.309 107.809 188.726 111.475C195.143 115.142 164.435 127.671 165.658 120.643C166.88 113.614 177.114 113.003 174.67 109.948Z" fill="#A7C7E1" fill-opacity="0.25"/>
<path d="M183.011 65.9793C190.512 65.5626 201.474 54.8092 205.757 50.1791L200.722 43.2339L170.336 57.4715C171.436 60.4811 175.511 66.396 183.011 65.9793Z" fill="#D9D9D9"/>
<path d="M183.011 65.9793C190.512 65.5626 201.474 54.8092 205.757 50.1791L200.722 43.2339L170.336 57.4715C171.436 60.4811 175.511 66.396 183.011 65.9793Z" fill="url(#paint15_linear_243_753)"/>
<path d="M205.342 20.3743C196.869 18.9181 187.444 19.8183 183.135 21.7062C182.825 21.842 182.976 22.1734 183.305 22.0947C188.994 20.7341 198.83 20.6669 205.281 20.8829C205.644 20.8951 205.701 20.4359 205.342 20.3743Z" fill="white"/>
<path d="M205.816 23.8935C199.527 24.2636 193.813 26.9224 190.43 29.0553C190.131 29.2439 190.343 29.602 190.668 29.4617C197.257 26.6146 201.869 25.2366 205.865 24.386C206.214 24.3115 206.173 23.8725 205.816 23.8935Z" fill="white"/>
<path d="M206.798 26.5825C202.231 27.8447 199.15 30.8041 197.588 32.9886C197.395 33.2587 197.701 33.5083 197.953 33.2925C201.267 30.458 204.287 28.4552 206.965 27.0857C207.277 26.9261 207.136 26.4892 206.798 26.5825Z" fill="white"/>
<path d="M196.772 4.51697C207.103 -1.34523 212.102 -1.13318 218.922 3.03866C228.72 9.03134 229.359 24.1457 223.7 32.9147C218.922 41.4259 211.714 46.937 207.103 50.1214C167.624 73.7443 142.051 58.5649 130.533 42.6524C126.258 36.7467 120.977 29.6542 114.565 31.1777C94.8248 35.8675 93.6933 33.6095 93.0646 31.5251C92.4359 29.4407 96.7108 28.9196 96.7108 25.9668C96.7108 23.6045 97.6328 22.0875 98.0938 21.6243C101.237 19.3662 98.5968 17.4556 100.986 14.6764C103.375 11.8972 100.231 11.5499 102.243 9.63918C104.255 7.7285 101.866 6.16522 103.5 2.86496C104.808 0.224757 109.41 6.86001 111.547 10.5077C111.924 11.5498 113.735 13.6342 117.959 13.6342C122.184 13.6342 125.923 19.1925 127.264 21.9717C134.305 24.0561 136.316 23.535 145.998 21.9717C155.679 20.4084 164.034 11.6354 174.721 12.5039C185.408 13.3724 189.731 8.51202 196.772 4.51697Z" fill="url(#paint16_linear_243_753)"/>
<path d="M102.412 9.27491C107.636 12.137 111.421 13.5815 116.201 21.1106C115.995 17.8181 110.704 10.5646 102.412 9.27491Z" fill="url(#paint17_linear_243_753)"/>
<path d="M99.7531 16.715C104.672 18.2465 108.14 18.8346 113.387 24.3083C112.709 21.611 107.066 16.4481 99.7531 16.715Z" fill="url(#paint18_linear_243_753)"/>
<path d="M97.3226 23.42C102.329 24.2456 105.893 24.4486 110.956 28.2895C110.446 26.2591 104.949 22.6864 97.3226 23.42Z" fill="url(#paint19_linear_243_753)"/>
<mask id="mask1_243_753" style="mask-type:alpha" maskUnits="userSpaceOnUse" x="93" y="0" width="135" height="63">
<path d="M196.772 4.51697C207.103 -1.34523 212.102 -1.13318 218.922 3.03866C228.72 9.03134 229.359 24.1457 223.7 32.9147C218.922 41.4259 211.714 46.937 207.103 50.1214C167.624 73.7443 142.051 58.5649 130.533 42.6524C126.258 36.7467 120.977 29.6542 114.565 31.1777C94.8248 35.8675 93.6933 33.6095 93.0646 31.5251C92.4359 29.4407 96.7108 28.9196 96.7108 25.9668C96.7108 23.6045 97.6328 22.0875 98.0938 21.6243C101.237 19.3662 98.5968 17.4556 100.986 14.6764C103.375 11.8972 100.231 11.5499 102.243 9.63918C104.255 7.7285 101.866 6.16522 103.5 2.86496C104.808 0.224757 109.41 6.86001 111.547 10.5077C111.924 11.5498 113.735 13.6342 117.959 13.6342C122.184 13.6342 125.923 19.1925 127.264 21.9717C134.305 24.0561 136.316 23.535 145.998 21.9717C155.679 20.4084 164.034 11.6354 174.721 12.5039C185.408 13.3724 189.731 8.51202 196.772 4.51697Z" fill="url(#paint20_linear_243_753)"/>
</mask>
<g mask="url(#mask1_243_753)">
<path d="M182.317 41.3239C210.931 34.9343 218.548 38.6616 218.78 41.3239C221.615 57.1242 226.732 88.8636 224.509 89.4192C221.731 90.1137 146.029 85.0785 143.424 83.5158C140.82 81.9531 84.2168 45.491 113.213 48.2691C142.209 51.0471 146.55 49.3108 182.317 41.3239Z" fill="url(#paint21_linear_243_753)"/>
<circle cx="6.07702" cy="6.07702" r="6.07702" transform="matrix(-1 0 0 1 214.786 18.4048)" fill="url(#paint22_radial_243_753)" fill-opacity="0.43"/>
<circle cx="4.68799" cy="4.68799" r="4.68799" transform="matrix(-1 0 0 1 230.413 19.7939)" fill="url(#paint23_radial_243_753)" fill-opacity="0.43"/>
</g>
<path d="M220.516 26.7389C220.342 28.4174 219.092 30.8366 215.48 27.0862C216.233 26.5074 218.293 25.6277 220.516 26.7389Z" fill="url(#paint24_linear_243_753)"/>
<path d="M223.547 25.8865C223.893 23.305 220.783 22.4994 219.185 22.4193C212.885 21.9101 212.681 25.4356 213.707 26.7798C214.734 28.124 217.193 26.7778 219.103 27.0338C220.87 27.2706 223.115 29.1133 223.547 25.8865Z" fill="#D9D9D9"/>
<path d="M223.547 25.8865C223.893 23.305 220.783 22.4994 219.185 22.4193C212.885 21.9101 212.681 25.4356 213.707 26.7798C214.734 28.124 217.193 26.7778 219.103 27.0338C220.87 27.2706 223.115 29.1133 223.547 25.8865Z" fill="url(#paint25_linear_243_753)"/>
<circle cx="216.814" cy="23.1068" r="0.265767" transform="rotate(7.634 216.814 23.1068)" fill="#0A3E69" fill-opacity="0.51"/>
<circle cx="215.69" cy="23.4925" r="0.398651" transform="rotate(7.634 215.69 23.4925)" fill="#0A3E69" fill-opacity="0.51"/>
<circle cx="216.523" cy="24.2742" r="0.398651" transform="rotate(7.634 216.523 24.2742)" fill="#0A3E69" fill-opacity="0.51"/>
<circle cx="0.265767" cy="0.265767" r="0.265767" transform="matrix(-0.991137 -0.132845 -0.132845 0.991137 221.555 23.7422)" fill="#0A3E69" fill-opacity="0.51"/>
<circle cx="0.398651" cy="0.398651" r="0.398651" transform="matrix(-0.991137 -0.132845 -0.132845 0.991137 222.688 24.2964)" fill="#0A3E69" fill-opacity="0.51"/>
<circle cx="0.398651" cy="0.398651" r="0.398651" transform="matrix(-0.991137 -0.132845 -0.132845 0.991137 221.677 24.8311)" fill="#0A3E69" fill-opacity="0.51"/>
<path d="M207.371 15.5396C210.389 14.228 213.21 15.987 212.369 18.7569C211.071 22.4441 207.521 22.0846 205.909 21.4439C203.192 20.2083 204.353 16.8512 207.371 15.5396Z" fill="#093D68"/>
<path d="M226.201 16.5887C228.356 17.5135 229.336 21.9338 227.125 22.7735C227.072 22.7933 227.015 22.8066 226.96 22.8138C224.392 23.1465 223.258 20.6719 223.012 19.3789C222.881 17.3504 224.021 15.6529 226.201 16.5887Z" fill="#093D68"/>
<path d="M216.835 21.3103C217.004 20.3141 221.791 20.9662 221.667 21.9894C221.66 22.0495 221.628 22.1039 221.596 22.1551C221.033 23.0436 219.84 24.6967 219.206 24.7679C218.573 24.8389 217.43 22.7175 216.888 21.5461C216.854 21.4716 216.822 21.3912 216.835 21.3103Z" fill="#093D68"/>
<g filter="url(#filter6_f_243_753)">
<path d="M207.927 20.9411C211.397 20.1609 211.621 17.5451 211.3 16.3347C209.685 19.7292 206.663 19.9155 205.354 19.5844C205.898 20.7158 207.296 20.9602 207.927 20.9411Z" fill="url(#paint26_linear_243_753)" fill-opacity="0.31"/>
</g>
<g filter="url(#filter7_f_243_753)">
<path d="M225.31 21.6522C223.122 19.8875 223.876 17.9567 224.527 17.212C224.487 20.1799 226.565 21.368 227.609 21.591C226.828 22.2018 225.751 21.8863 225.31 21.6522Z" fill="url(#paint27_linear_243_753)" fill-opacity="0.31"/>
</g>
<g filter="url(#filter8_f_243_753)">
<circle cx="0.73086" cy="0.73086" r="0.73086" transform="matrix(-0.991137 -0.132845 -0.132845 0.991137 211.91 16.6841)" fill="white"/>
</g>
<g filter="url(#filter9_f_243_753)">
<circle cx="0.265767" cy="0.265767" r="0.265767" transform="matrix(-0.991137 -0.132845 -0.132845 0.991137 210.267 17.939)" fill="white"/>
</g>
<g filter="url(#filter10_f_243_753)">
<circle cx="0.265767" cy="0.265767" r="0.265767" transform="matrix(-0.991137 -0.132845 -0.132845 0.991137 225.202 19.5386)" fill="white"/>
</g>
<g filter="url(#filter11_f_243_753)">
<circle cx="0.73086" cy="0.73086" r="0.73086" transform="matrix(-0.991137 -0.132845 -0.132845 0.991137 225.467 17.563)" fill="white"/>
</g>
<ellipse cx="226.369" cy="14.7426" rx="1.58138" ry="0.779636" transform="rotate(24.4696 226.369 14.7426)" fill="#93BFE3"/>
<ellipse cx="1.58138" cy="0.779636" rx="1.58138" ry="0.779636" transform="matrix(-0.987132 0.159909 0.159909 0.987132 211.272 12.0405)" fill="#93BFE3"/>
<path d="M208.272 22.6978C205.541 22.4517 202.802 22.6888 201.022 23.191C200.697 23.2828 200.8 23.553 201.134 23.4985C203.172 23.1662 205.915 23.0877 208.229 23.1111C208.592 23.1148 208.634 22.7304 208.272 22.6978Z" fill="white"/>
<path d="M208.743 24.6705C207.138 24.962 205.675 25.5375 204.518 26.1302C204.203 26.2915 204.367 26.59 204.695 26.4577C206.3 25.81 207.624 25.3733 208.795 25.0585C209.14 24.9656 209.095 24.6066 208.743 24.6705Z" fill="white"/>
<path d="M209.476 26.1263C208.465 26.6009 207.672 27.2496 207.102 27.8648C206.876 28.1082 207.127 28.3278 207.386 28.1203C208.177 27.4872 208.926 26.9622 209.632 26.5305C209.931 26.3476 209.793 25.9774 209.476 26.1263Z" fill="white"/>
<path d="M225.809 24.5953C228.539 24.3491 231.278 24.5863 233.058 25.0884C233.383 25.1803 233.28 25.4505 232.946 25.396C230.908 25.0636 228.166 24.9851 225.852 25.0086C225.488 25.0122 225.446 24.6279 225.809 24.5953Z" fill="white"/>
<path d="M225.337 26.568C226.942 26.8595 228.405 27.4349 229.562 28.0277C229.877 28.189 229.713 28.4875 229.385 28.3552C227.78 27.7075 226.456 27.2708 225.285 26.9559C224.94 26.8631 224.985 26.504 225.337 26.568Z" fill="white"/>
<path d="M224.604 28.0238C225.615 28.4983 226.408 29.147 226.978 29.7623C227.204 30.0057 226.953 30.2253 226.694 30.0178C225.904 29.3846 225.154 28.8596 224.448 28.428C224.149 28.2451 224.287 27.8748 224.604 28.0238Z" fill="white"/>
<path d="M109.914 30.6506C104.858 30.2269 101.238 30.2431 96.2803 27.3317C96.6948 28.9825 102.109 31.6499 109.914 30.6506Z" fill="url(#paint28_linear_243_753)"/>
<path d="M141.275 45.9601C158.76 66.586 172.926 57.1097 177.823 49.7933C182.286 39.7338 181.571 33.2365 175.893 35.0733C169.99 36.9832 160.785 40.2392 157.187 40.3746C153.589 40.51 148.398 42.5883 144.639 41.4604C141.632 40.558 139.76 41.1135 139.2 41.504C138.845 42.231 140.436 44.7777 141.275 45.9601Z" fill="url(#paint29_linear_243_753)"/>
<path d="M178.498 17.71C180.026 14.793 172.189 15.4528 168.08 16.1473C160.614 17.71 163.392 18.7518 159.572 23.0925C155.752 27.4332 163.218 28.6486 164.26 27.4332C165.302 26.2178 172.768 28.3014 171.379 24.3079C169.99 20.3144 176.588 21.3562 178.498 17.71Z" fill="#A7C7E1" fill-opacity="0.39"/>
<path d="M156.968 21.7035C155.995 20.3145 154.247 21.7035 153.495 22.5717C152.453 24.1343 153.495 25.1761 155.752 24.6552C158.009 24.1343 158.183 23.4398 156.968 21.7035Z" fill="#A7C7E1" fill-opacity="0.23"/>
<path d="M160.44 31.6003C163.079 30.0723 156.099 28.5328 152.279 27.9541C144.119 25.7447 150.196 33.5102 152.8 31.6003C155.405 29.6904 153.321 37.5037 157.141 35.5938C160.961 33.6838 157.141 33.5102 160.44 31.6003Z" fill="#A7C7E1" fill-opacity="0.22"/>
<path d="M147.418 26.0445C146.862 23.9609 142.788 25.1763 140.82 26.0445C136.826 27.6071 139.084 31.2534 140.82 31.6006C142.556 31.9479 143.251 29.3434 143.772 27.9544C144.293 26.5654 148.112 28.6489 147.418 26.0445Z" fill="#A7C7E1" fill-opacity="0.39"/>
<path d="M183.88 20.4881C184.436 19.099 182.028 19.3305 180.755 19.6199C176.24 21.7035 180.755 24.3079 181.276 22.398C181.796 20.4881 183.186 22.2243 183.88 20.4881Z" fill="#A7C7E1" fill-opacity="0.13"/>
<path d="M136.374 29.5168C137.485 28.1278 134.753 27.086 133.248 26.7388C131.339 26.7388 132.033 28.3014 128.387 30.385C124.741 32.4685 142.189 39.5873 141.494 35.5939C140.8 31.6004 134.985 31.2531 136.374 29.5168Z" fill="#A7C7E1" fill-opacity="0.25"/>
<path d="M132.992 109.738L131.269 108.589C123.081 103.121 112.72 96.9404 105.047 87.8562C96.9599 78.2859 93.0801 68.4572 93.1796 57.8054C93.3002 45.9115 102.838 36.2378 114.441 36.2378C123.65 36.2378 129.773 41.5972 132.992 45.4655C136.212 41.5972 142.335 36.2378 151.543 36.2378C163.146 36.2378 172.684 45.9115 172.805 57.7997C172.912 68.4572 169.032 78.2802 160.937 87.8505C153.264 96.9404 142.903 103.121 134.715 108.589L132.992 109.738Z" fill="url(#paint30_linear_243_753)"/>
<defs>
<filter id="filter0_f_243_753" x="38.6162" y="82.7478" width="18.6514" height="16.1086" filterUnits="userSpaceOnUse" color-interpolation-filters="sRGB">
<feFlood flood-opacity="0" result="BackgroundImageFix"/>
<feBlend mode="normal" in="SourceGraphic" in2="BackgroundImageFix" result="shape"/>
<feGaussianBlur stdDeviation="2" result="effect1_foregroundBlur_243_753"/>
</filter>
<filter id="filter1_f_243_753" x="10.0996" y="84.2922" width="14.6099" height="16.3301" filterUnits="userSpaceOnUse" color-interpolation-filters="sRGB">
<feFlood flood-opacity="0" result="BackgroundImageFix"/>
<feBlend mode="normal" in="SourceGraphic" in2="BackgroundImageFix" result="shape"/>
<feGaussianBlur stdDeviation="2" result="effect1_foregroundBlur_243_753"/>
</filter>
<filter id="filter2_f_243_753" x="37.9896" y="83.2809" width="10.3732" height="10.3728" filterUnits="userSpaceOnUse" color-interpolation-filters="sRGB">
<feFlood flood-opacity="0" result="BackgroundImageFix"/>
<feBlend mode="normal" in="SourceGraphic" in2="BackgroundImageFix" result="shape"/>
<feGaussianBlur stdDeviation="1.95" result="effect1_foregroundBlur_243_753"/>
</filter>
<filter id="filter3_f_243_753" x="40.7797" y="85.6049" width="8.73555" height="8.73555" filterUnits="userSpaceOnUse" color-interpolation-filters="sRGB">
<feFlood flood-opacity="0" result="BackgroundImageFix"/>
<feBlend mode="normal" in="SourceGraphic" in2="BackgroundImageFix" result="shape"/>
<feGaussianBlur stdDeviation="1.95" result="effect1_foregroundBlur_243_753"/>
</filter>
<filter id="filter4_f_243_753" x="14.495" y="88.4201" width="8.73555" height="8.73555" filterUnits="userSpaceOnUse" color-interpolation-filters="sRGB">
<feFlood flood-opacity="0" result="BackgroundImageFix"/>
<feBlend mode="normal" in="SourceGraphic" in2="BackgroundImageFix" result="shape"/>
<feGaussianBlur stdDeviation="1.95" result="effect1_foregroundBlur_243_753"/>
</filter>
<filter id="filter5_f_243_753" x="14.1293" y="84.8273" width="10.3728" height="10.3728" filterUnits="userSpaceOnUse" color-interpolation-filters="sRGB">
<feFlood flood-opacity="0" result="BackgroundImageFix"/>
<feBlend mode="normal" in="SourceGraphic" in2="BackgroundImageFix" result="shape"/>
<feGaussianBlur stdDeviation="1.95" result="effect1_foregroundBlur_243_753"/>
</filter>
<filter id="filter6_f_243_753" x="201.354" y="12.335" width="14.0527" height="12.6069" filterUnits="userSpaceOnUse" color-interpolation-filters="sRGB">
<feFlood flood-opacity="0" result="BackgroundImageFix"/>
<feBlend mode="normal" in="SourceGraphic" in2="BackgroundImageFix" result="shape"/>
<feGaussianBlur stdDeviation="2" result="effect1_foregroundBlur_243_753"/>
</filter>
<filter id="filter7_f_243_753" x="219.854" y="13.2119" width="11.7559" height="12.7334" filterUnits="userSpaceOnUse" color-interpolation-filters="sRGB">
<feFlood flood-opacity="0" result="BackgroundImageFix"/>
<feBlend mode="normal" in="SourceGraphic" in2="BackgroundImageFix" result="shape"/>
<feGaussianBlur stdDeviation="2" result="effect1_foregroundBlur_243_753"/>
</filter>
<filter id="filter8_f_243_753" x="206.457" y="12.6806" width="9.26191" height="9.26191" filterUnits="userSpaceOnUse" color-interpolation-filters="sRGB">
<feFlood flood-opacity="0" result="BackgroundImageFix"/>
<feBlend mode="normal" in="SourceGraphic" in2="BackgroundImageFix" result="shape"/>
<feGaussianBlur stdDeviation="1.95" result="effect1_foregroundBlur_243_753"/>
</filter>
<filter id="filter9_f_243_753" x="205.802" y="14.0014" width="8.33125" height="8.33174" filterUnits="userSpaceOnUse" color-interpolation-filters="sRGB">
<feFlood flood-opacity="0" result="BackgroundImageFix"/>
<feBlend mode="normal" in="SourceGraphic" in2="BackgroundImageFix" result="shape"/>
<feGaussianBlur stdDeviation="1.95" result="effect1_foregroundBlur_243_753"/>
</filter>
<filter id="filter10_f_243_753" x="220.738" y="15.601" width="8.33125" height="8.33174" filterUnits="userSpaceOnUse" color-interpolation-filters="sRGB">
<feFlood flood-opacity="0" result="BackgroundImageFix"/>
<feBlend mode="normal" in="SourceGraphic" in2="BackgroundImageFix" result="shape"/>
<feGaussianBlur stdDeviation="1.95" result="effect1_foregroundBlur_243_753"/>
</filter>
<filter id="filter11_f_243_753" x="220.014" y="13.5595" width="9.26191" height="9.26191" filterUnits="userSpaceOnUse" color-interpolation-filters="sRGB">
<feFlood flood-opacity="0" result="BackgroundImageFix"/>
<feBlend mode="normal" in="SourceGraphic" in2="BackgroundImageFix" result="shape"/>
<feGaussianBlur stdDeviation="1.95" result="effect1_foregroundBlur_243_753"/>
</filter>
<linearGradient id="paint0_linear_243_753" x1="71.9114" y1="123.819" x2="81.649" y2="175.214" gradientUnits="userSpaceOnUse">
<stop offset="0.488991" stop-color="#CADBE9"/>
<stop offset="1" stop-color="#EFF8FF"/>
</linearGradient>
<linearGradient id="paint1_linear_243_753" x1="117.019" y1="60.0683" x2="131.295" y2="169.411" gradientUnits="userSpaceOnUse">
<stop stop-color="#EFF8FF"/>
<stop offset="1" stop-color="#ABC3D7"/>
</linearGradient>
<linearGradient id="paint2_linear_243_753" x1="234.786" y1="79.139" x2="210.511" y2="75.9335" gradientUnits="userSpaceOnUse">
<stop stop-color="#D9E9F6"/>
<stop offset="0.471154" stop-color="#93BFE3"/>
<stop offset="0.823877" stop-color="#1B5381"/>
</linearGradient>
<linearGradient id="paint3_linear_243_753" x1="238.685" y1="91.4669" x2="218.369" y2="84.7974" gradientUnits="userSpaceOnUse">
<stop stop-color="#D9E9F6"/>
<stop offset="0.471154" stop-color="#93BFE3"/>
<stop offset="0.823877" stop-color="#1B5381"/>
</linearGradient>
<linearGradient id="paint4_linear_243_753" x1="243.237" y1="102.308" x2="222" y2="94.6539" gradientUnits="userSpaceOnUse">
<stop stop-color="#D9E9F6"/>
<stop offset="0.471154" stop-color="#93BFE3"/>
<stop offset="0.823877" stop-color="#1B5381"/>
</linearGradient>
<linearGradient id="paint5_linear_243_753" x1="117.019" y1="60.0683" x2="131.295" y2="169.411" gradientUnits="userSpaceOnUse">
<stop stop-color="#EFF8FF"/>
<stop offset="1" stop-color="#ABC3D7"/>
</linearGradient>
<linearGradient id="paint6_linear_243_753" x1="85.5616" y1="222.704" x2="57.3239" y2="101.279" gradientUnits="userSpaceOnUse">
<stop stop-color="#D9E9F6"/>
<stop offset="1" stop-color="#1B5381" stop-opacity="0.780392"/>
</linearGradient>
<radialGradient id="paint7_radial_243_753" cx="0" cy="0" r="1" gradientUnits="userSpaceOnUse" gradientTransform="translate(47.365 101.086) rotate(90) scale(10.6951)">
<stop stop-color="#FFAFAF"/>
<stop offset="1" stop-color="#FFAFAF" stop-opacity="0"/>
</radialGradient>
<radialGradient id="paint8_radial_243_753" cx="0" cy="0" r="1" gradientUnits="userSpaceOnUse" gradientTransform="translate(17.4185 101.086) rotate(90) scale(8.25049)">
<stop stop-color="#FFAFAF"/>
<stop offset="1" stop-color="#FFAFAF" stop-opacity="0"/>
</radialGradient>
<linearGradient id="paint9_linear_243_753" x1="31.0163" y1="104.12" x2="31.0163" y2="109.159" gradientUnits="userSpaceOnUse">
<stop stop-color="#D7567D"/>
<stop offset="1" stop-color="#FFBBCF"/>
</linearGradient>
<linearGradient id="paint10_linear_243_753" x1="29.4156" y1="97.4889" x2="30.679" y2="106.915" gradientUnits="userSpaceOnUse">
<stop stop-color="#89B1D1"/>
<stop offset="1" stop-color="#2E5D84"/>
</linearGradient>
<linearGradient id="paint11_linear_243_753" x1="47.3468" y1="86.1387" x2="48.5274" y2="94.9468" gradientUnits="userSpaceOnUse">
<stop stop-color="#93BFE3"/>
<stop offset="1" stop-color="#1279CE"/>
</linearGradient>
<linearGradient id="paint12_linear_243_753" x1="16.0895" y1="89.449" x2="18.3282" y2="96.0982" gradientUnits="userSpaceOnUse">
<stop stop-color="#93BFE3"/>
<stop offset="1" stop-color="#1279CE"/>
</linearGradient>
<linearGradient id="paint13_linear_243_753" x1="229.798" y1="107.061" x2="245.213" y2="114.381" gradientUnits="userSpaceOnUse">
<stop offset="0.176123" stop-color="#1B5381"/>
<stop offset="0.528846" stop-color="#93BFE3"/>
<stop offset="1" stop-color="#D9E9F6"/>
</linearGradient>
<linearGradient id="paint14_linear_243_753" x1="100.406" y1="102.924" x2="149.823" y2="153.738" gradientUnits="userSpaceOnUse">
<stop offset="0.488991" stop-color="#CADBE9"/>
<stop offset="1" stop-color="#EFF8FF"/>
</linearGradient>
<linearGradient id="paint15_linear_243_753" x1="194.761" y1="37.3989" x2="189.228" y2="66.6022" gradientUnits="userSpaceOnUse">
<stop offset="0.488991" stop-color="#CADBE9"/>
<stop offset="1" stop-color="#EFF8FF"/>
</linearGradient>
<linearGradient id="paint16_linear_243_753" x1="169.131" y1="1.17524" x2="161.019" y2="63.3043" gradientUnits="userSpaceOnUse">
<stop stop-color="#EFF8FF"/>
<stop offset="1" stop-color="#ABC3D7"/>
</linearGradient>
<linearGradient id="paint17_linear_243_753" x1="102.214" y1="12.0115" x2="116.008" y2="10.1901" gradientUnits="userSpaceOnUse">
<stop stop-color="#D9E9F6"/>
<stop offset="0.471154" stop-color="#93BFE3"/>
<stop offset="0.823877" stop-color="#1B5381"/>
</linearGradient>
<linearGradient id="paint18_linear_243_753" x1="99.9998" y1="19.0163" x2="111.543" y2="15.2267" gradientUnits="userSpaceOnUse">
<stop stop-color="#D9E9F6"/>
<stop offset="0.471154" stop-color="#93BFE3"/>
<stop offset="0.823877" stop-color="#1B5381"/>
</linearGradient>
<linearGradient id="paint19_linear_243_753" x1="97.413" y1="25.1763" x2="109.48" y2="20.8271" gradientUnits="userSpaceOnUse">
<stop stop-color="#D9E9F6"/>
<stop offset="0.471154" stop-color="#93BFE3"/>
<stop offset="0.823877" stop-color="#1B5381"/>
</linearGradient>
<linearGradient id="paint20_linear_243_753" x1="169.131" y1="1.17524" x2="161.019" y2="63.3043" gradientUnits="userSpaceOnUse">
<stop stop-color="#EFF8FF"/>
<stop offset="1" stop-color="#ABC3D7"/>
</linearGradient>
<linearGradient id="paint21_linear_243_753" x1="187.005" y1="93.5863" x2="203.05" y2="24.5915" gradientUnits="userSpaceOnUse">
<stop stop-color="#D9E9F6"/>
<stop offset="1" stop-color="#1B5381" stop-opacity="0.780392"/>
</linearGradient>
<radialGradient id="paint22_radial_243_753" cx="0" cy="0" r="1" gradientUnits="userSpaceOnUse" gradientTransform="translate(6.07702 6.07702) rotate(90) scale(6.07702)">
<stop stop-color="#FFAFAF"/>
<stop offset="1" stop-color="#FFAFAF" stop-opacity="0"/>
</radialGradient>
<radialGradient id="paint23_radial_243_753" cx="0" cy="0" r="1" gradientUnits="userSpaceOnUse" gradientTransform="translate(4.68799 4.68799) rotate(90) scale(4.68799)">
<stop stop-color="#FFAFAF"/>
<stop offset="1" stop-color="#FFAFAF" stop-opacity="0"/>
</radialGradient>
<linearGradient id="paint24_linear_243_753" x1="217.998" y1="26.2056" x2="217.998" y2="29.0689" gradientUnits="userSpaceOnUse">
<stop stop-color="#D7567D"/>
<stop offset="1" stop-color="#FFBBCF"/>
</linearGradient>
<linearGradient id="paint25_linear_243_753" x1="218.907" y1="22.438" x2="218.189" y2="27.794" gradientUnits="userSpaceOnUse">
<stop stop-color="#89B1D1"/>
<stop offset="1" stop-color="#2E5D84"/>
</linearGradient>
<linearGradient id="paint26_linear_243_753" x1="208.718" y1="15.9886" x2="208.047" y2="20.9934" gradientUnits="userSpaceOnUse">
<stop stop-color="#93BFE3"/>
<stop offset="1" stop-color="#1279CE"/>
</linearGradient>
<linearGradient id="paint27_linear_243_753" x1="226.479" y1="17.8693" x2="225.207" y2="21.6474" gradientUnits="userSpaceOnUse">
<stop stop-color="#93BFE3"/>
<stop offset="1" stop-color="#1279CE"/>
</linearGradient>
<linearGradient id="paint28_linear_243_753" x1="105.049" y1="27.8766" x2="96.2901" y2="32.0362" gradientUnits="userSpaceOnUse">
<stop offset="0.176123" stop-color="#1B5381"/>
<stop offset="0.528846" stop-color="#93BFE3"/>
<stop offset="1" stop-color="#D9E9F6"/>
</linearGradient>
<linearGradient id="paint29_linear_243_753" x1="178.57" y1="25.5264" x2="150.492" y2="54.3993" gradientUnits="userSpaceOnUse">
<stop offset="0.488991" stop-color="#CADBE9"/>
<stop offset="1" stop-color="#EFF8FF"/>
</linearGradient>
<linearGradient id="paint30_linear_243_753" x1="132.992" y1="36.2378" x2="132.992" y2="109.738" gradientUnits="userSpaceOnUse">
<stop stop-color="#FFAFAF"/>
<stop offset="1" stop-color="#D7567D"/>
</linearGradient>
</defs>
</svg>
