<svg width="243" height="177" viewBox="0 0 243 177" fill="none" xmlns="http://www.w3.org/2000/svg">
<g clip-path="url(#clip0_245_756)">
<path d="M83.5897 175.118C70.389 174.385 51.0971 155.459 43.5596 147.311L52.4212 135.088L105.897 160.145C103.961 165.442 96.7905 175.851 83.5897 175.118Z" fill="#D9D9D9"/>
<path d="M83.5897 175.118C70.389 174.385 51.0971 155.459 43.5596 147.311L52.4212 135.088L105.897 160.145C103.961 165.442 96.7905 175.851 83.5897 175.118Z" fill="url(#paint0_linear_245_756)"/>
<path d="M41.9387 95.2994C58.2658 91.9591 77.3559 93.8888 84.5889 97.791C84.8866 97.9516 84.7119 98.315 84.3861 98.224C73.9565 95.312 53.6497 95.3473 42.0077 95.8433C41.6443 95.8588 41.5824 95.3723 41.9387 95.2994Z" fill="white"/>
<path d="M41.4264 100.978C54.3215 101.143 66.1183 107.067 72.0788 111.15C72.3706 111.35 72.1334 111.733 71.8098 111.59C58.159 105.572 49.2101 103.039 41.3817 101.512C41.0307 101.444 41.0688 100.973 41.4264 100.978Z" fill="white"/>
<path d="M40.0566 105.373C49.778 107.454 55.9956 113.939 58.6191 118.065C58.7972 118.345 58.4648 118.606 58.2148 118.387C51.3686 112.406 45.2155 108.43 39.8918 105.908C39.5751 105.758 39.7139 105.3 40.0566 105.373Z" fill="white"/>
<path d="M59.3731 66.9495C41.1901 56.6325 32.3933 57.0057 20.3899 64.3478C3.14747 74.8944 2.02256 101.495 11.9814 116.927C20.3899 131.906 33.0765 141.605 41.1901 147.21C110.672 188.784 155.677 162.07 175.949 134.065C183.472 123.671 192.766 111.189 204.051 113.87C238.792 122.124 240.783 118.15 241.89 114.482C242.996 110.813 235.473 109.896 235.473 104.699C235.473 100.542 233.85 97.8723 233.038 97.0571C227.507 93.0831 232.153 89.7204 227.949 84.8293C223.745 79.9382 229.277 79.3268 225.736 75.9642C222.196 72.6016 226.4 69.8503 223.524 64.0421C221.222 59.3956 213.123 71.0731 209.362 77.4927C208.698 79.3268 205.511 82.9952 198.077 82.9952C190.642 82.9952 184.062 92.7774 181.702 97.6685C169.31 101.337 165.77 100.42 148.731 97.6685C131.693 94.9172 116.99 79.4774 98.181 81.0059C79.3723 82.5344 71.7647 73.9805 59.3731 66.9495Z" fill="url(#paint1_linear_245_756)"/>
<path d="M225.44 75.3228C216.245 80.3598 209.584 82.9021 201.171 96.1526C201.534 90.3581 210.846 77.5925 225.44 75.3228Z" fill="url(#paint2_linear_245_756)"/>
<path d="M230.119 88.4167C221.462 91.1122 215.359 92.1471 206.125 101.78C207.317 97.0333 217.249 87.947 230.119 88.4167Z" fill="url(#paint3_linear_245_756)"/>
<path d="M234.396 100.217C225.585 101.67 219.312 102.028 210.402 108.787C211.299 105.214 220.974 98.9261 234.396 100.217Z" fill="url(#paint4_linear_245_756)"/>
<mask id="mask0_245_756" style="mask-type:alpha" maskUnits="userSpaceOnUse" x="5" y="59" width="238" height="110">
<path d="M59.3731 66.9495C41.1901 56.6325 32.3933 57.0057 20.3899 64.3478C3.14747 74.8944 2.02256 101.495 11.9814 116.927C20.3899 131.906 33.0765 141.605 41.1901 147.21C110.672 188.784 155.677 162.07 175.949 134.065C183.472 123.671 192.766 111.189 204.051 113.87C238.792 122.124 240.783 118.15 241.89 114.482C242.996 110.813 235.473 109.896 235.473 104.699C235.473 100.542 233.85 97.8723 233.038 97.0571C227.507 93.0831 232.153 89.7204 227.949 84.8293C223.745 79.9382 229.277 79.3268 225.736 75.9642C222.196 72.6016 226.4 69.8503 223.524 64.0421C221.222 59.3956 213.123 71.0731 209.362 77.4927C208.698 79.3268 205.511 82.9952 198.077 82.9952C190.642 82.9952 184.062 92.7774 181.702 97.6685C169.31 101.337 165.77 100.42 148.731 97.6685C131.693 94.9172 116.99 79.4774 98.181 81.0059C79.3723 82.5344 71.7647 73.9805 59.3731 66.9495Z" fill="url(#paint5_linear_245_756)"/>
</mask>
<g mask="url(#mask0_245_756)">
<path d="M84.8122 131.727C34.4537 120.481 21.0492 127.041 20.6417 131.727C15.6507 159.534 6.64645 215.393 10.5578 216.371C15.447 217.593 148.677 208.731 153.261 205.981C157.844 203.231 257.461 139.06 206.431 143.95C155.4 148.839 147.76 145.783 84.8122 131.727Z" fill="url(#paint6_linear_245_756)"/>
<circle cx="38.365" cy="102.086" r="10.6951" fill="url(#paint7_radial_245_756)" fill-opacity="0.43"/>
<circle cx="8.41846" cy="102.086" r="8.25049" fill="url(#paint8_radial_245_756)" fill-opacity="0.43"/>
</g>
<path d="M17.5859 106.058C17.8915 109.012 20.0916 113.27 26.4476 106.669C25.1234 105.651 21.4973 104.103 17.5859 106.058Z" fill="url(#paint9_linear_245_756)"/>
<path d="M12.2499 104.558C11.641 100.015 17.1139 98.597 19.9265 98.456C31.0143 97.5597 31.374 103.764 29.5675 106.13C27.7609 108.496 23.4321 106.127 20.0712 106.577C16.9613 106.994 13.0111 110.237 12.2499 104.558Z" fill="#D9D9D9"/>
<path d="M12.2499 104.558C11.641 100.015 17.1139 98.597 19.9265 98.456C31.0143 97.5597 31.374 103.764 29.5675 106.13C27.7609 108.496 23.4321 106.127 20.0712 106.577C16.9613 106.994 13.0111 110.237 12.2499 104.558Z" fill="url(#paint10_linear_245_756)"/>
<circle cx="0.467729" cy="0.467729" r="0.467729" transform="matrix(-0.991137 0.132845 0.132845 0.991137 24.501 99.1404)" fill="#0A3E69" fill-opacity="0.51"/>
<circle cx="0.701594" cy="0.701594" r="0.701594" transform="matrix(-0.991137 0.132845 0.132845 0.991137 26.6797 99.5562)" fill="#0A3E69" fill-opacity="0.51"/>
<circle cx="0.701594" cy="0.701594" r="0.701594" transform="matrix(-0.991137 0.132845 0.132845 0.991137 25.2129 100.933)" fill="#0A3E69" fill-opacity="0.51"/>
<circle cx="16.2806" cy="101.186" r="0.467729" transform="rotate(-7.634 16.2806 101.186)" fill="#0A3E69" fill-opacity="0.51"/>
<circle cx="14.5503" cy="102.362" r="0.701594" transform="rotate(-7.634 14.5503 102.362)" fill="#0A3E69" fill-opacity="0.51"/>
<circle cx="16.3291" cy="103.303" r="0.701594" transform="rotate(-7.634 16.3291 103.303)" fill="#0A3E69" fill-opacity="0.51"/>
<path d="M40.7191 86.3488C35.4074 84.0405 30.4426 87.1362 31.9218 92.011C34.2073 98.5002 40.454 97.8675 43.2916 96.7399C48.0732 94.5653 46.0308 88.6571 40.7191 86.3488Z" fill="#093D68"/>
<path d="M7.57881 88.1951C3.76677 89.8311 2.04497 97.6823 6.01405 99.1022C6.0667 99.121 6.12422 99.1346 6.1796 99.1423C10.7442 99.7774 12.7559 95.392 13.1921 93.1057C13.4214 89.5356 11.4165 86.5482 7.57881 88.1951Z" fill="#093D68"/>
<path d="M24.0701 96.5966C24.054 94.6899 15.1242 95.8971 15.5702 97.767C15.5843 97.826 15.6138 97.8809 15.6461 97.9322C16.6213 99.4803 18.7592 102.463 19.8903 102.59C21.0193 102.717 23.0725 98.8748 24.0083 96.8332C24.0425 96.7586 24.0707 96.6786 24.0701 96.5966Z" fill="#093D68"/>
<g filter="url(#filter0_f_245_756)">
<path d="M39.7385 95.8546C33.633 94.4815 33.2372 89.878 33.8024 87.7478C36.6451 93.7217 41.9639 94.0497 44.2681 93.467C43.3098 95.4581 40.8491 95.8883 39.7385 95.8546Z" fill="url(#paint11_linear_245_756)" fill-opacity="0.31"/>
</g>
<g filter="url(#filter1_f_245_756)">
<path d="M9.14625 97.1067C12.9972 94.0009 11.6702 90.603 10.5254 89.2922C10.5955 94.5155 6.93757 96.6065 5.09985 96.999C6.47485 98.074 8.37037 97.5187 9.14625 97.1067Z" fill="url(#paint12_linear_245_756)" fill-opacity="0.31"/>
</g>
<g filter="url(#filter2_f_245_756)">
<circle cx="34.1762" cy="89.4673" r="1.28626" transform="rotate(-7.634 34.1762 89.4673)" fill="white"/>
</g>
<g filter="url(#filter3_f_245_756)">
<circle cx="36.1478" cy="90.9727" r="0.467729" transform="rotate(-7.634 36.1478 90.9727)" fill="white"/>
</g>
<g filter="url(#filter4_f_245_756)">
<circle cx="9.86263" cy="93.7879" r="0.467729" transform="rotate(-7.634 9.86263 93.7879)" fill="white"/>
</g>
<g filter="url(#filter5_f_245_756)">
<circle cx="10.3158" cy="91.0136" r="1.28626" transform="rotate(-7.634 10.3158 91.0136)" fill="white"/>
</g>
<ellipse cx="2.7831" cy="1.3721" rx="2.7831" ry="1.3721" transform="matrix(-0.910181 0.41421 0.41421 0.910181 9.24707 82.5444)" fill="#93BFE3"/>
<ellipse cx="36.3804" cy="81.9899" rx="2.7831" ry="1.3721" transform="rotate(9.20159 36.3804 81.9899)" fill="#93BFE3"/>
<path d="M36.7598 99.2329C43.0105 98.2798 49.7743 98.9069 53.1781 100.241C53.493 100.364 53.3557 100.679 53.0253 100.607C48.713 99.6651 41.7281 99.5815 36.8165 99.7197C36.453 99.7299 36.4003 99.2878 36.7598 99.2329Z" fill="white"/>
<path d="M36.2923 102.146C40.7396 102.533 44.7708 104.329 47.3564 105.884C47.6596 106.066 47.4611 106.41 47.1357 106.271C42.5152 104.302 39.1524 103.269 36.2427 102.614C35.8938 102.535 35.936 102.115 36.2923 102.146Z" fill="white"/>
<path d="M35.4148 104.354C38.5615 105.351 40.7554 107.367 41.9772 108.97C42.1784 109.234 41.886 109.476 41.6322 109.262C39.3075 107.301 37.1701 105.863 35.2481 104.836C34.939 104.671 35.0807 104.248 35.4148 104.354Z" fill="white"/>
<path d="M10.6445 102.572C4.39376 101.619 -2.36995 102.246 -5.77377 103.58C-6.0887 103.703 -5.95145 104.018 -5.62099 103.946C-1.30866 103.004 5.67623 102.921 10.5878 103.059C10.9513 103.069 11.004 102.627 10.6445 102.572Z" fill="white"/>
<path d="M11.112 105.486C6.66467 105.873 2.63354 107.669 0.0478737 109.223C-0.255271 109.405 -0.0568246 109.749 0.268553 109.61C4.88912 107.641 8.25193 106.608 11.1616 105.953C11.5105 105.875 11.4683 105.455 11.112 105.486Z" fill="white"/>
<path d="M11.9895 107.693C8.84277 108.691 6.64892 110.707 5.42714 112.309C5.22585 112.573 5.51832 112.816 5.77211 112.602C8.0968 110.641 10.2342 109.203 12.1562 108.175C12.4653 108.01 12.3236 107.588 11.9895 107.693Z" fill="white"/>
<path d="M212.236 112.943C221.134 112.197 227.504 112.226 236.23 107.102C235.5 110.007 225.971 114.702 212.236 112.943Z" fill="url(#paint13_linear_245_756)"/>
<path d="M157.043 139.886C126.271 176.186 101.34 159.508 92.7212 146.632C84.8671 128.928 86.1259 117.493 96.1178 120.726C106.508 124.087 122.707 129.818 129.04 130.056C135.373 130.294 144.507 133.952 151.123 131.967C156.415 130.379 159.71 131.356 160.696 132.044C161.32 133.323 158.521 137.805 157.043 139.886Z" fill="url(#paint14_linear_245_756)"/>
<path d="M91.5352 90.1686C88.8461 85.0349 102.638 86.1961 109.87 87.4184C123.009 90.1686 118.12 92.002 124.843 99.6414C131.565 107.281 118.426 109.42 116.592 107.281C114.759 105.142 101.619 108.809 104.064 101.78C106.508 94.7522 94.8965 96.5856 91.5352 90.1686Z" fill="#A7C7E1" fill-opacity="0.39"/>
<path d="M129.426 97.1968C131.137 94.7522 134.213 97.1968 135.537 98.7246C137.37 101.475 135.537 103.308 131.565 102.391C127.592 101.475 127.287 100.252 129.426 97.1968Z" fill="#A7C7E1" fill-opacity="0.23"/>
<path d="M123.315 114.614C118.67 111.925 130.954 109.216 137.677 108.197C152.039 104.309 141.343 117.976 136.76 114.614C132.176 111.253 135.843 125.004 129.12 121.643C122.398 118.281 129.121 117.976 123.315 114.614Z" fill="#A7C7E1" fill-opacity="0.22"/>
<path d="M146.232 104.836C147.21 101.169 154.381 103.308 157.844 104.836C164.872 107.586 160.9 114.003 157.844 114.615C154.788 115.226 153.566 110.642 152.649 108.198C151.732 105.753 145.01 109.42 146.232 104.836Z" fill="#A7C7E1" fill-opacity="0.39"/>
<path d="M82.0611 95.0578C81.0833 92.6132 85.3206 93.0206 87.5614 93.5299C95.5063 97.1968 87.5614 101.78 86.6447 98.4191C85.728 95.0578 83.2834 98.1135 82.0611 95.0578Z" fill="#A7C7E1" fill-opacity="0.13"/>
<path d="M165.67 110.948C163.714 108.503 168.522 106.669 171.17 106.058C174.531 106.058 173.309 108.809 179.726 112.475C186.143 116.142 155.435 128.671 156.658 121.643C157.88 114.614 168.114 114.003 165.67 110.948Z" fill="#A7C7E1" fill-opacity="0.25"/>
<path d="M174.011 66.9793C181.512 66.5626 192.474 55.8092 196.757 51.1791L191.722 44.2339L161.336 58.4715C162.436 61.4811 166.511 67.396 174.011 66.9793Z" fill="#D9D9D9"/>
<path d="M174.011 66.9793C181.512 66.5626 192.474 55.8092 196.757 51.1791L191.722 44.2339L161.336 58.4715C162.436 61.4811 166.511 67.396 174.011 66.9793Z" fill="url(#paint15_linear_245_756)"/>
<path d="M196.342 21.3743C187.869 19.9181 178.444 20.8183 174.135 22.7062C173.825 22.842 173.976 23.1734 174.305 23.0947C179.994 21.7341 189.83 21.6669 196.281 21.8829C196.644 21.8951 196.701 21.4359 196.342 21.3743Z" fill="white"/>
<path d="M196.816 24.8935C190.527 25.2636 184.813 27.9224 181.43 30.0553C181.131 30.2439 181.343 30.602 181.668 30.4617C188.257 27.6146 192.869 26.2366 196.865 25.386C197.214 25.3115 197.173 24.8725 196.816 24.8935Z" fill="white"/>
<path d="M197.798 27.5825C193.231 28.8447 190.15 31.8041 188.588 33.9886C188.395 34.2587 188.701 34.5083 188.953 34.2925C192.267 31.458 195.287 29.4552 197.965 28.0857C198.277 27.9261 198.136 27.4892 197.798 27.5825Z" fill="white"/>
<path d="M187.772 5.51697C198.103 -0.345233 203.102 -0.133182 209.922 4.03866C219.72 10.0313 220.359 25.1457 214.7 33.9147C209.922 42.4259 202.714 47.937 198.103 51.1214C158.624 74.7443 133.051 59.5649 121.533 43.6524C117.258 37.7467 111.977 30.6542 105.565 32.1777C85.8248 36.8675 84.6933 34.6095 84.0646 32.5251C83.4359 30.4407 87.7108 29.9196 87.7108 26.9668C87.7108 24.6045 88.6328 23.0875 89.0938 22.6243C92.2371 20.3662 89.5968 18.4556 91.9857 15.6764C94.3746 12.8972 91.2313 12.5499 93.243 10.6392C95.2547 8.7285 92.8658 7.16522 94.5003 3.86496C95.8079 1.22476 100.41 7.86001 102.547 11.5077C102.924 12.5498 104.735 14.6342 108.959 14.6342C113.184 14.6342 116.923 20.1925 118.264 22.9717C125.305 25.0561 127.316 24.535 136.998 22.9717C146.679 21.4084 155.034 12.6354 165.721 13.5039C176.408 14.3724 180.731 9.51202 187.772 5.51697Z" fill="url(#paint16_linear_245_756)"/>
<path d="M93.4115 10.2749C98.636 13.137 102.421 14.5815 107.201 22.1106C106.995 18.8181 101.704 11.5646 93.4115 10.2749Z" fill="url(#paint17_linear_245_756)"/>
<path d="M90.7531 17.715C95.6721 19.2465 99.1397 19.8346 104.387 25.3083C103.709 22.611 98.0661 17.4481 90.7531 17.715Z" fill="url(#paint18_linear_245_756)"/>
<path d="M88.3226 24.42C93.3287 25.2456 96.8934 25.4486 101.956 29.2895C101.446 27.2591 95.9488 23.6864 88.3226 24.42Z" fill="url(#paint19_linear_245_756)"/>
<mask id="mask1_245_756" style="mask-type:alpha" maskUnits="userSpaceOnUse" x="84" y="1" width="135" height="63">
<path d="M187.772 5.51697C198.103 -0.345233 203.102 -0.133182 209.922 4.03866C219.72 10.0313 220.359 25.1457 214.7 33.9147C209.922 42.4259 202.714 47.937 198.103 51.1214C158.624 74.7443 133.051 59.5649 121.533 43.6524C117.258 37.7467 111.977 30.6542 105.565 32.1777C85.8248 36.8675 84.6933 34.6095 84.0646 32.5251C83.4359 30.4407 87.7108 29.9196 87.7108 26.9668C87.7108 24.6045 88.6328 23.0875 89.0938 22.6243C92.2371 20.3662 89.5968 18.4556 91.9857 15.6764C94.3746 12.8972 91.2313 12.5499 93.243 10.6392C95.2547 8.7285 92.8658 7.16522 94.5003 3.86496C95.8079 1.22476 100.41 7.86001 102.547 11.5077C102.924 12.5498 104.735 14.6342 108.959 14.6342C113.184 14.6342 116.923 20.1925 118.264 22.9717C125.305 25.0561 127.316 24.535 136.998 22.9717C146.679 21.4084 155.034 12.6354 165.721 13.5039C176.408 14.3724 180.731 9.51202 187.772 5.51697Z" fill="url(#paint20_linear_245_756)"/>
</mask>
<g mask="url(#mask1_245_756)">
<path d="M173.317 42.3239C201.931 35.9343 209.548 39.6616 209.78 42.3239C212.615 58.1242 217.732 89.8636 215.509 90.4192C212.731 91.1137 137.029 86.0785 134.424 84.5158C131.82 82.9531 75.2168 46.491 104.213 49.2691C133.209 52.0471 137.55 50.3108 173.317 42.3239Z" fill="url(#paint21_linear_245_756)"/>
<circle cx="6.07702" cy="6.07702" r="6.07702" transform="matrix(-1 0 0 1 205.786 19.4048)" fill="url(#paint22_radial_245_756)" fill-opacity="0.43"/>
<circle cx="4.68799" cy="4.68799" r="4.68799" transform="matrix(-1 0 0 1 221.413 20.7939)" fill="url(#paint23_radial_245_756)" fill-opacity="0.43"/>
</g>
<path d="M211.516 27.7389C211.342 29.4174 210.092 31.8366 206.48 28.0862C207.233 27.5074 209.293 26.6277 211.516 27.7389Z" fill="url(#paint24_linear_245_756)"/>
<path d="M214.547 26.8865C214.893 24.305 211.783 23.4994 210.185 23.4193C203.885 22.9101 203.681 26.4356 204.707 27.7798C205.734 29.124 208.193 27.7778 210.103 28.0338C211.87 28.2706 214.115 30.1133 214.547 26.8865Z" fill="#D9D9D9"/>
<path d="M214.547 26.8865C214.893 24.305 211.783 23.4994 210.185 23.4193C203.885 22.9101 203.681 26.4356 204.707 27.7798C205.734 29.124 208.193 27.7778 210.103 28.0338C211.87 28.2706 214.115 30.1133 214.547 26.8865Z" fill="url(#paint25_linear_245_756)"/>
<circle cx="207.814" cy="24.1068" r="0.265767" transform="rotate(7.634 207.814 24.1068)" fill="#0A3E69" fill-opacity="0.51"/>
<circle cx="206.69" cy="24.4925" r="0.398651" transform="rotate(7.634 206.69 24.4925)" fill="#0A3E69" fill-opacity="0.51"/>
<circle cx="207.523" cy="25.2742" r="0.398651" transform="rotate(7.634 207.523 25.2742)" fill="#0A3E69" fill-opacity="0.51"/>
<circle cx="0.265767" cy="0.265767" r="0.265767" transform="matrix(-0.991137 -0.132845 -0.132845 0.991137 212.555 24.7422)" fill="#0A3E69" fill-opacity="0.51"/>
<circle cx="0.398651" cy="0.398651" r="0.398651" transform="matrix(-0.991137 -0.132845 -0.132845 0.991137 213.688 25.2964)" fill="#0A3E69" fill-opacity="0.51"/>
<circle cx="0.398651" cy="0.398651" r="0.398651" transform="matrix(-0.991137 -0.132845 -0.132845 0.991137 212.677 25.8311)" fill="#0A3E69" fill-opacity="0.51"/>
<path d="M198.371 16.5396C201.389 15.228 204.21 16.987 203.369 19.7569C202.071 23.4441 198.521 23.0846 196.909 22.4439C194.192 21.2083 195.353 17.8512 198.371 16.5396Z" fill="#093D68"/>
<path d="M217.201 17.5887C219.356 18.5135 220.336 22.9338 218.125 23.7735C218.072 23.7933 218.015 23.8066 217.96 23.8138C215.392 24.1465 214.258 21.6719 214.012 20.3789C213.881 18.3504 215.021 16.6529 217.201 17.5887Z" fill="#093D68"/>
<path d="M207.835 22.3103C208.004 21.3141 212.791 21.9662 212.667 22.9894C212.66 23.0495 212.628 23.1039 212.596 23.1551C212.033 24.0436 210.84 25.6967 210.206 25.7679C209.573 25.8389 208.43 23.7175 207.888 22.5461C207.854 22.4716 207.822 22.3912 207.835 22.3103Z" fill="#093D68"/>
<g filter="url(#filter6_f_245_756)">
<path d="M198.927 21.9411C202.397 21.1609 202.621 18.5451 202.3 17.3347C200.685 20.7292 197.663 20.9155 196.354 20.5844C196.898 21.7158 198.296 21.9602 198.927 21.9411Z" fill="url(#paint26_linear_245_756)" fill-opacity="0.31"/>
</g>
<g filter="url(#filter7_f_245_756)">
<path d="M216.31 22.6522C214.122 20.8875 214.876 18.9567 215.527 18.212C215.487 21.1799 217.565 22.368 218.609 22.591C217.828 23.2018 216.751 22.8863 216.31 22.6522Z" fill="url(#paint27_linear_245_756)" fill-opacity="0.31"/>
</g>
<g filter="url(#filter8_f_245_756)">
<circle cx="0.73086" cy="0.73086" r="0.73086" transform="matrix(-0.991137 -0.132845 -0.132845 0.991137 202.91 17.6841)" fill="white"/>
</g>
<g filter="url(#filter9_f_245_756)">
<circle cx="0.265767" cy="0.265767" r="0.265767" transform="matrix(-0.991137 -0.132845 -0.132845 0.991137 201.267 18.939)" fill="white"/>
</g>
<g filter="url(#filter10_f_245_756)">
<circle cx="0.265767" cy="0.265767" r="0.265767" transform="matrix(-0.991137 -0.132845 -0.132845 0.991137 216.202 20.5386)" fill="white"/>
</g>
<g filter="url(#filter11_f_245_756)">
<circle cx="0.73086" cy="0.73086" r="0.73086" transform="matrix(-0.991137 -0.132845 -0.132845 0.991137 216.467 18.563)" fill="white"/>
</g>
<ellipse cx="217.369" cy="15.7426" rx="1.58138" ry="0.779636" transform="rotate(24.4696 217.369 15.7426)" fill="#93BFE3"/>
<ellipse cx="1.58138" cy="0.779636" rx="1.58138" ry="0.779636" transform="matrix(-0.987132 0.159909 0.159909 0.987132 202.272 13.0405)" fill="#93BFE3"/>
<path d="M199.272 23.6978C196.541 23.4517 193.802 23.6888 192.022 24.191C191.697 24.2828 191.8 24.553 192.134 24.4985C194.172 24.1662 196.915 24.0877 199.229 24.1111C199.592 24.1148 199.634 23.7304 199.272 23.6978Z" fill="white"/>
<path d="M199.743 25.6705C198.138 25.962 196.675 26.5375 195.518 27.1302C195.203 27.2915 195.367 27.59 195.695 27.4577C197.3 26.81 198.624 26.3733 199.795 26.0585C200.14 25.9656 200.095 25.6066 199.743 25.6705Z" fill="white"/>
<path d="M200.476 27.1263C199.465 27.6009 198.672 28.2496 198.102 28.8648C197.876 29.1082 198.127 29.3278 198.386 29.1203C199.177 28.4872 199.926 27.9622 200.632 27.5305C200.931 27.3476 200.793 26.9774 200.476 27.1263Z" fill="white"/>
<path d="M216.809 25.5953C219.539 25.3491 222.278 25.5863 224.058 26.0884C224.383 26.1803 224.28 26.4505 223.946 26.396C221.908 26.0636 219.166 25.9851 216.852 26.0086C216.488 26.0122 216.446 25.6279 216.809 25.5953Z" fill="white"/>
<path d="M216.337 27.568C217.942 27.8595 219.405 28.4349 220.562 29.0277C220.877 29.189 220.713 29.4875 220.385 29.3552C218.78 28.7075 217.456 28.2708 216.285 27.9559C215.94 27.8631 215.985 27.504 216.337 27.568Z" fill="white"/>
<path d="M215.604 29.0238C216.615 29.4983 217.408 30.147 217.978 30.7623C218.204 31.0057 217.953 31.2253 217.694 31.0178C216.904 30.3846 216.154 29.8596 215.448 29.428C215.149 29.2451 215.287 28.8748 215.604 29.0238Z" fill="white"/>
<path d="M100.914 31.6506C95.858 31.2269 92.2382 31.2431 87.2803 28.3317C87.6948 29.9825 93.1092 32.6499 100.914 31.6506Z" fill="url(#paint28_linear_245_756)"/>
<path d="M132.275 46.9601C149.76 67.586 163.926 58.1097 168.823 50.7933C173.286 40.7338 172.571 34.2365 166.893 36.0733C160.99 37.9832 151.785 41.2392 148.187 41.3746C144.589 41.51 139.398 43.5883 135.639 42.4604C132.632 41.558 130.76 42.1135 130.2 42.504C129.845 43.231 131.436 45.7777 132.275 46.9601Z" fill="url(#paint29_linear_245_756)"/>
<path d="M169.498 18.71C171.026 15.793 163.189 16.4528 159.08 17.1473C151.614 18.71 154.392 19.7518 150.572 24.0925C146.752 28.4332 154.218 29.6486 155.26 28.4332C156.302 27.2178 163.768 29.3014 162.379 25.3079C160.99 21.3144 167.588 22.3562 169.498 18.71Z" fill="#A7C7E1" fill-opacity="0.39"/>
<path d="M147.968 22.7035C146.995 21.3145 145.247 22.7035 144.495 23.5717C143.453 25.1343 144.495 26.1761 146.752 25.6552C149.009 25.1343 149.183 24.4398 147.968 22.7035Z" fill="#A7C7E1" fill-opacity="0.23"/>
<path d="M151.44 32.6003C154.079 31.0723 147.099 29.5328 143.279 28.9541C135.119 26.7447 141.196 34.5102 143.8 32.6003C146.405 30.6904 144.321 38.5037 148.141 36.5938C151.961 34.6838 148.141 34.5102 151.44 32.6003Z" fill="#A7C7E1" fill-opacity="0.22"/>
<path d="M138.418 27.0445C137.862 24.9609 133.788 26.1763 131.82 27.0445C127.826 28.6071 130.084 32.2534 131.82 32.6006C133.556 32.9479 134.251 30.3434 134.772 28.9544C135.293 27.5654 139.112 29.6489 138.418 27.0445Z" fill="#A7C7E1" fill-opacity="0.39"/>
<path d="M174.88 21.4881C175.436 20.099 173.028 20.3305 171.755 20.6199C167.24 22.7035 171.755 25.3079 172.276 23.398C172.796 21.4881 174.186 23.2243 174.88 21.4881Z" fill="#A7C7E1" fill-opacity="0.13"/>
<path d="M127.374 30.5168C128.485 29.1278 125.753 28.086 124.248 27.7388C122.339 27.7388 123.033 29.3014 119.387 31.385C115.741 33.4685 133.189 40.5873 132.494 36.5939C131.8 32.6004 125.985 32.2531 127.374 30.5168Z" fill="#A7C7E1" fill-opacity="0.25"/>
<path d="M123.992 110.738L122.269 109.589C114.081 104.121 103.72 97.9404 96.0468 88.8562C87.9599 79.2859 84.0801 69.4572 84.1796 58.8054C84.3002 46.9115 93.838 37.2378 105.441 37.2378C114.65 37.2378 120.773 42.5972 123.992 46.4655C127.212 42.5972 133.335 37.2378 142.543 37.2378C154.146 37.2378 163.684 46.9115 163.805 58.7997C163.912 69.4572 160.032 79.2802 151.937 88.8505C144.264 97.9404 133.903 104.121 125.715 109.589L123.992 110.738Z" fill="url(#paint30_linear_245_756)"/>
</g>
<defs>
<filter id="filter0_f_245_756" x="29.6162" y="83.7478" width="18.6514" height="16.1086" filterUnits="userSpaceOnUse" color-interpolation-filters="sRGB">
<feFlood flood-opacity="0" result="BackgroundImageFix"/>
<feBlend mode="normal" in="SourceGraphic" in2="BackgroundImageFix" result="shape"/>
<feGaussianBlur stdDeviation="2" result="effect1_foregroundBlur_245_756"/>
</filter>
<filter id="filter1_f_245_756" x="1.09961" y="85.2922" width="14.6099" height="16.3301" filterUnits="userSpaceOnUse" color-interpolation-filters="sRGB">
<feFlood flood-opacity="0" result="BackgroundImageFix"/>
<feBlend mode="normal" in="SourceGraphic" in2="BackgroundImageFix" result="shape"/>
<feGaussianBlur stdDeviation="2" result="effect1_foregroundBlur_245_756"/>
</filter>
<filter id="filter2_f_245_756" x="28.9896" y="84.2809" width="10.3732" height="10.3728" filterUnits="userSpaceOnUse" color-interpolation-filters="sRGB">
<feFlood flood-opacity="0" result="BackgroundImageFix"/>
<feBlend mode="normal" in="SourceGraphic" in2="BackgroundImageFix" result="shape"/>
<feGaussianBlur stdDeviation="1.95" result="effect1_foregroundBlur_245_756"/>
</filter>
<filter id="filter3_f_245_756" x="31.7797" y="86.6049" width="8.73555" height="8.73555" filterUnits="userSpaceOnUse" color-interpolation-filters="sRGB">
<feFlood flood-opacity="0" result="BackgroundImageFix"/>
<feBlend mode="normal" in="SourceGraphic" in2="BackgroundImageFix" result="shape"/>
<feGaussianBlur stdDeviation="1.95" result="effect1_foregroundBlur_245_756"/>
</filter>
<filter id="filter4_f_245_756" x="5.49502" y="89.4201" width="8.73555" height="8.73555" filterUnits="userSpaceOnUse" color-interpolation-filters="sRGB">
<feFlood flood-opacity="0" result="BackgroundImageFix"/>
<feBlend mode="normal" in="SourceGraphic" in2="BackgroundImageFix" result="shape"/>
<feGaussianBlur stdDeviation="1.95" result="effect1_foregroundBlur_245_756"/>
</filter>
<filter id="filter5_f_245_756" x="5.1293" y="85.8273" width="10.3728" height="10.3728" filterUnits="userSpaceOnUse" color-interpolation-filters="sRGB">
<feFlood flood-opacity="0" result="BackgroundImageFix"/>
<feBlend mode="normal" in="SourceGraphic" in2="BackgroundImageFix" result="shape"/>
<feGaussianBlur stdDeviation="1.95" result="effect1_foregroundBlur_245_756"/>
</filter>
<filter id="filter6_f_245_756" x="192.354" y="13.335" width="14.0527" height="12.6069" filterUnits="userSpaceOnUse" color-interpolation-filters="sRGB">
<feFlood flood-opacity="0" result="BackgroundImageFix"/>
<feBlend mode="normal" in="SourceGraphic" in2="BackgroundImageFix" result="shape"/>
<feGaussianBlur stdDeviation="2" result="effect1_foregroundBlur_245_756"/>
</filter>
<filter id="filter7_f_245_756" x="210.854" y="14.2119" width="11.7559" height="12.7334" filterUnits="userSpaceOnUse" color-interpolation-filters="sRGB">
<feFlood flood-opacity="0" result="BackgroundImageFix"/>
<feBlend mode="normal" in="SourceGraphic" in2="BackgroundImageFix" result="shape"/>
<feGaussianBlur stdDeviation="2" result="effect1_foregroundBlur_245_756"/>
</filter>
<filter id="filter8_f_245_756" x="197.457" y="13.6806" width="9.26191" height="9.26191" filterUnits="userSpaceOnUse" color-interpolation-filters="sRGB">
<feFlood flood-opacity="0" result="BackgroundImageFix"/>
<feBlend mode="normal" in="SourceGraphic" in2="BackgroundImageFix" result="shape"/>
<feGaussianBlur stdDeviation="1.95" result="effect1_foregroundBlur_245_756"/>
</filter>
<filter id="filter9_f_245_756" x="196.802" y="15.0014" width="8.33125" height="8.33174" filterUnits="userSpaceOnUse" color-interpolation-filters="sRGB">
<feFlood flood-opacity="0" result="BackgroundImageFix"/>
<feBlend mode="normal" in="SourceGraphic" in2="BackgroundImageFix" result="shape"/>
<feGaussianBlur stdDeviation="1.95" result="effect1_foregroundBlur_245_756"/>
</filter>
<filter id="filter10_f_245_756" x="211.738" y="16.601" width="8.33125" height="8.33174" filterUnits="userSpaceOnUse" color-interpolation-filters="sRGB">
<feFlood flood-opacity="0" result="BackgroundImageFix"/>
<feBlend mode="normal" in="SourceGraphic" in2="BackgroundImageFix" result="shape"/>
<feGaussianBlur stdDeviation="1.95" result="effect1_foregroundBlur_245_756"/>
</filter>
<filter id="filter11_f_245_756" x="211.014" y="14.5595" width="9.26191" height="9.26191" filterUnits="userSpaceOnUse" color-interpolation-filters="sRGB">
<feFlood flood-opacity="0" result="BackgroundImageFix"/>
<feBlend mode="normal" in="SourceGraphic" in2="BackgroundImageFix" result="shape"/>
<feGaussianBlur stdDeviation="1.95" result="effect1_foregroundBlur_245_756"/>
</filter>
<linearGradient id="paint0_linear_245_756" x1="62.9114" y1="124.819" x2="72.649" y2="176.214" gradientUnits="userSpaceOnUse">
<stop offset="0.488991" stop-color="#CADBE9"/>
<stop offset="1" stop-color="#EFF8FF"/>
</linearGradient>
<linearGradient id="paint1_linear_245_756" x1="108.019" y1="61.0683" x2="122.295" y2="170.411" gradientUnits="userSpaceOnUse">
<stop stop-color="#EFF8FF"/>
<stop offset="1" stop-color="#ABC3D7"/>
</linearGradient>
<linearGradient id="paint2_linear_245_756" x1="225.786" y1="80.139" x2="201.511" y2="76.9335" gradientUnits="userSpaceOnUse">
<stop stop-color="#D9E9F6"/>
<stop offset="0.471154" stop-color="#93BFE3"/>
<stop offset="0.823877" stop-color="#1B5381"/>
</linearGradient>
<linearGradient id="paint3_linear_245_756" x1="229.685" y1="92.4669" x2="209.369" y2="85.7974" gradientUnits="userSpaceOnUse">
<stop stop-color="#D9E9F6"/>
<stop offset="0.471154" stop-color="#93BFE3"/>
<stop offset="0.823877" stop-color="#1B5381"/>
</linearGradient>
<linearGradient id="paint4_linear_245_756" x1="234.237" y1="103.308" x2="213" y2="95.6539" gradientUnits="userSpaceOnUse">
<stop stop-color="#D9E9F6"/>
<stop offset="0.471154" stop-color="#93BFE3"/>
<stop offset="0.823877" stop-color="#1B5381"/>
</linearGradient>
<linearGradient id="paint5_linear_245_756" x1="108.019" y1="61.0683" x2="122.295" y2="170.411" gradientUnits="userSpaceOnUse">
<stop stop-color="#EFF8FF"/>
<stop offset="1" stop-color="#ABC3D7"/>
</linearGradient>
<linearGradient id="paint6_linear_245_756" x1="76.5616" y1="223.704" x2="48.3239" y2="102.279" gradientUnits="userSpaceOnUse">
<stop stop-color="#D9E9F6"/>
<stop offset="1" stop-color="#1B5381" stop-opacity="0.780392"/>
</linearGradient>
<radialGradient id="paint7_radial_245_756" cx="0" cy="0" r="1" gradientUnits="userSpaceOnUse" gradientTransform="translate(38.365 102.086) rotate(90) scale(10.6951)">
<stop stop-color="#FFAFAF"/>
<stop offset="1" stop-color="#FFAFAF" stop-opacity="0"/>
</radialGradient>
<radialGradient id="paint8_radial_245_756" cx="0" cy="0" r="1" gradientUnits="userSpaceOnUse" gradientTransform="translate(8.41846 102.086) rotate(90) scale(8.25049)">
<stop stop-color="#FFAFAF"/>
<stop offset="1" stop-color="#FFAFAF" stop-opacity="0"/>
</radialGradient>
<linearGradient id="paint9_linear_245_756" x1="22.0168" y1="105.12" x2="22.0168" y2="110.159" gradientUnits="userSpaceOnUse">
<stop stop-color="#D7567D"/>
<stop offset="1" stop-color="#FFBBCF"/>
</linearGradient>
<linearGradient id="paint10_linear_245_756" x1="20.4156" y1="98.4889" x2="21.679" y2="107.915" gradientUnits="userSpaceOnUse">
<stop stop-color="#89B1D1"/>
<stop offset="1" stop-color="#2E5D84"/>
</linearGradient>
<linearGradient id="paint11_linear_245_756" x1="38.3468" y1="87.1387" x2="39.5274" y2="95.9468" gradientUnits="userSpaceOnUse">
<stop stop-color="#93BFE3"/>
<stop offset="1" stop-color="#1279CE"/>
</linearGradient>
<linearGradient id="paint12_linear_245_756" x1="7.08955" y1="90.449" x2="9.32822" y2="97.0982" gradientUnits="userSpaceOnUse">
<stop stop-color="#93BFE3"/>
<stop offset="1" stop-color="#1279CE"/>
</linearGradient>
<linearGradient id="paint13_linear_245_756" x1="220.798" y1="108.061" x2="236.213" y2="115.381" gradientUnits="userSpaceOnUse">
<stop offset="0.176123" stop-color="#1B5381"/>
<stop offset="0.528846" stop-color="#93BFE3"/>
<stop offset="1" stop-color="#D9E9F6"/>
</linearGradient>
<linearGradient id="paint14_linear_245_756" x1="91.4064" y1="103.924" x2="140.823" y2="154.738" gradientUnits="userSpaceOnUse">
<stop offset="0.488991" stop-color="#CADBE9"/>
<stop offset="1" stop-color="#EFF8FF"/>
</linearGradient>
<linearGradient id="paint15_linear_245_756" x1="185.761" y1="38.3989" x2="180.228" y2="67.6022" gradientUnits="userSpaceOnUse">
<stop offset="0.488991" stop-color="#CADBE9"/>
<stop offset="1" stop-color="#EFF8FF"/>
</linearGradient>
<linearGradient id="paint16_linear_245_756" x1="160.131" y1="2.17524" x2="152.019" y2="64.3043" gradientUnits="userSpaceOnUse">
<stop stop-color="#EFF8FF"/>
<stop offset="1" stop-color="#ABC3D7"/>
</linearGradient>
<linearGradient id="paint17_linear_245_756" x1="93.2145" y1="13.0115" x2="107.008" y2="11.1901" gradientUnits="userSpaceOnUse">
<stop stop-color="#D9E9F6"/>
<stop offset="0.471154" stop-color="#93BFE3"/>
<stop offset="0.823877" stop-color="#1B5381"/>
</linearGradient>
<linearGradient id="paint18_linear_245_756" x1="90.9998" y1="20.0163" x2="102.543" y2="16.2267" gradientUnits="userSpaceOnUse">
<stop stop-color="#D9E9F6"/>
<stop offset="0.471154" stop-color="#93BFE3"/>
<stop offset="0.823877" stop-color="#1B5381"/>
</linearGradient>
<linearGradient id="paint19_linear_245_756" x1="88.413" y1="26.1763" x2="100.48" y2="21.8271" gradientUnits="userSpaceOnUse">
<stop stop-color="#D9E9F6"/>
<stop offset="0.471154" stop-color="#93BFE3"/>
<stop offset="0.823877" stop-color="#1B5381"/>
</linearGradient>
<linearGradient id="paint20_linear_245_756" x1="160.131" y1="2.17524" x2="152.019" y2="64.3043" gradientUnits="userSpaceOnUse">
<stop stop-color="#EFF8FF"/>
<stop offset="1" stop-color="#ABC3D7"/>
</linearGradient>
<linearGradient id="paint21_linear_245_756" x1="178.005" y1="94.5863" x2="194.05" y2="25.5915" gradientUnits="userSpaceOnUse">
<stop stop-color="#D9E9F6"/>
<stop offset="1" stop-color="#1B5381" stop-opacity="0.780392"/>
</linearGradient>
<radialGradient id="paint22_radial_245_756" cx="0" cy="0" r="1" gradientUnits="userSpaceOnUse" gradientTransform="translate(6.07702 6.07702) rotate(90) scale(6.07702)">
<stop stop-color="#FFAFAF"/>
<stop offset="1" stop-color="#FFAFAF" stop-opacity="0"/>
</radialGradient>
<radialGradient id="paint23_radial_245_756" cx="0" cy="0" r="1" gradientUnits="userSpaceOnUse" gradientTransform="translate(4.68799 4.68799) rotate(90) scale(4.68799)">
<stop stop-color="#FFAFAF"/>
<stop offset="1" stop-color="#FFAFAF" stop-opacity="0"/>
</radialGradient>
<linearGradient id="paint24_linear_245_756" x1="208.998" y1="27.2056" x2="208.998" y2="30.0689" gradientUnits="userSpaceOnUse">
<stop stop-color="#D7567D"/>
<stop offset="1" stop-color="#FFBBCF"/>
</linearGradient>
<linearGradient id="paint25_linear_245_756" x1="209.907" y1="23.438" x2="209.189" y2="28.794" gradientUnits="userSpaceOnUse">
<stop stop-color="#89B1D1"/>
<stop offset="1" stop-color="#2E5D84"/>
</linearGradient>
<linearGradient id="paint26_linear_245_756" x1="199.718" y1="16.9886" x2="199.047" y2="21.9934" gradientUnits="userSpaceOnUse">
<stop stop-color="#93BFE3"/>
<stop offset="1" stop-color="#1279CE"/>
</linearGradient>
<linearGradient id="paint27_linear_245_756" x1="217.479" y1="18.8693" x2="216.207" y2="22.6474" gradientUnits="userSpaceOnUse">
<stop stop-color="#93BFE3"/>
<stop offset="1" stop-color="#1279CE"/>
</linearGradient>
<linearGradient id="paint28_linear_245_756" x1="96.0488" y1="28.8766" x2="87.2901" y2="33.0362" gradientUnits="userSpaceOnUse">
<stop offset="0.176123" stop-color="#1B5381"/>
<stop offset="0.528846" stop-color="#93BFE3"/>
<stop offset="1" stop-color="#D9E9F6"/>
</linearGradient>
<linearGradient id="paint29_linear_245_756" x1="169.57" y1="26.5264" x2="141.492" y2="55.3993" gradientUnits="userSpaceOnUse">
<stop offset="0.488991" stop-color="#CADBE9"/>
<stop offset="1" stop-color="#EFF8FF"/>
</linearGradient>
<linearGradient id="paint30_linear_245_756" x1="123.992" y1="37.2378" x2="123.992" y2="110.738" gradientUnits="userSpaceOnUse">
<stop stop-color="#FFAFAF"/>
<stop offset="1" stop-color="#D7567D"/>
</linearGradient>
<clipPath id="clip0_245_756">
<rect width="243" height="177" fill="white"/>
</clipPath>
</defs>
</svg>
