<svg width="217" height="208" viewBox="0 0 217 208" fill="none" xmlns="http://www.w3.org/2000/svg">
<path d="M128.442 67.6787C68.5161 68.5087 50.4913 130.828 48.9696 161.883L48.1047 197.412H216.802L213.102 142.012C209.851 119.325 188.368 66.8487 128.442 67.6787Z" fill="#D9D9D9"/>
<path d="M128.442 67.6787C68.5161 68.5087 50.4913 130.828 48.9696 161.883L48.1047 197.412H216.802L213.102 142.012C209.851 119.325 188.368 66.8487 128.442 67.6787Z" fill="url(#paint0_linear_243_492)"/>
<path d="M118.72 158.365C134.094 157.029 154.658 161.906 163.018 164.511C170.575 167.033 179.978 175.237 183.734 179.024C192.521 184.377 194.087 191.865 193.771 194.94C189.04 193.637 182.162 188.946 179.291 186.746C183.559 190.041 182.906 201.332 182.045 206.574C180.82 206.228 176.561 203.828 169.317 196.989C160.262 188.439 171.126 182.285 167.02 178.432C163.735 175.349 156.635 176.128 153.496 176.903C126.469 185.749 98.6827 186.951 88.1678 186.446C75.9767 187.289 73.0864 184.224 73.1652 182.587C75.8349 172.149 99.5027 160.035 118.72 158.365Z" fill="url(#paint1_linear_243_492)"/>
<g filter="url(#filter0_f_243_492)">
<ellipse cx="129.48" cy="170.806" rx="45.2349" ry="12.6575" fill="#000E19" fill-opacity="0.78"/>
</g>
<circle cx="181.562" cy="155.866" r="25.1074" fill="url(#paint2_radial_243_492)" fill-opacity="0.43"/>
<path d="M172.946 151.065C183.434 149.136 195.313 150.293 200.404 152.692C200.71 152.836 200.552 153.179 200.225 153.096C193.305 151.345 180.824 151.299 173.012 151.586C172.649 151.6 172.588 151.131 172.946 151.065Z" fill="white"/>
<path d="M172.463 155.137C180.438 155.469 187.698 158.942 191.77 161.587C192.066 161.78 191.848 162.148 191.524 162.007C183.13 158.351 177.395 156.67 172.415 155.645C172.065 155.572 172.106 155.122 172.463 155.137Z" fill="white"/>
<path d="M171.383 158.263C177.26 159.747 181.147 163.591 182.997 166.288C183.185 166.562 182.869 166.815 182.618 166.598C178.4 162.961 174.577 160.449 171.217 158.778C170.903 158.622 171.043 158.177 171.383 158.263Z" fill="white"/>
<circle cx="86.9424" cy="152.961" r="25.1074" fill="url(#paint3_radial_243_492)" fill-opacity="0.43"/>
<path d="M166.16 158.867C167.284 141.233 145.802 137.244 134.921 137.454C91.9328 136.973 92.2173 160.93 99.8192 169.544C107.421 178.159 123.472 167.89 136.551 168.723C148.652 169.495 164.755 180.909 166.16 158.867Z" fill="#D9D9D9"/>
<path d="M166.16 158.867C167.284 141.233 145.802 137.244 134.921 137.454C91.9328 136.973 92.2173 160.93 99.8192 169.544C107.421 178.159 123.472 167.89 136.551 168.723C148.652 169.495 164.755 180.909 166.16 158.867Z" fill="url(#paint4_linear_243_492)"/>
<ellipse cx="116.381" cy="146.436" rx="1.8675" ry="1.86749" transform="rotate(3.64646 116.381 146.436)" fill="#0A3E69" fill-opacity="0.51"/>
<path d="M89.6158 151.48C79.1272 149.551 67.2489 150.708 62.1575 153.107C61.8515 153.251 62.0091 153.594 62.337 153.511C69.2566 151.76 81.7375 151.714 89.5491 152.001C89.9125 152.015 89.9735 151.546 89.6158 151.48Z" fill="white"/>
<path d="M90.0985 155.552C82.1235 155.884 74.863 159.357 70.7918 162.002C70.4952 162.195 70.7135 162.563 71.0378 162.422C79.4319 158.766 85.1663 157.085 90.1461 156.06C90.4963 155.988 90.4558 155.537 90.0985 155.552Z" fill="white"/>
<path d="M91.1786 158.678C85.3012 160.162 81.4142 164.006 79.5643 166.703C79.3765 166.977 79.6923 167.23 79.9437 167.013C84.1612 163.377 87.9849 160.864 91.3443 159.194C91.6581 159.037 91.5184 158.592 91.1786 158.678Z" fill="white"/>
<ellipse cx="109.103" cy="149.714" rx="2.69749" ry="2.69749" transform="rotate(3.64646 109.103 149.714)" fill="#0A3E69" fill-opacity="0.51"/>
<ellipse cx="115.025" cy="154.666" rx="2.69749" ry="2.69749" transform="rotate(3.64646 115.025 154.666)" fill="#0A3E69" fill-opacity="0.51"/>
<ellipse cx="1.86749" cy="1.66" rx="1.86749" ry="1.66" transform="matrix(-0.997975 -0.0635998 -0.0635998 0.997975 151.63 145.433)" fill="#0A3E69" fill-opacity="0.51"/>
<ellipse cx="2.69749" cy="2.69749" rx="2.69749" ry="2.69749" transform="matrix(-0.997975 -0.0635998 -0.0635998 0.997975 159.341 148.419)" fill="#0A3E69" fill-opacity="0.51"/>
<ellipse cx="2.69749" cy="2.69749" rx="2.69749" ry="2.69749" transform="matrix(-0.997975 -0.0635998 -0.0635998 0.997975 152.838 152.579)" fill="#0A3E69" fill-opacity="0.51"/>
<path d="M160.605 112.706C171.81 109.725 189.721 122.019 185.712 138.851C180.701 159.891 136.375 119.152 160.605 112.706Z" fill="#093D68"/>
<path d="M142.928 136.466C135.458 133.644 126.121 135.291 122.386 136.466C115.953 139.786 123.631 150.576 128.818 155.971C134.006 161.366 152.266 139.994 142.928 136.466Z" fill="#093D68"/>
<g filter="url(#filter1_f_243_492)">
<path d="M167.394 136.666C156.066 129.791 158.38 120.299 160.952 116.412C162.625 130.303 173.08 134.552 178.098 134.94C174.83 138.283 169.6 137.484 167.394 136.666Z" fill="url(#paint5_linear_243_492)" fill-opacity="0.31"/>
</g>
<g filter="url(#filter2_f_243_492)">
<ellipse cx="1.245" cy="1.245" rx="1.245" ry="1.245" transform="matrix(-1 -8.74228e-08 -8.74228e-08 1 165.585 127.023)" fill="white"/>
</g>
<g filter="url(#filter3_f_243_492)">
<ellipse cx="3.52749" cy="3.52749" rx="3.52749" ry="3.52749" transform="matrix(-1 -8.74228e-08 -8.74228e-08 1 165.585 117.478)" fill="white"/>
</g>
<path d="M107.802 111.411C96.5966 108.43 78.6849 120.724 82.6941 137.556C87.7056 158.596 132.031 117.857 107.802 111.411Z" fill="#093D68"/>
<g filter="url(#filter4_f_243_492)">
<path d="M101.012 135.372C112.34 128.497 110.027 119.004 107.454 115.117C105.781 129.008 95.3267 133.258 90.3085 133.646C93.5762 136.989 98.8058 136.189 101.012 135.372Z" fill="url(#paint6_linear_243_492)" fill-opacity="0.31"/>
</g>
<g filter="url(#filter5_f_243_492)">
<ellipse cx="104.066" cy="126.974" rx="1.245" ry="1.245" fill="white"/>
</g>
<g filter="url(#filter6_f_243_492)">
<ellipse cx="106.349" cy="119.711" rx="3.52749" ry="3.52749" fill="white"/>
</g>
<ellipse cx="169.149" cy="103.576" rx="8.3553" ry="3.32508" transform="rotate(16.8356 169.149 103.576)" fill="#93BFE3"/>
<ellipse cx="8.3553" cy="3.32508" rx="8.3553" ry="3.32508" transform="matrix(0.95714 -0.289627 -0.289627 -0.95714 96.1309 109.178)" fill="#93BFE3"/>
<path d="M79.4834 177.518L89.2773 181.403M81.7789 182.18L86.8288 175.057" stroke="#143652" stroke-width="2"/>
<ellipse cx="56.5381" cy="21.3686" rx="22.7041" ry="21.3686" fill="url(#paint7_linear_243_492)"/>
<path d="M58.7637 79.2417C64.1726 79.2418 68.5576 83.4272 68.5576 88.5903C68.5576 93.7535 64.1727 97.9389 58.7637 97.939C58.1532 97.939 57.5561 97.8828 56.9766 97.7808C56.8466 102.811 53.313 106.842 48.9697 106.842C44.5442 106.842 40.9561 102.657 40.9561 97.4937C40.9562 92.3306 44.5442 88.145 48.9697 88.145C48.9736 88.145 48.9775 88.145 48.9814 88.145C49.225 83.1887 53.5111 79.2417 58.7637 79.2417Z" fill="url(#paint8_linear_243_492)"/>
<path d="M45.7154 112.229C47.5238 110.954 50.1383 111.549 51.555 113.558C52.9716 115.567 52.6539 118.23 50.8455 119.506C50.1769 119.977 49.398 120.192 48.6104 120.176C48.3984 120.589 48.0908 120.955 47.6909 121.237C46.2908 122.224 44.2999 121.812 43.2442 120.315C42.1886 118.817 42.4683 116.803 43.8684 115.816C43.9525 115.756 44.0385 115.702 44.1265 115.653C44.0633 114.304 44.6108 113.008 45.7154 112.229Z" fill="url(#paint9_linear_243_492)"/>
<circle cx="46.7439" cy="86.8098" r="4.00661" fill="url(#paint10_linear_243_492)"/>
<path d="M56.2236 5.34229C66.5906 5.34229 75.6781 10.6612 80.7627 18.644C82.0072 18.4597 83.282 18.3638 84.5801 18.3638C98.3507 18.3638 109.514 29.1271 109.514 42.4038C109.513 55.6803 98.3506 66.4429 84.5801 66.4429C80.4288 66.4429 76.5153 65.4632 73.0723 63.7329C68.6029 70.1967 60.9743 74.4565 52.3125 74.4565C50.2547 74.4565 48.2556 74.2134 46.3428 73.7603C41.9881 80.7761 34.0306 85.4741 24.9336 85.4741C11.1632 85.4739 0.000167865 74.7115 0 61.4351C0 53.7221 3.76753 46.8574 9.625 42.4585C7.85757 39.4995 6.84479 36.0588 6.84473 32.3872C6.84473 21.3233 16.0384 12.354 27.3789 12.354C30.2361 12.3541 32.9568 12.9239 35.4287 13.9526C40.677 8.64541 48.0534 5.34229 56.2236 5.34229Z" fill="url(#paint11_linear_243_492)"/>
<g clip-path="url(#clip0_243_492)">
<path d="M36.0586 36.0595C36.0585 33.6336 36.6592 31.2454 37.807 29.1082C38.9548 26.971 40.614 25.1513 42.6365 23.8116C44.6589 22.4719 46.9816 21.6538 49.3973 21.4305C51.8129 21.2072 54.2462 21.5856 56.48 22.5319C58.7137 23.4782 60.6784 24.9629 62.1985 26.8535C63.7186 28.7441 64.7469 30.9817 65.1915 33.3666C65.6362 35.7514 65.4833 38.2092 64.7465 40.5206C64.0098 42.8319 62.7122 44.9248 60.9695 46.6125C60.4724 47.0924 60.0905 47.5919 59.8603 48.1281L57.9946 52.4595C57.8999 52.679 57.743 52.866 57.5433 52.9974C57.3436 53.1288 57.1098 53.1988 56.8707 53.1989H44.6283C44.3888 53.1993 44.1545 53.1295 43.9543 52.9981C43.7541 52.8666 43.5968 52.6794 43.502 52.4595L41.6387 48.1256C41.3719 47.5533 40.995 47.0392 40.5295 46.6125C39.1134 45.2442 37.9876 43.6045 37.2194 41.7913C36.4512 39.9781 36.0564 38.0287 36.0586 36.0595V36.0595ZM43.404 56.8716C43.404 56.5469 43.533 56.2355 43.7626 56.006C43.9922 55.7764 44.3036 55.6474 44.6283 55.6474H56.8707C57.1954 55.6474 57.5068 55.7764 57.7364 56.006C57.966 56.2355 58.0949 56.5469 58.0949 56.8716C58.0949 57.1963 57.966 57.5077 57.7364 57.7373C57.5068 57.9669 57.1954 58.0959 56.8707 58.0959L56.3222 59.1903C56.119 59.597 55.8066 59.939 55.42 60.1782C55.0334 60.4173 54.5879 60.5441 54.1333 60.5443H47.3657C46.9111 60.5441 46.4656 60.4173 46.079 60.1782C45.6923 59.939 45.38 59.597 45.1767 59.1903L44.6283 58.0959C44.3036 58.0959 43.9922 57.9669 43.7626 57.7373C43.533 57.5077 43.404 57.1963 43.404 56.8716Z" fill="#E7F4FF"/>
</g>
<defs>
<filter id="filter0_f_243_492" x="74.1451" y="148.048" width="110.67" height="45.5149" filterUnits="userSpaceOnUse" color-interpolation-filters="sRGB">
<feFlood flood-opacity="0" result="BackgroundImageFix"/>
<feBlend mode="normal" in="SourceGraphic" in2="BackgroundImageFix" result="shape"/>
<feGaussianBlur stdDeviation="5.05" result="effect1_foregroundBlur_243_492"/>
</filter>
<filter id="filter1_f_243_492" x="154.84" y="112.412" width="27.2578" height="28.9717" filterUnits="userSpaceOnUse" color-interpolation-filters="sRGB">
<feFlood flood-opacity="0" result="BackgroundImageFix"/>
<feBlend mode="normal" in="SourceGraphic" in2="BackgroundImageFix" result="shape"/>
<feGaussianBlur stdDeviation="2" result="effect1_foregroundBlur_243_492"/>
</filter>
<filter id="filter2_f_243_492" x="159.195" y="123.123" width="10.2902" height="10.29" filterUnits="userSpaceOnUse" color-interpolation-filters="sRGB">
<feFlood flood-opacity="0" result="BackgroundImageFix"/>
<feBlend mode="normal" in="SourceGraphic" in2="BackgroundImageFix" result="shape"/>
<feGaussianBlur stdDeviation="1.95" result="effect1_foregroundBlur_243_492"/>
</filter>
<filter id="filter3_f_243_492" x="154.63" y="113.578" width="14.8547" height="14.8549" filterUnits="userSpaceOnUse" color-interpolation-filters="sRGB">
<feFlood flood-opacity="0" result="BackgroundImageFix"/>
<feBlend mode="normal" in="SourceGraphic" in2="BackgroundImageFix" result="shape"/>
<feGaussianBlur stdDeviation="1.95" result="effect1_foregroundBlur_243_492"/>
</filter>
<filter id="filter4_f_243_492" x="86.3086" y="111.117" width="27.2578" height="28.9717" filterUnits="userSpaceOnUse" color-interpolation-filters="sRGB">
<feFlood flood-opacity="0" result="BackgroundImageFix"/>
<feBlend mode="normal" in="SourceGraphic" in2="BackgroundImageFix" result="shape"/>
<feGaussianBlur stdDeviation="2" result="effect1_foregroundBlur_243_492"/>
</filter>
<filter id="filter5_f_243_492" x="98.9213" y="121.829" width="10.2902" height="10.29" filterUnits="userSpaceOnUse" color-interpolation-filters="sRGB">
<feFlood flood-opacity="0" result="BackgroundImageFix"/>
<feBlend mode="normal" in="SourceGraphic" in2="BackgroundImageFix" result="shape"/>
<feGaussianBlur stdDeviation="1.95" result="effect1_foregroundBlur_243_492"/>
</filter>
<filter id="filter6_f_243_492" x="98.9213" y="112.284" width="14.8547" height="14.8549" filterUnits="userSpaceOnUse" color-interpolation-filters="sRGB">
<feFlood flood-opacity="0" result="BackgroundImageFix"/>
<feBlend mode="normal" in="SourceGraphic" in2="BackgroundImageFix" result="shape"/>
<feGaussianBlur stdDeviation="1.95" result="effect1_foregroundBlur_243_492"/>
</filter>
<linearGradient id="paint0_linear_243_492" x1="103.722" y1="26.7699" x2="143.118" y2="199.311" gradientUnits="userSpaceOnUse">
<stop offset="0.155849" stop-color="#E7F4FF"/>
<stop offset="1" stop-color="#A7C7E1"/>
</linearGradient>
<linearGradient id="paint1_linear_243_492" x1="142.724" y1="159.786" x2="135.545" y2="197.79" gradientUnits="userSpaceOnUse">
<stop stop-color="#8BABC5"/>
<stop offset="1" stop-color="#43525F"/>
</linearGradient>
<radialGradient id="paint2_radial_243_492" cx="0" cy="0" r="1" gradientUnits="userSpaceOnUse" gradientTransform="translate(181.562 155.866) rotate(90) scale(25.1074)">
<stop stop-color="#FFAFAF"/>
<stop offset="1" stop-color="#FFAFAF" stop-opacity="0"/>
</radialGradient>
<radialGradient id="paint3_radial_243_492" cx="0" cy="0" r="1" gradientUnits="userSpaceOnUse" gradientTransform="translate(86.9424 152.961) rotate(90) scale(25.1074)">
<stop stop-color="#FFAFAF"/>
<stop offset="1" stop-color="#FFAFAF" stop-opacity="0"/>
</radialGradient>
<linearGradient id="paint4_linear_243_492" x1="133.044" y1="137.711" x2="130.712" y2="174.298" gradientUnits="userSpaceOnUse">
<stop stop-color="#89B1D1"/>
<stop offset="1" stop-color="#2E5D84"/>
</linearGradient>
<linearGradient id="paint5_linear_243_492" x1="170.485" y1="118.26" x2="166.908" y2="136.708" gradientUnits="userSpaceOnUse">
<stop stop-color="#93BFE3"/>
<stop offset="1" stop-color="#1279CE"/>
</linearGradient>
<linearGradient id="paint6_linear_243_492" x1="97.9211" y1="116.966" x2="101.498" y2="135.414" gradientUnits="userSpaceOnUse">
<stop stop-color="#93BFE3"/>
<stop offset="1" stop-color="#1279CE"/>
</linearGradient>
<linearGradient id="paint7_linear_243_492" x1="56.5381" y1="0" x2="56.5381" y2="42.7371" gradientUnits="userSpaceOnUse">
<stop stop-color="#62A7DE"/>
<stop offset="1" stop-color="#C4DCEF"/>
</linearGradient>
<linearGradient id="paint8_linear_243_492" x1="54.7568" y1="79.2417" x2="54.7568" y2="106.842" gradientUnits="userSpaceOnUse">
<stop stop-color="#62A7DE"/>
<stop offset="1" stop-color="#C4DCEF"/>
</linearGradient>
<linearGradient id="paint9_linear_243_492" x1="44.6235" y1="112.999" x2="49.7537" y2="120.275" gradientUnits="userSpaceOnUse">
<stop stop-color="#62A7DE"/>
<stop offset="1" stop-color="#C4DCEF"/>
</linearGradient>
<linearGradient id="paint10_linear_243_492" x1="46.7439" y1="82.8032" x2="46.7439" y2="90.8164" gradientUnits="userSpaceOnUse">
<stop stop-color="#62A7DE"/>
<stop offset="1" stop-color="#C4DCEF"/>
</linearGradient>
<linearGradient id="paint11_linear_243_492" x1="54.7568" y1="5.34229" x2="54.7568" y2="85.4741" gradientUnits="userSpaceOnUse">
<stop stop-color="#62A7DE"/>
<stop offset="1" stop-color="#C4DCEF"/>
</linearGradient>
<clipPath id="clip0_243_492">
<rect width="39.1757" height="39.1757" fill="white" transform="translate(31.1621 21.3687)"/>
</clipPath>
</defs>
</svg>
