<svg width="243" height="177" viewBox="0 0 243 177" fill="none" xmlns="http://www.w3.org/2000/svg">
<g clip-path="url(#clip0_245_757)">
<rect width="243" height="177" fill="white"/>
<path d="M130.3 58.592C79.305 59.2983 63.9666 112.329 62.6717 138.757L61.9357 168.99H205.49L202.342 121.847C199.575 102.541 181.294 57.8857 130.3 58.592Z" fill="#D9D9D9"/>
<path d="M130.3 58.592C79.305 59.2983 63.9666 112.329 62.6717 138.757L61.9357 168.99H205.49L202.342 121.847C199.575 102.541 181.294 57.8857 130.3 58.592Z" fill="url(#paint0_linear_245_757)"/>
<path d="M122.025 135.763C135.108 134.626 152.607 138.775 159.722 140.992C166.152 143.138 174.154 150.12 177.35 153.343C184.828 157.898 186.16 164.27 185.891 166.886C181.864 165.777 176.009 161.784 173.567 159.912C177.201 162.714 176.646 172.324 175.912 176.786C174.871 176.492 171.246 174.45 165.082 168.629C157.376 161.354 166.621 156.117 163.127 152.838C160.332 150.215 154.29 150.878 151.619 151.537C128.62 159.065 104.975 160.088 96.0269 159.659C85.6527 160.376 83.1932 157.768 83.2603 156.374C85.532 147.492 105.672 137.184 122.025 135.763Z" fill="url(#paint1_linear_245_757)"/>
<g filter="url(#filter0_f_245_757)">
<ellipse cx="131.183" cy="146.349" rx="38.4931" ry="10.771" fill="#000E19" fill-opacity="0.78"/>
</g>
<circle cx="175.501" cy="133.636" r="21.3654" fill="url(#paint2_radial_245_757)" fill-opacity="0.43"/>
<path d="M168.631 129.468C177.28 127.971 186.917 128.893 191.296 130.825C191.605 130.962 191.454 131.294 191.125 131.215C185.328 129.821 175.263 129.755 168.693 129.978C168.329 129.99 168.273 129.53 168.631 129.468Z" fill="white"/>
<path d="M168.157 133.035C174.592 133.402 180.44 136.131 183.884 138.309C184.183 138.498 183.97 138.857 183.645 138.717C176.899 135.8 172.189 134.395 168.109 133.529C167.759 133.455 167.8 133.015 168.157 133.035Z" fill="white"/>
<path d="M167.167 135.762C171.847 137.044 174.998 140.079 176.586 142.308C176.779 142.579 176.472 142.829 176.219 142.613C172.827 139.709 169.737 137.662 167 136.266C166.688 136.107 166.829 135.669 167.167 135.762Z" fill="white"/>
<circle cx="94.9846" cy="131.164" r="21.3654" fill="url(#paint3_radial_245_757)" fill-opacity="0.43"/>
<path d="M162.396 136.189C163.352 121.183 145.072 117.789 135.813 117.968C99.2315 117.558 99.4736 137.945 105.943 145.275C112.411 152.606 126.07 143.868 137.2 144.577C147.497 145.233 161.2 154.947 162.396 136.189Z" fill="#D9D9D9"/>
<path d="M162.396 136.189C163.352 121.183 145.072 117.789 135.813 117.968C99.2315 117.558 99.4736 137.945 105.943 145.275C112.411 152.606 126.07 143.868 137.2 144.577C147.497 145.233 161.2 154.947 162.396 136.189Z" fill="url(#paint4_linear_245_757)"/>
<ellipse cx="120.036" cy="125.611" rx="1.58917" ry="1.58916" transform="rotate(3.64646 120.036 125.611)" fill="#0A3E69" fill-opacity="0.51"/>
<path d="M96.7964 129.821C88.148 128.324 78.5104 129.246 74.1322 131.179C73.8227 131.315 73.9741 131.648 74.303 131.568C80.0999 130.174 90.1648 130.109 96.735 130.331C97.0985 130.343 97.1548 129.883 96.7964 129.821Z" fill="white"/>
<path d="M97.2718 133.388C90.8363 133.756 84.9889 136.484 81.545 138.662C81.2461 138.851 81.4587 139.21 81.7833 139.07C88.5293 136.153 93.2393 134.748 97.3201 133.882C97.6699 133.808 97.6288 133.368 97.2718 133.388Z" fill="white"/>
<path d="M98.2615 136.115C93.5815 137.397 90.4305 140.432 88.8426 142.662C88.65 142.932 88.9571 143.182 89.2093 142.966C92.6016 140.062 95.6916 138.015 98.4283 136.619C98.7405 136.46 98.5996 136.022 98.2615 136.115Z" fill="white"/>
<ellipse cx="113.843" cy="128.401" rx="2.29546" ry="2.29546" transform="rotate(3.64646 113.843 128.401)" fill="#0A3E69" fill-opacity="0.51"/>
<ellipse cx="118.882" cy="132.615" rx="2.29546" ry="2.29546" transform="rotate(3.64646 118.882 132.615)" fill="#0A3E69" fill-opacity="0.51"/>
<ellipse cx="1.58916" cy="1.41259" rx="1.58916" ry="1.41259" transform="matrix(-0.997975 -0.0635998 -0.0635998 0.997975 150.031 124.758)" fill="#0A3E69" fill-opacity="0.51"/>
<ellipse cx="2.29546" cy="2.29546" rx="2.29546" ry="2.29546" transform="matrix(-0.997975 -0.0635998 -0.0635998 0.997975 156.593 127.299)" fill="#0A3E69" fill-opacity="0.51"/>
<ellipse cx="2.29546" cy="2.29546" rx="2.29546" ry="2.29546" transform="matrix(-0.997975 -0.0635998 -0.0635998 0.997975 151.059 130.839)" fill="#0A3E69" fill-opacity="0.51"/>
<path d="M157.669 96.9083C167.204 94.3718 182.446 104.833 179.034 119.157C174.77 137.061 137.05 102.393 157.669 96.9083Z" fill="#093D68"/>
<path d="M142.626 117.127C136.27 114.726 128.324 116.127 125.145 117.127C119.672 119.953 126.205 129.134 130.619 133.725C135.034 138.316 150.572 120.129 142.626 117.127Z" fill="#093D68"/>
<g filter="url(#filter1_f_245_757)">
<path d="M163.445 117.297C153.805 111.447 155.774 103.369 157.964 100.062C159.387 111.882 168.283 115.498 172.554 115.829C169.773 118.674 165.323 117.993 163.445 117.297Z" fill="url(#paint5_linear_245_757)" fill-opacity="0.31"/>
</g>
<g filter="url(#filter2_f_245_757)">
<ellipse cx="1.05944" cy="1.05944" rx="1.05944" ry="1.05944" transform="matrix(-1 -8.74228e-08 -8.74228e-08 1 161.906 109.092)" fill="white"/>
</g>
<g filter="url(#filter3_f_245_757)">
<ellipse cx="3.00176" cy="3.00176" rx="3.00176" ry="3.00176" transform="matrix(-1 -8.74228e-08 -8.74228e-08 1 161.906 100.969)" fill="white"/>
</g>
<path d="M112.735 95.8065C103.2 93.27 87.9575 103.731 91.3692 118.055C95.6338 135.959 133.353 101.292 112.735 95.8065Z" fill="#093D68"/>
<g filter="url(#filter4_f_245_757)">
<path d="M106.957 116.196C116.597 110.346 114.628 102.268 112.439 98.9604C111.016 110.781 102.119 114.397 97.8487 114.728C100.629 117.572 105.08 116.892 106.957 116.196Z" fill="url(#paint6_linear_245_757)" fill-opacity="0.31"/>
</g>
<g filter="url(#filter5_f_245_757)">
<ellipse cx="109.557" cy="109.05" rx="1.05944" ry="1.05944" fill="white"/>
</g>
<g filter="url(#filter6_f_245_757)">
<ellipse cx="111.499" cy="102.869" rx="3.00176" ry="3.00176" fill="white"/>
</g>
<ellipse cx="164.939" cy="89.1391" rx="7.11004" ry="2.82951" transform="rotate(16.8356 164.939 89.1391)" fill="#93BFE3"/>
<ellipse cx="7.11004" cy="2.82951" rx="7.11004" ry="2.82951" transform="matrix(0.95714 -0.289627 -0.289627 -0.95714 102.804 93.9062)" fill="#93BFE3"/>
<path d="M88.6367 152.06L96.971 155.367M90.5901 156.028L94.8874 149.967" stroke="#143652" stroke-width="2"/>
<ellipse cx="69.1113" cy="19.1838" rx="19.3203" ry="18.1838" fill="url(#paint7_linear_245_757)"/>
<path d="M71.0059 68.4316C75.6086 68.4317 79.3397 71.9932 79.3398 76.3867C79.3398 80.7804 75.6087 84.3427 71.0059 84.3428C70.4861 84.3428 69.9778 84.2939 69.4844 84.207C69.374 88.488 66.3671 91.9189 62.6709 91.9189C58.9052 91.9187 55.8527 88.3572 55.8525 83.9639C55.8525 79.5704 58.9051 76.0081 62.6709 76.0078C62.6743 76.0078 62.6782 76.0078 62.6816 76.0078C62.889 71.7902 66.5362 68.4316 71.0059 68.4316Z" fill="url(#paint8_linear_245_757)"/>
<path d="M59.9022 96.5023C61.4412 95.4176 63.6658 95.9241 64.8713 97.6339C66.0767 99.3437 65.8063 101.609 64.2677 102.694C63.6978 103.096 63.0337 103.279 62.3624 103.264C62.182 103.616 61.9236 103.929 61.5837 104.168C60.3923 105.008 58.6985 104.657 57.8001 103.383C56.9018 102.108 57.1393 100.394 58.3307 99.5542C58.4018 99.5041 58.4749 99.4585 58.5493 99.4168C58.4953 98.2686 58.9621 97.1651 59.9022 96.5023Z" fill="url(#paint9_linear_245_757)"/>
<circle cx="60.7776" cy="74.8716" r="3.40947" fill="url(#paint10_linear_245_757)"/>
<path d="M68.8447 5.5459C77.6663 5.54603 85.3998 10.0715 89.7266 16.8643C90.7854 16.7075 91.8703 16.627 92.9746 16.627C104.693 16.6271 114.192 25.7861 114.192 37.084C114.192 48.3817 104.693 57.5399 92.9746 57.54C89.442 57.54 86.1115 56.7067 83.1816 55.2344C79.3784 60.7346 72.8864 64.3594 65.5156 64.3594C63.7648 64.3593 62.064 64.1521 60.4365 63.7666C56.7309 69.737 49.9592 73.7354 42.2178 73.7354C30.4995 73.7353 21 64.5762 21 53.2783C21 46.7146 24.2065 40.8731 29.1914 37.1299C27.6874 34.6119 26.8252 31.684 26.8252 28.5596C26.8253 19.1446 34.6485 11.5127 44.2988 11.5127C46.7303 11.5127 49.0459 11.9966 51.1494 12.8721C55.6155 8.35631 61.8926 5.5459 68.8447 5.5459Z" fill="url(#paint11_linear_245_757)"/>
<g clip-path="url(#clip1_245_757)">
<path d="M51.6846 31.6851C51.6845 29.6208 52.1957 27.5885 53.1724 25.7698C54.1491 23.9511 55.5611 22.4026 57.2821 21.2626C59.0031 20.1225 60.9797 19.4264 63.0353 19.2364C65.0909 19.0464 67.1615 19.3684 69.0624 20.1737C70.9632 20.9789 72.6351 22.2423 73.9286 23.8512C75.2222 25.46 76.0972 27.3641 76.4756 29.3935C76.8539 31.4229 76.7238 33.5144 76.0969 35.4813C75.47 37.4482 74.3657 39.2292 72.8827 40.6653C72.4598 41.0737 72.1347 41.4987 71.9389 41.955L70.3512 45.6408C70.2707 45.8276 70.1372 45.9868 69.9672 46.0986C69.7973 46.2104 69.5983 46.27 69.3949 46.2701H58.977C58.7733 46.2704 58.5738 46.211 58.4035 46.0991C58.2331 45.9873 58.0993 45.828 58.0186 45.6408L56.433 41.9529C56.206 41.4659 55.8853 41.0284 55.4892 40.6653C54.2841 39.5009 53.3261 38.1056 52.6724 36.5626C52.0187 35.0197 51.6827 33.3608 51.6846 31.6851V31.6851ZM57.9353 49.3954C57.9353 49.1191 58.045 48.8541 58.2404 48.6587C58.4358 48.4634 58.7007 48.3536 58.977 48.3536H69.3949C69.6712 48.3536 69.9361 48.4634 70.1315 48.6587C70.3269 48.8541 70.4366 49.1191 70.4366 49.3954C70.4366 49.6717 70.3269 49.9367 70.1315 50.1321C69.9361 50.3274 69.6712 50.4372 69.3949 50.4372L68.9281 51.3685C68.7552 51.7146 68.4894 52.0056 68.1604 52.2091C67.8314 52.4126 67.4523 52.5205 67.0654 52.5207H61.3065C60.9196 52.5205 60.5405 52.4126 60.2115 52.2091C59.8825 52.0056 59.6167 51.7146 59.4438 51.3685L58.977 50.4372C58.7007 50.4372 58.4358 50.3274 58.2404 50.1321C58.045 49.9367 57.9353 49.6717 57.9353 49.3954Z" fill="#E7F4FF"/>
</g>
</g>
<defs>
<filter id="filter0_f_245_757" x="82.5895" y="125.478" width="97.1863" height="41.742" filterUnits="userSpaceOnUse" color-interpolation-filters="sRGB">
<feFlood flood-opacity="0" result="BackgroundImageFix"/>
<feBlend mode="normal" in="SourceGraphic" in2="BackgroundImageFix" result="shape"/>
<feGaussianBlur stdDeviation="5.05" result="effect1_foregroundBlur_245_757"/>
</filter>
<filter id="filter1_f_245_757" x="152.165" y="96.0618" width="24.3887" height="25.8462" filterUnits="userSpaceOnUse" color-interpolation-filters="sRGB">
<feFlood flood-opacity="0" result="BackgroundImageFix"/>
<feBlend mode="normal" in="SourceGraphic" in2="BackgroundImageFix" result="shape"/>
<feGaussianBlur stdDeviation="2" result="effect1_foregroundBlur_245_757"/>
</filter>
<filter id="filter2_f_245_757" x="155.887" y="105.192" width="9.91914" height="9.9189" filterUnits="userSpaceOnUse" color-interpolation-filters="sRGB">
<feFlood flood-opacity="0" result="BackgroundImageFix"/>
<feBlend mode="normal" in="SourceGraphic" in2="BackgroundImageFix" result="shape"/>
<feGaussianBlur stdDeviation="1.95" result="effect1_foregroundBlur_245_757"/>
</filter>
<filter id="filter3_f_245_757" x="152.002" y="97.0695" width="13.8039" height="13.8034" filterUnits="userSpaceOnUse" color-interpolation-filters="sRGB">
<feFlood flood-opacity="0" result="BackgroundImageFix"/>
<feBlend mode="normal" in="SourceGraphic" in2="BackgroundImageFix" result="shape"/>
<feGaussianBlur stdDeviation="1.95" result="effect1_foregroundBlur_245_757"/>
</filter>
<filter id="filter4_f_245_757" x="93.8486" y="94.9604" width="24.3887" height="25.8462" filterUnits="userSpaceOnUse" color-interpolation-filters="sRGB">
<feFlood flood-opacity="0" result="BackgroundImageFix"/>
<feBlend mode="normal" in="SourceGraphic" in2="BackgroundImageFix" result="shape"/>
<feGaussianBlur stdDeviation="2" result="effect1_foregroundBlur_245_757"/>
</filter>
<filter id="filter5_f_245_757" x="104.597" y="104.09" width="9.91914" height="9.9189" filterUnits="userSpaceOnUse" color-interpolation-filters="sRGB">
<feFlood flood-opacity="0" result="BackgroundImageFix"/>
<feBlend mode="normal" in="SourceGraphic" in2="BackgroundImageFix" result="shape"/>
<feGaussianBlur stdDeviation="1.95" result="effect1_foregroundBlur_245_757"/>
</filter>
<filter id="filter6_f_245_757" x="104.597" y="95.9677" width="13.8039" height="13.8034" filterUnits="userSpaceOnUse" color-interpolation-filters="sRGB">
<feFlood flood-opacity="0" result="BackgroundImageFix"/>
<feBlend mode="normal" in="SourceGraphic" in2="BackgroundImageFix" result="shape"/>
<feGaussianBlur stdDeviation="1.95" result="effect1_foregroundBlur_245_757"/>
</filter>
<linearGradient id="paint0_linear_245_757" x1="109.264" y1="23.7803" x2="142.788" y2="170.606" gradientUnits="userSpaceOnUse">
<stop offset="0.155849" stop-color="#E7F4FF"/>
<stop offset="1" stop-color="#A7C7E1"/>
</linearGradient>
<linearGradient id="paint1_linear_245_757" x1="142.452" y1="136.971" x2="136.343" y2="169.311" gradientUnits="userSpaceOnUse">
<stop stop-color="#8BABC5"/>
<stop offset="1" stop-color="#43525F"/>
</linearGradient>
<radialGradient id="paint2_radial_245_757" cx="0" cy="0" r="1" gradientUnits="userSpaceOnUse" gradientTransform="translate(175.501 133.636) rotate(90) scale(21.3654)">
<stop stop-color="#FFAFAF"/>
<stop offset="1" stop-color="#FFAFAF" stop-opacity="0"/>
</radialGradient>
<radialGradient id="paint3_radial_245_757" cx="0" cy="0" r="1" gradientUnits="userSpaceOnUse" gradientTransform="translate(94.9846 131.164) rotate(90) scale(21.3654)">
<stop stop-color="#FFAFAF"/>
<stop offset="1" stop-color="#FFAFAF" stop-opacity="0"/>
</radialGradient>
<linearGradient id="paint4_linear_245_757" x1="134.215" y1="118.187" x2="132.231" y2="149.321" gradientUnits="userSpaceOnUse">
<stop stop-color="#89B1D1"/>
<stop offset="1" stop-color="#2E5D84"/>
</linearGradient>
<linearGradient id="paint5_linear_245_757" x1="166.076" y1="101.635" x2="163.032" y2="117.333" gradientUnits="userSpaceOnUse">
<stop stop-color="#93BFE3"/>
<stop offset="1" stop-color="#1279CE"/>
</linearGradient>
<linearGradient id="paint6_linear_245_757" x1="104.327" y1="100.533" x2="107.371" y2="116.232" gradientUnits="userSpaceOnUse">
<stop stop-color="#93BFE3"/>
<stop offset="1" stop-color="#1279CE"/>
</linearGradient>
<linearGradient id="paint7_linear_245_757" x1="69.1113" y1="1" x2="69.1113" y2="37.3676" gradientUnits="userSpaceOnUse">
<stop stop-color="#62A7DE"/>
<stop offset="1" stop-color="#C4DCEF"/>
</linearGradient>
<linearGradient id="paint8_linear_245_757" x1="67.5961" y1="68.4316" x2="67.5961" y2="91.9188" gradientUnits="userSpaceOnUse">
<stop stop-color="#62A7DE"/>
<stop offset="1" stop-color="#C4DCEF"/>
</linearGradient>
<linearGradient id="paint9_linear_245_757" x1="58.9732" y1="97.1572" x2="63.3386" y2="103.349" gradientUnits="userSpaceOnUse">
<stop stop-color="#62A7DE"/>
<stop offset="1" stop-color="#C4DCEF"/>
</linearGradient>
<linearGradient id="paint10_linear_245_757" x1="60.7776" y1="71.4622" x2="60.7776" y2="78.2811" gradientUnits="userSpaceOnUse">
<stop stop-color="#62A7DE"/>
<stop offset="1" stop-color="#C4DCEF"/>
</linearGradient>
<linearGradient id="paint11_linear_245_757" x1="67.5962" y1="5.5459" x2="67.5962" y2="73.7354" gradientUnits="userSpaceOnUse">
<stop stop-color="#62A7DE"/>
<stop offset="1" stop-color="#C4DCEF"/>
</linearGradient>
<clipPath id="clip0_245_757">
<rect width="243" height="177" fill="white"/>
</clipPath>
<clipPath id="clip1_245_757">
<rect width="33.337" height="33.337" fill="white" transform="translate(47.5176 19.1838)"/>
</clipPath>
</defs>
</svg>
